<svg xmlns="http://www.w3.org/2000/svg" width="55.194" height="55.193" viewBox="0 0 55.194 55.193"><defs><style>.a{fill:#ffd100;}</style></defs><g transform="translate(0)"><g transform="translate(0 0)"><path class="a" d="M26.394,33.2H20.555v-13.3a1.078,1.078,0,1,0-2.156,0v7.438H15.811V2.156H18.4v8.049a1.078,1.078,0,1,0,2.156,0V1.078A1.078,1.078,0,0,0,19.477,0H14.733a1.078,1.078,0,0,0-1.078,1.078V33.2H7.816a3.867,3.867,0,0,0-3.863,3.863v2.841a26.281,26.281,0,0,1-3.8,13.649,1.078,1.078,0,0,0,.921,1.638H25.226a1.078,1.078,0,0,0,.921-.519,28.436,28.436,0,0,0,4.11-14.768V37.065A3.867,3.867,0,0,0,26.394,33.2ZM15.811,29.5H18.4v3.7H15.811ZM7.816,35.358H26.394A1.709,1.709,0,0,1,28.1,37.065v1.756H6.109V37.065A1.709,1.709,0,0,1,7.816,35.358ZM24.611,53.038H19.017A28.594,28.594,0,0,0,21.21,47.4a1.078,1.078,0,1,0-2.08-.567,26.283,26.283,0,0,1-2.569,6.2H10.968A28.589,28.589,0,0,0,13.161,47.4a1.078,1.078,0,1,0-2.08-.567,26.284,26.284,0,0,1-2.569,6.2H2.921A28.459,28.459,0,0,0,6.089,40.985H28.079a26.264,26.264,0,0,1-3.468,12.053Z" transform="translate(0 0)"/><path class="a" d="M321.229,387.761a3.931,3.931,0,0,0-2.8,1.159,1.078,1.078,0,1,0,1.525,1.525,1.8,1.8,0,1,1,2.547,2.548,1.078,1.078,0,1,0,1.525,1.525,3.957,3.957,0,0,0-2.8-6.756Z" transform="translate(-283.822 -345.96)"/><path class="a" d="M304.841,248.156a1.835,1.835,0,0,1,1.833,1.833,1.078,1.078,0,0,0,2.156,0,3.989,3.989,0,0,0-7.977,0,1.078,1.078,0,0,0,2.156,0A1.835,1.835,0,0,1,304.841,248.156Z" transform="translate(-268.42 -219.481)"/><path class="a" d="M386.9,307.215a6.359,6.359,0,0,0-9.984-7.634,1.078,1.078,0,1,0,1.492,1.556,4.2,4.2,0,0,1,5.96,5.922,1.078,1.078,0,0,0,.586,1.8,4.985,4.985,0,1,1-5.174,7.494,1.078,1.078,0,1,0-1.84,1.123,7.142,7.142,0,1,0,8.96-10.262Z" transform="translate(-335.991 -265.708)"/><path class="a" d="M171.748,129.67a1.078,1.078,0,1,0,.762.316A1.082,1.082,0,0,0,171.748,129.67Z" transform="translate(-152.272 -115.692)"/></g></g></svg>