<svg xmlns="http://www.w3.org/2000/svg" xmlns:xlink="http://www.w3.org/1999/xlink" width="988" height="677" viewBox="0 0 988 677">
  <defs>
    <clipPath id="clip-path">
      <rect id="Rectangle_434" data-name="Rectangle 434" width="988" height="677" transform="translate(932 136)" fill="#fff" stroke="#707070" stroke-width="1"/>
    </clipPath>
    <filter id="Ellipse_1" x="-86" y="-248" width="1028" height="1028" filterUnits="userSpaceOnUse">
      <feOffset dx="-60" dy="43" input="SourceAlpha"/>
      <feGaussianBlur stdDeviation="38" result="blur"/>
      <feFlood flood-color="#0d13d7" flood-opacity="0.071"/>
      <feComposite operator="in" in2="blur"/>
      <feComposite in="SourceGraphic"/>
    </filter>
    <radialGradient id="radial-gradient" cx="0.5" cy="0.5" r="0.5" gradientUnits="objectBoundingBox">
      <stop offset="0" stop-color="#fff" stop-opacity="0"/>
      <stop offset="0.824" stop-color="#fff" stop-opacity="0.141"/>
      <stop offset="1" stop-color="#fff" stop-opacity="0.471"/>
    </radialGradient>
  </defs>
  <g id="Mask_Group_1" data-name="Mask Group 1" transform="translate(-932 -136)" clip-path="url(#clip-path)">
    <g id="Group_1907" data-name="Group 1907">
      <g id="Group_1577" data-name="Group 1577" transform="translate(-17 96)">
        <g transform="matrix(1, 0, 0, 1, 949, 40)" filter="url(#Ellipse_1)">
          <circle id="Ellipse_1-2" data-name="Ellipse 1" cx="400" cy="400" r="400" transform="translate(88 -177)" fill="#ff50a0"/>
        </g>
        <ellipse id="Ellipse_2" data-name="Ellipse 2" cx="287" cy="286.5" rx="287" ry="286.5" transform="translate(1150 -24)" fill="#fff" opacity="0.5"/>
        <ellipse id="Ellipse_3" data-name="Ellipse 3" cx="193.5" cy="193" rx="193.5" ry="193" transform="translate(1243 70)" fill="#fff" opacity="0.25"/>
      </g>
      <g id="Group_1728" data-name="Group 1728" transform="translate(675.596 214.12)">
        <g id="Group_1690" data-name="Group 1690" transform="translate(417.941 43.37)">
          <g id="Group_1682" data-name="Group 1682" transform="translate(0 172.176)">
            <path id="Path_1599" data-name="Path 1599" d="M423.827,234.934h-9.311l-1.926-35.7H425.9Z" transform="translate(-361.433 -18.035)" fill="#3a2c32"/>
            <path id="Path_1600" data-name="Path 1600" d="M563.181,234.934H553.87l-1.926-35.7H565.25Z" transform="translate(-194.55 -18.035)" fill="#3a2c32"/>
            <g id="Group_1681" data-name="Group 1681">
              <g id="Group_1679" data-name="Group 1679">
                <path id="Path_1601" data-name="Path 1601" d="M596.722,135.653l-13.55-1.24-32.155,13.209V203.97h45.706Z" transform="translate(-195.661 -95.662)" fill="#3db7de"/>
                <path id="Path_1602" data-name="Path 1602" d="M398.847,135.653l13.55-1.24,32.155,13.209V203.97H398.847Z" transform="translate(-377.892 -95.662)" fill="#3db7de"/>
                <path id="Path_1603" data-name="Path 1603" d="M691.8,116.779H437.141a17.9,17.9,0,0,0-17.9,17.9V245.942a17.9,17.9,0,0,0,17.9,17.9H691.8a17.9,17.9,0,0,0,17.9-17.9V134.676A17.9,17.9,0,0,0,691.8,116.779Z" transform="translate(-353.465 -116.779)" fill="#80d0f3"/>
                <path id="Rectangle_386" data-name="Rectangle 386" d="M12.139,0H41.214A12.139,12.139,0,0,1,53.353,12.139V156.2a4.9,4.9,0,0,1-4.9,4.9H0a0,0,0,0,1,0,0V12.139A12.139,12.139,0,0,1,12.139,0Z" transform="translate(368.663 37.581)" fill="#80d0f3"/>
                <path id="Path_1604" data-name="Path 1604" d="M400.07,294.976h42.6V160.558a26.677,26.677,0,0,0-26.676-26.678h0a26.678,26.678,0,0,0-26.678,26.678V284.219A10.757,10.757,0,0,0,400.07,294.976Z" transform="translate(-389.311 -96.3)" fill="#80d0f3"/>
                <path id="Path_1605" data-name="Path 1605" d="M606.509,192.317H413.59v32.677H728.9V192.317Z" transform="translate(-360.236 -26.318)" fill="#80d0f3"/>
                <path id="Path_1606" data-name="Path 1606" d="M606.509,166.065H413.59v57.691H728.9V166.065Z" transform="translate(-360.236 -57.757)" fill="#95ddf7"/>
                <path id="Path_1607" data-name="Path 1607" d="M715.592,160.291H426.9L413.59,172.979H728.9Z" transform="translate(-360.236 -64.671)" fill="#3db7de"/>
                <rect id="Rectangle_387" data-name="Rectangle 387" width="315.308" height="3.678" transform="translate(53.354 162.322)" fill="#3db7de"/>
              </g>
              <g id="Group_1680" data-name="Group 1680" transform="translate(175.973 29.949)">
                <rect id="Rectangle_388" data-name="Rectangle 388" width="74.844" height="63.324" rx="4.91" transform="matrix(0.997, -0.077, 0.077, 0.997, 0, 5.76)" fill="#fbfff9"/>
                <rect id="Rectangle_389" data-name="Rectangle 389" width="74.845" height="63.324" rx="4.91" transform="translate(74.223 8.907)" fill="#fbc55c"/>
              </g>
            </g>
          </g>
          <g id="Group_1689" data-name="Group 1689" transform="translate(2.833)">
            <g id="Group_1686" data-name="Group 1686">
              <g id="Group_1685" data-name="Group 1685">
                <g id="Group_1684" data-name="Group 1684">
                  <g id="Group_1683" data-name="Group 1683">
                    <path id="Path_1608" data-name="Path 1608" d="M588,38.43l.143,118.551-197.4.248L390.6,38.678Zm-9.221,110.154V47.075H399.028V148.584Z" transform="translate(-390.6 -38.43)" fill="#eecace"/>
                  </g>
                </g>
                <rect id="Rectangle_390" data-name="Rectangle 390" width="105.6" height="184.233" transform="translate(6.185 112.2) rotate(-90)" fill="#f8f6f2"/>
                <rect id="Rectangle_391" data-name="Rectangle 391" width="73.463" height="150.525" transform="translate(22.331 96.179) rotate(-90)" fill="#ffe6e8"/>
              </g>
            </g>
            <circle id="Ellipse_409" data-name="Ellipse 409" cx="18.932" cy="18.932" r="18.932" transform="translate(40.465 40.8)" fill="#fff"/>
            <circle id="Ellipse_410" data-name="Ellipse 410" cx="18.932" cy="18.932" r="18.932" transform="translate(84.404 40.8)" fill="#fbc55c"/>
            <path id="Path_1609" data-name="Path 1609" d="M466.85,69.079a6.159,6.159,0,1,1-6.16-6.158A6.158,6.158,0,0,1,466.85,69.079Z" transform="translate(-314.037 -9.101)" fill="#fbc55c"/>
            <g id="Group_1687" data-name="Group 1687" transform="translate(129.39 78.914)">
              <path id="Path_1610" data-name="Path 1610" d="M466.743,74.34a17.264,17.264,0,0,0-17.264,17.266h34.53A17.266,17.266,0,0,0,466.743,74.34Z" transform="translate(-449.479 -74.34)" fill="#fff"/>
            </g>
            <g id="Group_1688" data-name="Group 1688" transform="translate(46.166 22.531)">
              <path id="Path_1611" data-name="Path 1611" d="M424.84,61.912a13.229,13.229,0,0,0,13.229-13.229H411.608A13.23,13.23,0,0,0,424.84,61.912Z" transform="translate(-411.608 -48.683)" fill="#fbc55c"/>
            </g>
          </g>
        </g>
        <g id="Group_1727" data-name="Group 1727" transform="translate(365.404 34.305)">
          <g id="Group_1726" data-name="Group 1726" transform="translate(199.063)">
            <g id="Group_1700" data-name="Group 1700" transform="translate(163.467 165.531)">
              <g id="Group_1694" data-name="Group 1694" transform="translate(0 3.78)">
                <g id="Group_1693" data-name="Group 1693" transform="translate(0 180.991)">
                  <path id="Path_1612" data-name="Path 1612" d="M549.484,193.71l-4.933,31.4,17.156-.528,6.149-29.5Z" transform="translate(-513.396 -193.71)" fill="#ffb9b4"/>
                  <g id="Group_1692" data-name="Group 1692" transform="translate(0 27.152)">
                    <g id="Group_1691" data-name="Group 1691">
                      <path id="Path_1613" data-name="Path 1613" d="M561.778,206.066,533.12,216.948a4.55,4.55,0,0,0-2.387,5.116h0l50.537.642-1.87-16.629Z" transform="translate(-530.086 -206.066)" fill="#001335"/>
                      <path id="Path_1614" data-name="Path 1614" d="M582.447,219.5l-52.073-.663,0-5.493,52.073.663Z" transform="translate(-530.374 -197.353)" fill="#fff"/>
                    </g>
                  </g>
                </g>
                <path id="Path_1615" data-name="Path 1615" d="M597.353,111.35l-1.031,2.835c-10.26,16.1-19.82,36.306-26.34,54.2L550,223.2l-7.146,77.655,34.3,2.345,8.707-70.431,40.54-75.071-2.129-43.824Z" transform="translate(-515.428 -111.35)" fill="#123c5e"/>
              </g>
              <g id="Group_1699" data-name="Group 1699" transform="translate(82.941)">
                <g id="Group_1697" data-name="Group 1697" transform="translate(57.307 162.307)">
                  <path id="Path_1616" data-name="Path 1616" d="M596.427,191.561,614.5,219.924l14.6-9.118-16.105-27.318Z" transform="translate(-591.519 -183.488)" fill="#ffb9b4"/>
                  <g id="Group_1696" data-name="Group 1696" transform="translate(0 25.392)">
                    <g id="Group_1695" data-name="Group 1695">
                      <path id="Path_1617" data-name="Path 1617" d="M615.28,202.69l-20.266,25.729a4.87,4.87,0,0,0,.42,5.953h0l46.232-26.166-11.392-13.163Z" transform="translate(-594.194 -195.043)" fill="#001335"/>
                      <path id="Path_1618" data-name="Path 1618" d="M644.9,205.861l-47.636,26.962-2.778-5.038,47.636-26.962Z" transform="translate(-593.838 -188.122)" fill="#fff"/>
                    </g>
                  </g>
                </g>
                <g id="Group_1698" data-name="Group 1698">
                  <path id="Path_1619" data-name="Path 1619" d="M572.293,155.1l14.058,75.719,36.991,60.123,30.715-16.664-30.528-49.284,1.2-51.01S621.843,127.3,606.1,109.63L576.424,114.2Z" transform="translate(-563.114 -109.63)" fill="#123c5e"/>
                  <path id="Path_1620" data-name="Path 1620" d="M582.76,162.689l-3.992-25.411-10.652-9.4" transform="translate(-568.116 -87.782)" fill="none" stroke="#012943" stroke-miterlimit="10" stroke-width="0.756"/>
                </g>
              </g>
            </g>
            <g id="Group_1720" data-name="Group 1720" transform="translate(0 84.715)">
              <g id="Group_1704" data-name="Group 1704" transform="translate(177.377 10.072)">
                <g id="Group_1702" data-name="Group 1702" transform="translate(0 22.824)">
                  <path id="Path_1621" data-name="Path 1621" d="M563.087,87.824l-6.542,40.554a8.375,8.375,0,0,0,6.628,9.524h0a8.441,8.441,0,0,0,9.759-5.722l13.3-42.639Z" transform="translate(-513.072 -87.824)" fill="#ffb9b4"/>
                  <g id="Group_1701" data-name="Group 1701" transform="translate(0 33.664)">
                    <path id="Path_1622" data-name="Path 1622" d="M573.836,106.734l-30.6,43.977,10.236,3.633,33.658-37.523a8.294,8.294,0,0,0-4.074-13.35h0A8.41,8.41,0,0,0,573.836,106.734Z" transform="translate(-528.88 -103.143)" fill="#ffb9b4"/>
                    <path id="Path_1623" data-name="Path 1623" d="M551.061,124.789s-16.455,5.826-14.132,18.125l19.47-6.993,4.9-7.5Z" transform="translate(-536.704 -77.22)" fill="#ffb9b4"/>
                  </g>
                </g>
                <g id="Group_1703" data-name="Group 1703" transform="translate(31.307)">
                  <path id="Path_1624" data-name="Path 1624" d="M575.387,77.438,550.95,123.18c13.561,14.943,27.371,20.413,27.371,20.413l7.7-12.427Z" transform="translate(-550.95 -77.438)" fill="#fff"/>
                </g>
              </g>
              <g id="Group_1705" data-name="Group 1705" transform="translate(230.888)">
                <path id="Path_1625" data-name="Path 1625" d="M601.526,73.023s17.635-2.006,25.984,7.852c5.54,6.542,1.683,89.027,1.683,89.027s-37.277,13.423-61.417,1.9l-6.722-80.956a15.21,15.21,0,0,1,9.225-13.987,58.234,58.234,0,0,1,18.193-3.36C597.624,73.282,601.526,73.023,601.526,73.023Z" transform="translate(-561.054 -72.855)" fill="#fff"/>
                <line id="Line_19" data-name="Line 19" x1="3.004" y1="33.856" transform="translate(1.812 38.411)" fill="none" stroke="#d8d8d8" stroke-miterlimit="10" stroke-width="0.72"/>
              </g>
              <g id="Group_1719" data-name="Group 1719" transform="translate(0 4.431)">
                <g id="Group_1713" data-name="Group 1713" transform="translate(0 86.192)">
                  <g id="Group_1708" data-name="Group 1708">
                    <path id="Path_1626" data-name="Path 1626" d="M782.592,320.687s-75.185,6.568-95.071-17.385-3.033-46.153,18.908-60.947c15.229-10.271,26.894-21.472,34.842-29.35,10.005-9.915,17.438-22.2,20.525-35.833,6.149-27.168-6.056-46.234-22.109-56.607-22.8-14.73-51.612.29-51.612.29l-201.1,85.825" transform="translate(-418.877 -114.093)" fill="none" stroke="#282e30" stroke-miterlimit="10" stroke-width="3.528"/>
                    <g id="Group_1707" data-name="Group 1707" transform="translate(0 86.951)">
                      <path id="Path_1627" data-name="Path 1627" d="M468.7,172.805c.705-.963,43.111-19.145,43.111-19.145l6.685,5.843L478.2,177.139Z" transform="translate(-440.771 -153.66)" fill="#282e30"/>
                      <g id="Group_1706" data-name="Group 1706" transform="translate(0 3.387)">
                        <path id="Path_1628" data-name="Path 1628" d="M455.988,161.928l59.888,39.76,1.785-4.733c1.905-5.054-2.134-11.994-6.7-14.972l-36.376-23.727a11.967,11.967,0,0,0-13.1.04Z" transform="translate(-455.988 -153.857)" fill="#282e30"/>
                        <path id="Path_1629" data-name="Path 1629" d="M457.678,160.807l57.732,38.5,1.784-4.733a11.513,11.513,0,0,0-4.545-13.715l-36.374-23.727a11.963,11.963,0,0,0-13.1.04Z" transform="translate(-453.964 -155.201)" fill="#fbc55c"/>
                      </g>
                    </g>
                  </g>
                  <g id="Group_1712" data-name="Group 1712" transform="translate(359.573 142.924)">
                    <path id="Path_1630" data-name="Path 1630" d="M620.862,220.371l20.784-1.74-1.25-14.447-20.784,1.74Z" transform="translate(-619.612 -149.128)" fill="#1a1e21"/>
                    <path id="Path_1631" data-name="Path 1631" d="M707.252,254.532l-63.375,5.307c-12.111,1.013-21.872-9.608-19.631-21.362l6.272-32.924a25.739,25.739,0,0,1,23.252-20.688l67.351-5.641a25.773,25.773,0,0,1,27.992,23.224l4.171,48.23Z" transform="translate(-614.449 -179.131)" fill="#fbc55c"/>
                    <line id="Line_20" data-name="Line 20" y1="7.378" x2="88.114" transform="translate(14.388 27.868)" fill="none" stroke="#fca800" stroke-miterlimit="10" stroke-width="2.016"/>
                    <g id="Group_1711" data-name="Group 1711" transform="translate(78.268 14.715)">
                      <g id="Group_1709" data-name="Group 1709">
                        <path id="Path_1632" data-name="Path 1632" d="M655.369,226.836c-1.8-20.8,13.88-39.1,35.022-40.87s39.74,13.658,41.54,34.46a37.113,37.113,0,0,1-4.542,21.261L663.5,247.038A37.249,37.249,0,0,1,655.369,226.836Z" transform="translate(-655.228 -185.827)" fill="#ffce73"/>
                      </g>
                      <g id="Group_1710" data-name="Group 1710" transform="translate(9.55 9.396)">
                        <path id="Path_1633" data-name="Path 1633" d="M659.68,220.92A28.87,28.87,0,1,0,686,190.207,28.736,28.736,0,0,0,659.68,220.92Z" transform="translate(-659.574 -190.103)" fill="#3c4149"/>
                        <path id="Path_1634" data-name="Path 1634" d="M667.289,210.473a12.012,12.012,0,1,0,10.95-12.779A11.959,11.959,0,0,0,667.289,210.473Z" transform="translate(-650.387 -181.063)" fill="#1a1e21"/>
                      </g>
                    </g>
                  </g>
                </g>
                <g id="Group_1718" data-name="Group 1718" transform="translate(257.055)">
                  <g id="Group_1716" data-name="Group 1716" transform="translate(0 24.011)">
                    <g id="Group_1715" data-name="Group 1715">
                      <g id="Group_1714" data-name="Group 1714" transform="translate(0 33.965)">
                        <path id="Path_1635" data-name="Path 1635" d="M595.16,114.008l-8.968.171c-3.914.077-6.88.053-9.66,2.8-2.907,2.87-5.158,7.076-2.132,12.245,5.894,10.065,10.37-2.22,10.37-2.22a17.286,17.286,0,0,0,14.952-4.094Z" transform="translate(-572.961 -85.978)" fill="#ffb9b4"/>
                        <path id="Path_1636" data-name="Path 1636" d="M583.063,129.283l41.714-26.689a9.953,9.953,0,0,1,14.271,4.975h0a9.893,9.893,0,0,1-6.166,12.86l-45.256,17.756Z" transform="translate(-560.864 -101.253)" fill="#ffb9b4"/>
                      </g>
                      <path id="Path_1637" data-name="Path 1637" d="M631.157,123.888,601.92,85.8,588.6,105.959l26.4,27.07Z" transform="translate(-554.23 -85.797)" fill="#ffb9b4"/>
                    </g>
                  </g>
                  <g id="Group_1717" data-name="Group 1717" transform="translate(17.818)">
                    <path id="Path_1638" data-name="Path 1638" d="M594.344,74.871c17.189,11.478,42.7,42.45,42.7,42.45-4.224,11.972-31.891,27.768-31.891,27.768l-19.875-21.83Z" transform="translate(-576.034 -74.871)" fill="#fff"/>
                    <line id="Line_21" data-name="Line 21" x1="25.708" y1="27.906" transform="translate(0 37.658)" fill="none" stroke="#d8d8d8" stroke-miterlimit="10" stroke-width="0.72"/>
                  </g>
                </g>
              </g>
            </g>
            <g id="Group_1725" data-name="Group 1725" transform="translate(232.512)">
              <ellipse id="Ellipse_411" data-name="Ellipse 411" cx="27.324" cy="26.885" rx="27.324" ry="26.885" transform="translate(4.075 11.712)" fill="#4a280d"/>
              <ellipse id="Ellipse_412" data-name="Ellipse 412" cx="15.093" cy="14.851" rx="15.093" ry="14.851" transform="translate(30.898)" fill="#4a280d"/>
              <path id="Path_1639" data-name="Path 1639" d="M580.665,43.652s-29.889.609-14.438,27.557l14.559-.974Z" transform="translate(-561.793 -23.111)" fill="#4a280d"/>
              <path id="Path_1640" data-name="Path 1640" d="M577.712,61.356a7.461,7.461,0,1,1-8.355-6.347A7.444,7.444,0,0,1,577.712,61.356Z" transform="translate(-560.532 -9.583)" fill="#ff9592"/>
              <path id="Path_1641" data-name="Path 1641" d="M571.551,72.481l1.655,13.442c.683,5.58,4.542,8.149,10.117,7.441h0c4.76-.6,9.792.4,9.775-4.32l-4.89-26.393Z" transform="translate(-550.108 -0.358)" fill="#ffb9b4"/>
              <path id="Path_1642" data-name="Path 1642" d="M572.9,77.97l14-11.469-15.455-.115Z" transform="translate(-550.237 4.114)" fill="#ff9592"/>
              <path id="Path_1643" data-name="Path 1643" d="M584.975,96.39h0c-9.57.578-17.917-6.382-18.659-14.056l-1.646-18.117a17.98,17.98,0,0,1,15.8-19.464h0c9.97-1.264,20.842,5.446,22.123,15.255l1.162,14.585C604.652,85.875,596.38,94.944,584.975,96.39Z" transform="translate(-558.449 -21.974)" fill="#ffb9b4"/>
              <g id="Group_1721" data-name="Group 1721" transform="translate(7.682 44.327)">
                <path id="Path_1644" data-name="Path 1644" d="M569.841,60.253l-.192,3.308,2.5-.009" transform="translate(-560.067 -47.556)" fill="none" stroke="#1d0a03" stroke-linecap="round" stroke-linejoin="round" stroke-width="0.566"/>
                <path id="Path_1645" data-name="Path 1645" d="M576.927,54.483s-4.153-.176-4.123,1.536c0,0,.053,1.16,3.674,1.242s4.549-.226,4.832-1.327S578.869,54.413,576.927,54.483Z" transform="translate(-556.289 -54.476)" fill="#1d0a03"/>
                <path id="Path_1646" data-name="Path 1646" d="M568.645,55.063s3.4-.5,3.749,1.1c0,0,.207,1.081-2.773,1.45s-3.971.022-4.29-.846C564.969,55.784,567.021,55.155,568.645,55.063Z" transform="translate(-565.289 -53.86)" fill="#1d0a03"/>
                <path id="Path_1647" data-name="Path 1647" d="M578.214,58.135a4.4,4.4,0,0,1-5.63.288" transform="translate(-556.553 -50.093)" fill="none" stroke="#1d0a03" stroke-linecap="round" stroke-linejoin="round" stroke-width="0.566"/>
                <path id="Path_1648" data-name="Path 1648" d="M570.622,58.722s-1.5,2.428-4.617.251" transform="translate(-564.431 -49.39)" fill="none" stroke="#1d0a03" stroke-linecap="round" stroke-linejoin="round" stroke-width="0.566"/>
                <path id="Path_1649" data-name="Path 1649" d="M569.95,64.326s3.518.89,5.788-1.116" transform="translate(-559.707 -44.016)" fill="none" stroke="#1d0a03" stroke-linecap="round" stroke-linejoin="round" stroke-width="0.566"/>
              </g>
              <path id="Path_1650" data-name="Path 1650" d="M566.906,48.977s11.278,14.238,34.049,12.517c0,0-5.076-15.26-18.383-17.631S566.906,48.977,566.906,48.977Z" transform="translate(-555.671 -23.412)" fill="#4a280d"/>
              <path id="Path_1651" data-name="Path 1651" d="M578.559,48.3s-7.993,12.078,8.469,22.553c0,0,14.185-11.315,4.564-20.442S578.559,48.3,578.559,48.3Z" transform="translate(-544.038 -20.631)" fill="#4a280d"/>
              <g id="Group_1722" data-name="Group 1722" transform="translate(39.252 43.621)">
                <path id="Path_1652" data-name="Path 1652" d="M594.519,60.562a7.461,7.461,0,1,1-8.353-6.347A7.368,7.368,0,0,1,594.519,60.562Z" transform="translate(-579.655 -54.154)" fill="#ffb9b4"/>
                <path id="Path_1653" data-name="Path 1653" d="M582.019,61.411s-.69-5.279,4.549-5.1" transform="translate(-576.859 -51.575)" fill="none" stroke="#1d0a03" stroke-linecap="round" stroke-linejoin="round" stroke-width="0.566"/>
              </g>
              <g id="Group_1724" data-name="Group 1724" transform="translate(7.368 3.251)">
                <path id="Path_1654" data-name="Path 1654" d="M606.608,72.063s2.134-7.353.719-10.575c-8.911-20.3-30.28-18.495-34.651-20.839l3.8,2.042C577.212,42.664,599.1,52.355,606.608,72.063Z" transform="translate(-556.129 -29.958)" fill="#f96045"/>
                <g id="Group_1723" data-name="Group 1723">
                  <path id="Path_1655" data-name="Path 1655" d="M577.944,42.27s8.54-6.111,22.075-2.16c0,0-15.684,15.146-24.9,5.67Z" transform="translate(-553.209 -32.196)" fill="#ff8a83"/>
                  <path id="Path_1656" data-name="Path 1656" d="M583.718,44.792s-.78-5.813-18.572-9.008c0,0,1.58,19.547,18.519,12.777h0" transform="translate(-565.146 -35.784)" fill="#ff8a83"/>
                  <path id="Path_1657" data-name="Path 1657" d="M576.007,42.115s1.294-1.312,6.568-1.176" transform="translate(-552.139 -29.622)" fill="none" stroke="#ff6854" stroke-miterlimit="10" stroke-width="0.52"/>
                  <path id="Path_1658" data-name="Path 1658" d="M576.963,42.093a9.081,9.081,0,0,0-6-2.2" transform="translate(-558.182 -30.857)" fill="none" stroke="#ff6854" stroke-miterlimit="10" stroke-width="0.52"/>
                  <path id="Path_1659" data-name="Path 1659" d="M573.36,42.745A3.954,3.954,0,1,0,577.45,39,3.919,3.919,0,0,0,573.36,42.745Z" transform="translate(-555.312 -31.94)" fill="#ff8a83"/>
                </g>
              </g>
              <path id="Path_1660" data-name="Path 1660" d="M576.422,73.241s-11.9,9.6-5.835,14.332,26.874-5.021,25.727-11.212Z" transform="translate(-553.324 12.324)" fill="#ffb9b4"/>
            </g>
          </g>
          <line id="Line_22" data-name="Line 22" x2="757.519" transform="translate(0 399.093)" fill="none" stroke="#3a2c32" stroke-miterlimit="10" stroke-width="1.033"/>
        </g>
      </g>
      <g id="Group_1578" data-name="Group 1578" transform="translate(1701.946 2083.263) rotate(-109)">
        <circle id="Ellipse_405" data-name="Ellipse 405" cx="122" cy="122" r="122" transform="translate(1233 425)" fill="url(#radial-gradient)"/>
        <path id="Subtraction_25" data-name="Subtraction 25" d="M-2731.794,116.99h0a80.722,80.722,0,0,0-2.218-39.394c-5.737-18.717-17.832-34.749-33.182-43.987a58.562,58.562,0,0,1,16.83,8.087,58.967,58.967,0,0,1,13.316,12.766,58.375,58.375,0,0,1,8.757,16.4,58.429,58.429,0,0,1,3.151,19,58.759,58.759,0,0,1-1.734,14.2A58.268,58.268,0,0,1-2731.794,116.99Z" transform="translate(4185.141 432.854)" fill="#fff"/>
      </g>
      <g id="Group_1584" data-name="Group 1584" transform="translate(927.527 -699.997) rotate(56)">
        <circle id="Ellipse_405-2" data-name="Ellipse 405" cx="19.551" cy="19.551" r="19.551" transform="translate(1233 425)" fill="url(#radial-gradient)"/>
        <path id="Subtraction_25-2" data-name="Subtraction 25" d="M5.673,13.362h0a12.936,12.936,0,0,0-.355-6.313A12.513,12.513,0,0,0,0,0,9.385,9.385,0,0,1,2.7,1.3,9.449,9.449,0,0,1,4.831,3.342a9.355,9.355,0,0,1,1.4,2.628,9.364,9.364,0,0,1,.5,3.044,9.416,9.416,0,0,1-.278,2.275A9.337,9.337,0,0,1,5.673,13.362Z" transform="translate(1262.638 431.645)" fill="#fff"/>
      </g>
      <g id="Group_1730" data-name="Group 1730" transform="translate(863.527 -836.997) rotate(56)">
        <circle id="Ellipse_405-3" data-name="Ellipse 405" cx="19.551" cy="19.551" r="19.551" transform="translate(1233 425)" fill="url(#radial-gradient)"/>
        <path id="Subtraction_25-3" data-name="Subtraction 25" d="M5.673,13.362h0a12.936,12.936,0,0,0-.355-6.313A12.513,12.513,0,0,0,0,0,9.385,9.385,0,0,1,2.7,1.3,9.449,9.449,0,0,1,4.831,3.342a9.355,9.355,0,0,1,1.4,2.628,9.364,9.364,0,0,1,.5,3.044,9.416,9.416,0,0,1-.278,2.275A9.337,9.337,0,0,1,5.673,13.362Z" transform="translate(1262.638 431.645)" fill="#fff"/>
      </g>
      <g id="Group_1579" data-name="Group 1579" transform="translate(1737.517 1794.427) rotate(-109)">
        <circle id="Ellipse_405-4" data-name="Ellipse 405" cx="35.588" cy="35.588" r="35.588" transform="translate(1233 425)" fill="url(#radial-gradient)"/>
        <path id="Subtraction_25-4" data-name="Subtraction 25" d="M10.327,24.323h0a23.547,23.547,0,0,0-.647-11.492A22.778,22.778,0,0,0,0,0,17.082,17.082,0,0,1,4.91,2.359,17.2,17.2,0,0,1,8.794,6.083a17.03,17.03,0,0,1,2.554,4.785,17.045,17.045,0,0,1,.919,5.541,17.138,17.138,0,0,1-.506,4.141A16.993,16.993,0,0,1,10.327,24.323Z" transform="translate(1286.95 437.095)" fill="#fff"/>
      </g>
      <g id="Group_1729" data-name="Group 1729" transform="translate(1383.517 1689.427) rotate(-109)">
        <circle id="Ellipse_405-5" data-name="Ellipse 405" cx="35.588" cy="35.588" r="35.588" transform="translate(1233 425)" fill="url(#radial-gradient)"/>
        <path id="Subtraction_25-5" data-name="Subtraction 25" d="M10.327,24.323h0a23.547,23.547,0,0,0-.647-11.492A22.778,22.778,0,0,0,0,0,17.082,17.082,0,0,1,4.91,2.359,17.2,17.2,0,0,1,8.794,6.083a17.03,17.03,0,0,1,2.554,4.785,17.045,17.045,0,0,1,.919,5.541,17.138,17.138,0,0,1-.506,4.141A16.993,16.993,0,0,1,10.327,24.323Z" transform="translate(1286.95 437.095)" fill="#fff"/>
      </g>
      <g id="Group_1581" data-name="Group 1581" transform="translate(556.479 -625.506) rotate(19)">
        <circle id="Ellipse_405-6" data-name="Ellipse 405" cx="35.588" cy="35.588" r="35.588" transform="translate(1233 425)" fill="url(#radial-gradient)"/>
        <path id="Subtraction_25-6" data-name="Subtraction 25" d="M10.327,24.323h0a23.547,23.547,0,0,0-.647-11.492A22.778,22.778,0,0,0,0,0,17.082,17.082,0,0,1,4.91,2.359,17.2,17.2,0,0,1,8.794,6.083a17.03,17.03,0,0,1,2.554,4.785,17.045,17.045,0,0,1,.919,5.541,17.138,17.138,0,0,1-.506,4.141A16.993,16.993,0,0,1,10.327,24.323Z" transform="translate(1286.95 437.095)" fill="#fff"/>
      </g>
      <g id="Group_1582" data-name="Group 1582" transform="translate(-29.521 -580.506) rotate(19)">
        <circle id="Ellipse_405-7" data-name="Ellipse 405" cx="35.588" cy="35.588" r="35.588" transform="translate(1233 425)" fill="url(#radial-gradient)"/>
        <path id="Subtraction_25-7" data-name="Subtraction 25" d="M10.327,24.323h0a23.547,23.547,0,0,0-.647-11.492A22.778,22.778,0,0,0,0,0,17.082,17.082,0,0,1,4.91,2.359,17.2,17.2,0,0,1,8.794,6.083a17.03,17.03,0,0,1,2.554,4.785,17.045,17.045,0,0,1,.919,5.541,17.138,17.138,0,0,1-.506,4.141A16.993,16.993,0,0,1,10.327,24.323Z" transform="translate(1286.95 437.095)" fill="#fff"/>
      </g>
      <g id="Group_1583" data-name="Group 1583" transform="translate(15.479 -326.506) rotate(19)">
        <circle id="Ellipse_405-8" data-name="Ellipse 405" cx="35.588" cy="35.588" r="35.588" transform="translate(1233 425)" fill="url(#radial-gradient)"/>
        <path id="Subtraction_25-8" data-name="Subtraction 25" d="M10.327,24.323h0a23.547,23.547,0,0,0-.647-11.492A22.778,22.778,0,0,0,0,0,17.082,17.082,0,0,1,4.91,2.359,17.2,17.2,0,0,1,8.794,6.083a17.03,17.03,0,0,1,2.554,4.785,17.045,17.045,0,0,1,.919,5.541,17.138,17.138,0,0,1-.506,4.141A16.993,16.993,0,0,1,10.327,24.323Z" transform="translate(1286.95 437.095)" fill="#fff"/>
      </g>
    </g>
  </g>
</svg>
