<svg xmlns="http://www.w3.org/2000/svg" width="1920.5" height="187.06" viewBox="0 0 1920.5 187.06"><defs><style>.a{opacity:0.1;}.b{opacity:0.8;}.c{fill:#5b6bdc;}</style></defs><g class="a"><g transform="translate(0.5 -1227.5)"><g class="b" transform="translate(124 1321.024) rotate(180)"><path class="c" d="M30.976,0H0V30.976H.124L30.976.124V0Z" transform="translate(92.928 62.548)"/><path class="c" d="M30.976,0H0V30.976H.124L30.976.124V0Z" transform="translate(62.548 30.976) rotate(180)"/><path class="c" d="M30.976,0H0V30.976H.124L30.976.124V0Z" transform="translate(0 93.226) rotate(-90)"/><path class="c" d="M0,0H0A31.008,31.008,0,0,1,31.008,31.008v.212a0,0,0,0,1,0,0H0a0,0,0,0,1,0,0V0A0,0,0,0,1,0,0Z" transform="translate(31.068 31.22) rotate(180)"/><path class="c" d="M30.976,30.976H0V0A30.781,30.781,0,0,1,12.057,2.434,30.873,30.873,0,0,1,21.9,9.073a30.873,30.873,0,0,1,6.639,9.846,30.782,30.782,0,0,1,2.434,12.057ZM5.516,7.376V25.708H23.763v-.086A18.267,18.267,0,0,0,5.516,7.376Z" transform="translate(61.952 62.548)"/><path class="c" d="M30.976,30.976H0V0H30.976V30.976ZM15.488,6.711a8.777,8.777,0,1,0,8.777,8.777A8.787,8.787,0,0,0,15.488,6.711Z" transform="translate(30.976 62.25)"/><path class="c" d="M30.976,30.976H0V0H30.976V30.976ZM15.488,6.711a8.777,8.777,0,1,0,8.777,8.777A8.787,8.787,0,0,0,15.488,6.711Z" transform="translate(61.952 30.976)"/><rect class="c" width="30.976" height="30.976" rx="15.488" transform="translate(61.952)"/><path class="c" d="M15.488,30.976A15.488,15.488,0,0,1,4.536,4.536a15.488,15.488,0,1,1,21.9,21.9A15.387,15.387,0,0,1,15.488,30.976Zm0-24.953a9.465,9.465,0,1,0,9.464,9.465A9.476,9.476,0,0,0,15.488,6.023Z" transform="translate(93.524 30.976)"/><path class="c" d="M15.488,30.976A15.488,15.488,0,0,1,4.536,4.536a15.488,15.488,0,1,1,21.9,21.9A15.387,15.387,0,0,1,15.488,30.976Zm0-24.953a9.465,9.465,0,1,0,9.464,9.465A9.476,9.476,0,0,0,15.488,6.023Z" transform="translate(0 30.976)"/><path class="c" d="M15.543,31.076h0A15.538,15.538,0,0,1,4.551,4.551,15.437,15.437,0,0,1,15.539,0h.005V31.075Z" transform="translate(31.016 62.282) rotate(-90)"/><path class="c" d="M15.543,31.076h0A15.538,15.538,0,0,1,4.551,4.551,15.437,15.437,0,0,1,15.539,0h.005V31.075Z" transform="translate(124.126 0.095) rotate(90)"/></g><g class="b" transform="translate(124 1414.56) rotate(180)"><path class="c" d="M30.976,0H0V30.976H.124L30.976.124V0Z" transform="translate(92.928 62.548)"/><path class="c" d="M30.976,0H0V30.976H.124L30.976.124V0Z" transform="translate(62.548 30.976) rotate(180)"/><path class="c" d="M30.976,0H0V30.976H.124L30.976.124V0Z" transform="translate(0 93.226) rotate(-90)"/><path class="c" d="M0,0H0A31.008,31.008,0,0,1,31.008,31.008v.212a0,0,0,0,1,0,0H0a0,0,0,0,1,0,0V0A0,0,0,0,1,0,0Z" transform="translate(31.068 31.22) rotate(180)"/><path class="c" d="M30.976,30.976H0V0A30.781,30.781,0,0,1,12.057,2.434,30.873,30.873,0,0,1,21.9,9.073a30.873,30.873,0,0,1,6.639,9.846,30.782,30.782,0,0,1,2.434,12.057ZM5.516,7.376V25.708H23.763v-.086A18.267,18.267,0,0,0,5.516,7.376Z" transform="translate(61.952 62.548)"/><path class="c" d="M30.976,30.976H0V0H30.976V30.976ZM15.488,6.711a8.777,8.777,0,1,0,8.777,8.777A8.787,8.787,0,0,0,15.488,6.711Z" transform="translate(30.976 62.25)"/><path class="c" d="M30.976,30.976H0V0H30.976V30.976ZM15.488,6.711a8.777,8.777,0,1,0,8.777,8.777A8.787,8.787,0,0,0,15.488,6.711Z" transform="translate(61.952 30.976)"/><rect class="c" width="30.976" height="30.976" rx="15.488" transform="translate(61.952)"/><path class="c" d="M15.488,30.976A15.488,15.488,0,0,1,4.536,4.536a15.488,15.488,0,1,1,21.9,21.9A15.387,15.387,0,0,1,15.488,30.976Zm0-24.953a9.465,9.465,0,1,0,9.464,9.465A9.476,9.476,0,0,0,15.488,6.023Z" transform="translate(93.524 30.976)"/><path class="c" d="M15.488,30.976A15.488,15.488,0,0,1,4.536,4.536a15.488,15.488,0,1,1,21.9,21.9A15.387,15.387,0,0,1,15.488,30.976Zm0-24.953a9.465,9.465,0,1,0,9.464,9.465A9.476,9.476,0,0,0,15.488,6.023Z" transform="translate(0 30.976)"/><path class="c" d="M15.543,31.076h0A15.538,15.538,0,0,1,4.551,4.551,15.437,15.437,0,0,1,15.539,0h.005V31.075Z" transform="translate(31.016 62.282) rotate(-90)"/><path class="c" d="M15.543,31.076h0A15.538,15.538,0,0,1,4.551,4.551,15.437,15.437,0,0,1,15.539,0h.005V31.075Z" transform="translate(124.126 0.095) rotate(90)"/></g></g><g transform="translate(125.5 -1227.5)"><g class="b" transform="translate(124 1321.024) rotate(180)"><path class="c" d="M30.976,0H0V30.976H.124L30.976.124V0Z" transform="translate(92.928 62.548)"/><path class="c" d="M30.976,0H0V30.976H.124L30.976.124V0Z" transform="translate(62.548 30.976) rotate(180)"/><path class="c" d="M30.976,0H0V30.976H.124L30.976.124V0Z" transform="translate(0 93.226) rotate(-90)"/><path class="c" d="M0,0H0A31.008,31.008,0,0,1,31.008,31.008v.212a0,0,0,0,1,0,0H0a0,0,0,0,1,0,0V0A0,0,0,0,1,0,0Z" transform="translate(31.068 31.22) rotate(180)"/><path class="c" d="M30.976,30.976H0V0A30.781,30.781,0,0,1,12.057,2.434,30.873,30.873,0,0,1,21.9,9.073a30.873,30.873,0,0,1,6.639,9.846,30.782,30.782,0,0,1,2.434,12.057ZM5.516,7.376V25.708H23.763v-.086A18.267,18.267,0,0,0,5.516,7.376Z" transform="translate(61.952 62.548)"/><path class="c" d="M30.976,30.976H0V0H30.976V30.976ZM15.488,6.711a8.777,8.777,0,1,0,8.777,8.777A8.787,8.787,0,0,0,15.488,6.711Z" transform="translate(30.976 62.25)"/><path class="c" d="M30.976,30.976H0V0H30.976V30.976ZM15.488,6.711a8.777,8.777,0,1,0,8.777,8.777A8.787,8.787,0,0,0,15.488,6.711Z" transform="translate(61.952 30.976)"/><rect class="c" width="30.976" height="30.976" rx="15.488" transform="translate(61.952)"/><path class="c" d="M15.488,30.976A15.488,15.488,0,0,1,4.536,4.536a15.488,15.488,0,1,1,21.9,21.9A15.387,15.387,0,0,1,15.488,30.976Zm0-24.953a9.465,9.465,0,1,0,9.464,9.465A9.476,9.476,0,0,0,15.488,6.023Z" transform="translate(93.524 30.976)"/><path class="c" d="M15.488,30.976A15.488,15.488,0,0,1,4.536,4.536a15.488,15.488,0,1,1,21.9,21.9A15.387,15.387,0,0,1,15.488,30.976Zm0-24.953a9.465,9.465,0,1,0,9.464,9.465A9.476,9.476,0,0,0,15.488,6.023Z" transform="translate(0 30.976)"/><path class="c" d="M15.543,31.076h0A15.538,15.538,0,0,1,4.551,4.551,15.437,15.437,0,0,1,15.539,0h.005V31.075Z" transform="translate(31.016 62.282) rotate(-90)"/><path class="c" d="M15.543,31.076h0A15.538,15.538,0,0,1,4.551,4.551,15.437,15.437,0,0,1,15.539,0h.005V31.075Z" transform="translate(124.126 0.095) rotate(90)"/></g><g class="b" transform="translate(124 1414.56) rotate(180)"><path class="c" d="M30.976,0H0V30.976H.124L30.976.124V0Z" transform="translate(92.928 62.548)"/><path class="c" d="M30.976,0H0V30.976H.124L30.976.124V0Z" transform="translate(62.548 30.976) rotate(180)"/><path class="c" d="M30.976,0H0V30.976H.124L30.976.124V0Z" transform="translate(0 93.226) rotate(-90)"/><path class="c" d="M0,0H0A31.008,31.008,0,0,1,31.008,31.008v.212a0,0,0,0,1,0,0H0a0,0,0,0,1,0,0V0A0,0,0,0,1,0,0Z" transform="translate(31.068 31.22) rotate(180)"/><path class="c" d="M30.976,30.976H0V0A30.781,30.781,0,0,1,12.057,2.434,30.873,30.873,0,0,1,21.9,9.073a30.873,30.873,0,0,1,6.639,9.846,30.782,30.782,0,0,1,2.434,12.057ZM5.516,7.376V25.708H23.763v-.086A18.267,18.267,0,0,0,5.516,7.376Z" transform="translate(61.952 62.548)"/><path class="c" d="M30.976,30.976H0V0H30.976V30.976ZM15.488,6.711a8.777,8.777,0,1,0,8.777,8.777A8.787,8.787,0,0,0,15.488,6.711Z" transform="translate(30.976 62.25)"/><path class="c" d="M30.976,30.976H0V0H30.976V30.976ZM15.488,6.711a8.777,8.777,0,1,0,8.777,8.777A8.787,8.787,0,0,0,15.488,6.711Z" transform="translate(61.952 30.976)"/><rect class="c" width="30.976" height="30.976" rx="15.488" transform="translate(61.952)"/><path class="c" d="M15.488,30.976A15.488,15.488,0,0,1,4.536,4.536a15.488,15.488,0,1,1,21.9,21.9A15.387,15.387,0,0,1,15.488,30.976Zm0-24.953a9.465,9.465,0,1,0,9.464,9.465A9.476,9.476,0,0,0,15.488,6.023Z" transform="translate(93.524 30.976)"/><path class="c" d="M15.488,30.976A15.488,15.488,0,0,1,4.536,4.536a15.488,15.488,0,1,1,21.9,21.9A15.387,15.387,0,0,1,15.488,30.976Zm0-24.953a9.465,9.465,0,1,0,9.464,9.465A9.476,9.476,0,0,0,15.488,6.023Z" transform="translate(0 30.976)"/><path class="c" d="M15.543,31.076h0A15.538,15.538,0,0,1,4.551,4.551,15.437,15.437,0,0,1,15.539,0h.005V31.075Z" transform="translate(31.016 62.282) rotate(-90)"/><path class="c" d="M15.543,31.076h0A15.538,15.538,0,0,1,4.551,4.551,15.437,15.437,0,0,1,15.539,0h.005V31.075Z" transform="translate(124.126 0.095) rotate(90)"/></g></g><g transform="translate(250.5 -1227.5)"><g class="b" transform="translate(124 1321.024) rotate(180)"><path class="c" d="M30.976,0H0V30.976H.124L30.976.124V0Z" transform="translate(92.928 62.548)"/><path class="c" d="M30.976,0H0V30.976H.124L30.976.124V0Z" transform="translate(62.548 30.976) rotate(180)"/><path class="c" d="M30.976,0H0V30.976H.124L30.976.124V0Z" transform="translate(0 93.226) rotate(-90)"/><path class="c" d="M0,0H0A31.008,31.008,0,0,1,31.008,31.008v.212a0,0,0,0,1,0,0H0a0,0,0,0,1,0,0V0A0,0,0,0,1,0,0Z" transform="translate(31.068 31.22) rotate(180)"/><path class="c" d="M30.976,30.976H0V0A30.781,30.781,0,0,1,12.057,2.434,30.873,30.873,0,0,1,21.9,9.073a30.873,30.873,0,0,1,6.639,9.846,30.782,30.782,0,0,1,2.434,12.057ZM5.516,7.376V25.708H23.763v-.086A18.267,18.267,0,0,0,5.516,7.376Z" transform="translate(61.952 62.548)"/><path class="c" d="M30.976,30.976H0V0H30.976V30.976ZM15.488,6.711a8.777,8.777,0,1,0,8.777,8.777A8.787,8.787,0,0,0,15.488,6.711Z" transform="translate(30.976 62.25)"/><path class="c" d="M30.976,30.976H0V0H30.976V30.976ZM15.488,6.711a8.777,8.777,0,1,0,8.777,8.777A8.787,8.787,0,0,0,15.488,6.711Z" transform="translate(61.952 30.976)"/><rect class="c" width="30.976" height="30.976" rx="15.488" transform="translate(61.952)"/><path class="c" d="M15.488,30.976A15.488,15.488,0,0,1,4.536,4.536a15.488,15.488,0,1,1,21.9,21.9A15.387,15.387,0,0,1,15.488,30.976Zm0-24.953a9.465,9.465,0,1,0,9.464,9.465A9.476,9.476,0,0,0,15.488,6.023Z" transform="translate(93.524 30.976)"/><path class="c" d="M15.488,30.976A15.488,15.488,0,0,1,4.536,4.536a15.488,15.488,0,1,1,21.9,21.9A15.387,15.387,0,0,1,15.488,30.976Zm0-24.953a9.465,9.465,0,1,0,9.464,9.465A9.476,9.476,0,0,0,15.488,6.023Z" transform="translate(0 30.976)"/><path class="c" d="M15.543,31.076h0A15.538,15.538,0,0,1,4.551,4.551,15.437,15.437,0,0,1,15.539,0h.005V31.075Z" transform="translate(31.016 62.282) rotate(-90)"/><path class="c" d="M15.543,31.076h0A15.538,15.538,0,0,1,4.551,4.551,15.437,15.437,0,0,1,15.539,0h.005V31.075Z" transform="translate(124.126 0.095) rotate(90)"/></g><g class="b" transform="translate(124 1414.56) rotate(180)"><path class="c" d="M30.976,0H0V30.976H.124L30.976.124V0Z" transform="translate(92.928 62.548)"/><path class="c" d="M30.976,0H0V30.976H.124L30.976.124V0Z" transform="translate(62.548 30.976) rotate(180)"/><path class="c" d="M30.976,0H0V30.976H.124L30.976.124V0Z" transform="translate(0 93.226) rotate(-90)"/><path class="c" d="M0,0H0A31.008,31.008,0,0,1,31.008,31.008v.212a0,0,0,0,1,0,0H0a0,0,0,0,1,0,0V0A0,0,0,0,1,0,0Z" transform="translate(31.068 31.22) rotate(180)"/><path class="c" d="M30.976,30.976H0V0A30.781,30.781,0,0,1,12.057,2.434,30.873,30.873,0,0,1,21.9,9.073a30.873,30.873,0,0,1,6.639,9.846,30.782,30.782,0,0,1,2.434,12.057ZM5.516,7.376V25.708H23.763v-.086A18.267,18.267,0,0,0,5.516,7.376Z" transform="translate(61.952 62.548)"/><path class="c" d="M30.976,30.976H0V0H30.976V30.976ZM15.488,6.711a8.777,8.777,0,1,0,8.777,8.777A8.787,8.787,0,0,0,15.488,6.711Z" transform="translate(30.976 62.25)"/><path class="c" d="M30.976,30.976H0V0H30.976V30.976ZM15.488,6.711a8.777,8.777,0,1,0,8.777,8.777A8.787,8.787,0,0,0,15.488,6.711Z" transform="translate(61.952 30.976)"/><rect class="c" width="30.976" height="30.976" rx="15.488" transform="translate(61.952)"/><path class="c" d="M15.488,30.976A15.488,15.488,0,0,1,4.536,4.536a15.488,15.488,0,1,1,21.9,21.9A15.387,15.387,0,0,1,15.488,30.976Zm0-24.953a9.465,9.465,0,1,0,9.464,9.465A9.476,9.476,0,0,0,15.488,6.023Z" transform="translate(93.524 30.976)"/><path class="c" d="M15.488,30.976A15.488,15.488,0,0,1,4.536,4.536a15.488,15.488,0,1,1,21.9,21.9A15.387,15.387,0,0,1,15.488,30.976Zm0-24.953a9.465,9.465,0,1,0,9.464,9.465A9.476,9.476,0,0,0,15.488,6.023Z" transform="translate(0 30.976)"/><path class="c" d="M15.543,31.076h0A15.538,15.538,0,0,1,4.551,4.551,15.437,15.437,0,0,1,15.539,0h.005V31.075Z" transform="translate(31.016 62.282) rotate(-90)"/><path class="c" d="M15.543,31.076h0A15.538,15.538,0,0,1,4.551,4.551,15.437,15.437,0,0,1,15.539,0h.005V31.075Z" transform="translate(124.126 0.095) rotate(90)"/></g></g><g transform="translate(375.5 -1227.5)"><g class="b" transform="translate(124 1321.024) rotate(180)"><path class="c" d="M30.976,0H0V30.976H.124L30.976.124V0Z" transform="translate(92.928 62.548)"/><path class="c" d="M30.976,0H0V30.976H.124L30.976.124V0Z" transform="translate(62.548 30.976) rotate(180)"/><path class="c" d="M30.976,0H0V30.976H.124L30.976.124V0Z" transform="translate(0 93.226) rotate(-90)"/><path class="c" d="M0,0H0A31.008,31.008,0,0,1,31.008,31.008v.212a0,0,0,0,1,0,0H0a0,0,0,0,1,0,0V0A0,0,0,0,1,0,0Z" transform="translate(31.068 31.22) rotate(180)"/><path class="c" d="M30.976,30.976H0V0A30.781,30.781,0,0,1,12.057,2.434,30.873,30.873,0,0,1,21.9,9.073a30.873,30.873,0,0,1,6.639,9.846,30.782,30.782,0,0,1,2.434,12.057ZM5.516,7.376V25.708H23.763v-.086A18.267,18.267,0,0,0,5.516,7.376Z" transform="translate(61.952 62.548)"/><path class="c" d="M30.976,30.976H0V0H30.976V30.976ZM15.488,6.711a8.777,8.777,0,1,0,8.777,8.777A8.787,8.787,0,0,0,15.488,6.711Z" transform="translate(30.976 62.25)"/><path class="c" d="M30.976,30.976H0V0H30.976V30.976ZM15.488,6.711a8.777,8.777,0,1,0,8.777,8.777A8.787,8.787,0,0,0,15.488,6.711Z" transform="translate(61.952 30.976)"/><rect class="c" width="30.976" height="30.976" rx="15.488" transform="translate(61.952)"/><path class="c" d="M15.488,30.976A15.488,15.488,0,0,1,4.536,4.536a15.488,15.488,0,1,1,21.9,21.9A15.387,15.387,0,0,1,15.488,30.976Zm0-24.953a9.465,9.465,0,1,0,9.464,9.465A9.476,9.476,0,0,0,15.488,6.023Z" transform="translate(93.524 30.976)"/><path class="c" d="M15.488,30.976A15.488,15.488,0,0,1,4.536,4.536a15.488,15.488,0,1,1,21.9,21.9A15.387,15.387,0,0,1,15.488,30.976Zm0-24.953a9.465,9.465,0,1,0,9.464,9.465A9.476,9.476,0,0,0,15.488,6.023Z" transform="translate(0 30.976)"/><path class="c" d="M15.543,31.076h0A15.538,15.538,0,0,1,4.551,4.551,15.437,15.437,0,0,1,15.539,0h.005V31.075Z" transform="translate(31.016 62.282) rotate(-90)"/><path class="c" d="M15.543,31.076h0A15.538,15.538,0,0,1,4.551,4.551,15.437,15.437,0,0,1,15.539,0h.005V31.075Z" transform="translate(124.126 0.095) rotate(90)"/></g><g class="b" transform="translate(124 1414.56) rotate(180)"><path class="c" d="M30.976,0H0V30.976H.124L30.976.124V0Z" transform="translate(92.928 62.548)"/><path class="c" d="M30.976,0H0V30.976H.124L30.976.124V0Z" transform="translate(62.548 30.976) rotate(180)"/><path class="c" d="M30.976,0H0V30.976H.124L30.976.124V0Z" transform="translate(0 93.226) rotate(-90)"/><path class="c" d="M0,0H0A31.008,31.008,0,0,1,31.008,31.008v.212a0,0,0,0,1,0,0H0a0,0,0,0,1,0,0V0A0,0,0,0,1,0,0Z" transform="translate(31.068 31.22) rotate(180)"/><path class="c" d="M30.976,30.976H0V0A30.781,30.781,0,0,1,12.057,2.434,30.873,30.873,0,0,1,21.9,9.073a30.873,30.873,0,0,1,6.639,9.846,30.782,30.782,0,0,1,2.434,12.057ZM5.516,7.376V25.708H23.763v-.086A18.267,18.267,0,0,0,5.516,7.376Z" transform="translate(61.952 62.548)"/><path class="c" d="M30.976,30.976H0V0H30.976V30.976ZM15.488,6.711a8.777,8.777,0,1,0,8.777,8.777A8.787,8.787,0,0,0,15.488,6.711Z" transform="translate(30.976 62.25)"/><path class="c" d="M30.976,30.976H0V0H30.976V30.976ZM15.488,6.711a8.777,8.777,0,1,0,8.777,8.777A8.787,8.787,0,0,0,15.488,6.711Z" transform="translate(61.952 30.976)"/><rect class="c" width="30.976" height="30.976" rx="15.488" transform="translate(61.952)"/><path class="c" d="M15.488,30.976A15.488,15.488,0,0,1,4.536,4.536a15.488,15.488,0,1,1,21.9,21.9A15.387,15.387,0,0,1,15.488,30.976Zm0-24.953a9.465,9.465,0,1,0,9.464,9.465A9.476,9.476,0,0,0,15.488,6.023Z" transform="translate(93.524 30.976)"/><path class="c" d="M15.488,30.976A15.488,15.488,0,0,1,4.536,4.536a15.488,15.488,0,1,1,21.9,21.9A15.387,15.387,0,0,1,15.488,30.976Zm0-24.953a9.465,9.465,0,1,0,9.464,9.465A9.476,9.476,0,0,0,15.488,6.023Z" transform="translate(0 30.976)"/><path class="c" d="M15.543,31.076h0A15.538,15.538,0,0,1,4.551,4.551,15.437,15.437,0,0,1,15.539,0h.005V31.075Z" transform="translate(31.016 62.282) rotate(-90)"/><path class="c" d="M15.543,31.076h0A15.538,15.538,0,0,1,4.551,4.551,15.437,15.437,0,0,1,15.539,0h.005V31.075Z" transform="translate(124.126 0.095) rotate(90)"/></g></g><g transform="translate(500.5 -1227.5)"><g class="b" transform="translate(124 1321.024) rotate(180)"><path class="c" d="M30.976,0H0V30.976H.124L30.976.124V0Z" transform="translate(92.928 62.548)"/><path class="c" d="M30.976,0H0V30.976H.124L30.976.124V0Z" transform="translate(62.548 30.976) rotate(180)"/><path class="c" d="M30.976,0H0V30.976H.124L30.976.124V0Z" transform="translate(0 93.226) rotate(-90)"/><path class="c" d="M0,0H0A31.008,31.008,0,0,1,31.008,31.008v.212a0,0,0,0,1,0,0H0a0,0,0,0,1,0,0V0A0,0,0,0,1,0,0Z" transform="translate(31.068 31.22) rotate(180)"/><path class="c" d="M30.976,30.976H0V0A30.781,30.781,0,0,1,12.057,2.434,30.873,30.873,0,0,1,21.9,9.073a30.873,30.873,0,0,1,6.639,9.846,30.782,30.782,0,0,1,2.434,12.057ZM5.516,7.376V25.708H23.763v-.086A18.267,18.267,0,0,0,5.516,7.376Z" transform="translate(61.952 62.548)"/><path class="c" d="M30.976,30.976H0V0H30.976V30.976ZM15.488,6.711a8.777,8.777,0,1,0,8.777,8.777A8.787,8.787,0,0,0,15.488,6.711Z" transform="translate(30.976 62.25)"/><path class="c" d="M30.976,30.976H0V0H30.976V30.976ZM15.488,6.711a8.777,8.777,0,1,0,8.777,8.777A8.787,8.787,0,0,0,15.488,6.711Z" transform="translate(61.952 30.976)"/><rect class="c" width="30.976" height="30.976" rx="15.488" transform="translate(61.952)"/><path class="c" d="M15.488,30.976A15.488,15.488,0,0,1,4.536,4.536a15.488,15.488,0,1,1,21.9,21.9A15.387,15.387,0,0,1,15.488,30.976Zm0-24.953a9.465,9.465,0,1,0,9.464,9.465A9.476,9.476,0,0,0,15.488,6.023Z" transform="translate(93.524 30.976)"/><path class="c" d="M15.488,30.976A15.488,15.488,0,0,1,4.536,4.536a15.488,15.488,0,1,1,21.9,21.9A15.387,15.387,0,0,1,15.488,30.976Zm0-24.953a9.465,9.465,0,1,0,9.464,9.465A9.476,9.476,0,0,0,15.488,6.023Z" transform="translate(0 30.976)"/><path class="c" d="M15.543,31.076h0A15.538,15.538,0,0,1,4.551,4.551,15.437,15.437,0,0,1,15.539,0h.005V31.075Z" transform="translate(31.016 62.282) rotate(-90)"/><path class="c" d="M15.543,31.076h0A15.538,15.538,0,0,1,4.551,4.551,15.437,15.437,0,0,1,15.539,0h.005V31.075Z" transform="translate(124.126 0.095) rotate(90)"/></g><g class="b" transform="translate(124 1414.56) rotate(180)"><path class="c" d="M30.976,0H0V30.976H.124L30.976.124V0Z" transform="translate(92.928 62.548)"/><path class="c" d="M30.976,0H0V30.976H.124L30.976.124V0Z" transform="translate(62.548 30.976) rotate(180)"/><path class="c" d="M30.976,0H0V30.976H.124L30.976.124V0Z" transform="translate(0 93.226) rotate(-90)"/><path class="c" d="M0,0H0A31.008,31.008,0,0,1,31.008,31.008v.212a0,0,0,0,1,0,0H0a0,0,0,0,1,0,0V0A0,0,0,0,1,0,0Z" transform="translate(31.068 31.22) rotate(180)"/><path class="c" d="M30.976,30.976H0V0A30.781,30.781,0,0,1,12.057,2.434,30.873,30.873,0,0,1,21.9,9.073a30.873,30.873,0,0,1,6.639,9.846,30.782,30.782,0,0,1,2.434,12.057ZM5.516,7.376V25.708H23.763v-.086A18.267,18.267,0,0,0,5.516,7.376Z" transform="translate(61.952 62.548)"/><path class="c" d="M30.976,30.976H0V0H30.976V30.976ZM15.488,6.711a8.777,8.777,0,1,0,8.777,8.777A8.787,8.787,0,0,0,15.488,6.711Z" transform="translate(30.976 62.25)"/><path class="c" d="M30.976,30.976H0V0H30.976V30.976ZM15.488,6.711a8.777,8.777,0,1,0,8.777,8.777A8.787,8.787,0,0,0,15.488,6.711Z" transform="translate(61.952 30.976)"/><rect class="c" width="30.976" height="30.976" rx="15.488" transform="translate(61.952)"/><path class="c" d="M15.488,30.976A15.488,15.488,0,0,1,4.536,4.536a15.488,15.488,0,1,1,21.9,21.9A15.387,15.387,0,0,1,15.488,30.976Zm0-24.953a9.465,9.465,0,1,0,9.464,9.465A9.476,9.476,0,0,0,15.488,6.023Z" transform="translate(93.524 30.976)"/><path class="c" d="M15.488,30.976A15.488,15.488,0,0,1,4.536,4.536a15.488,15.488,0,1,1,21.9,21.9A15.387,15.387,0,0,1,15.488,30.976Zm0-24.953a9.465,9.465,0,1,0,9.464,9.465A9.476,9.476,0,0,0,15.488,6.023Z" transform="translate(0 30.976)"/><path class="c" d="M15.543,31.076h0A15.538,15.538,0,0,1,4.551,4.551,15.437,15.437,0,0,1,15.539,0h.005V31.075Z" transform="translate(31.016 62.282) rotate(-90)"/><path class="c" d="M15.543,31.076h0A15.538,15.538,0,0,1,4.551,4.551,15.437,15.437,0,0,1,15.539,0h.005V31.075Z" transform="translate(124.126 0.095) rotate(90)"/></g></g><g transform="translate(625.5 -1227.5)"><g class="b" transform="translate(124 1321.024) rotate(180)"><path class="c" d="M30.976,0H0V30.976H.124L30.976.124V0Z" transform="translate(92.928 62.548)"/><path class="c" d="M30.976,0H0V30.976H.124L30.976.124V0Z" transform="translate(62.548 30.976) rotate(180)"/><path class="c" d="M30.976,0H0V30.976H.124L30.976.124V0Z" transform="translate(0 93.226) rotate(-90)"/><path class="c" d="M0,0H0A31.008,31.008,0,0,1,31.008,31.008v.212a0,0,0,0,1,0,0H0a0,0,0,0,1,0,0V0A0,0,0,0,1,0,0Z" transform="translate(31.068 31.22) rotate(180)"/><path class="c" d="M30.976,30.976H0V0A30.781,30.781,0,0,1,12.057,2.434,30.873,30.873,0,0,1,21.9,9.073a30.873,30.873,0,0,1,6.639,9.846,30.782,30.782,0,0,1,2.434,12.057ZM5.516,7.376V25.708H23.763v-.086A18.267,18.267,0,0,0,5.516,7.376Z" transform="translate(61.952 62.548)"/><path class="c" d="M30.976,30.976H0V0H30.976V30.976ZM15.488,6.711a8.777,8.777,0,1,0,8.777,8.777A8.787,8.787,0,0,0,15.488,6.711Z" transform="translate(30.976 62.25)"/><path class="c" d="M30.976,30.976H0V0H30.976V30.976ZM15.488,6.711a8.777,8.777,0,1,0,8.777,8.777A8.787,8.787,0,0,0,15.488,6.711Z" transform="translate(61.952 30.976)"/><rect class="c" width="30.976" height="30.976" rx="15.488" transform="translate(61.952)"/><path class="c" d="M15.488,30.976A15.488,15.488,0,0,1,4.536,4.536a15.488,15.488,0,1,1,21.9,21.9A15.387,15.387,0,0,1,15.488,30.976Zm0-24.953a9.465,9.465,0,1,0,9.464,9.465A9.476,9.476,0,0,0,15.488,6.023Z" transform="translate(93.524 30.976)"/><path class="c" d="M15.488,30.976A15.488,15.488,0,0,1,4.536,4.536a15.488,15.488,0,1,1,21.9,21.9A15.387,15.387,0,0,1,15.488,30.976Zm0-24.953a9.465,9.465,0,1,0,9.464,9.465A9.476,9.476,0,0,0,15.488,6.023Z" transform="translate(0 30.976)"/><path class="c" d="M15.543,31.076h0A15.538,15.538,0,0,1,4.551,4.551,15.437,15.437,0,0,1,15.539,0h.005V31.075Z" transform="translate(31.016 62.282) rotate(-90)"/><path class="c" d="M15.543,31.076h0A15.538,15.538,0,0,1,4.551,4.551,15.437,15.437,0,0,1,15.539,0h.005V31.075Z" transform="translate(124.126 0.095) rotate(90)"/></g><g class="b" transform="translate(124 1414.56) rotate(180)"><path class="c" d="M30.976,0H0V30.976H.124L30.976.124V0Z" transform="translate(92.928 62.548)"/><path class="c" d="M30.976,0H0V30.976H.124L30.976.124V0Z" transform="translate(62.548 30.976) rotate(180)"/><path class="c" d="M30.976,0H0V30.976H.124L30.976.124V0Z" transform="translate(0 93.226) rotate(-90)"/><path class="c" d="M0,0H0A31.008,31.008,0,0,1,31.008,31.008v.212a0,0,0,0,1,0,0H0a0,0,0,0,1,0,0V0A0,0,0,0,1,0,0Z" transform="translate(31.068 31.22) rotate(180)"/><path class="c" d="M30.976,30.976H0V0A30.781,30.781,0,0,1,12.057,2.434,30.873,30.873,0,0,1,21.9,9.073a30.873,30.873,0,0,1,6.639,9.846,30.782,30.782,0,0,1,2.434,12.057ZM5.516,7.376V25.708H23.763v-.086A18.267,18.267,0,0,0,5.516,7.376Z" transform="translate(61.952 62.548)"/><path class="c" d="M30.976,30.976H0V0H30.976V30.976ZM15.488,6.711a8.777,8.777,0,1,0,8.777,8.777A8.787,8.787,0,0,0,15.488,6.711Z" transform="translate(30.976 62.25)"/><path class="c" d="M30.976,30.976H0V0H30.976V30.976ZM15.488,6.711a8.777,8.777,0,1,0,8.777,8.777A8.787,8.787,0,0,0,15.488,6.711Z" transform="translate(61.952 30.976)"/><rect class="c" width="30.976" height="30.976" rx="15.488" transform="translate(61.952)"/><path class="c" d="M15.488,30.976A15.488,15.488,0,0,1,4.536,4.536a15.488,15.488,0,1,1,21.9,21.9A15.387,15.387,0,0,1,15.488,30.976Zm0-24.953a9.465,9.465,0,1,0,9.464,9.465A9.476,9.476,0,0,0,15.488,6.023Z" transform="translate(93.524 30.976)"/><path class="c" d="M15.488,30.976A15.488,15.488,0,0,1,4.536,4.536a15.488,15.488,0,1,1,21.9,21.9A15.387,15.387,0,0,1,15.488,30.976Zm0-24.953a9.465,9.465,0,1,0,9.464,9.465A9.476,9.476,0,0,0,15.488,6.023Z" transform="translate(0 30.976)"/><path class="c" d="M15.543,31.076h0A15.538,15.538,0,0,1,4.551,4.551,15.437,15.437,0,0,1,15.539,0h.005V31.075Z" transform="translate(31.016 62.282) rotate(-90)"/><path class="c" d="M15.543,31.076h0A15.538,15.538,0,0,1,4.551,4.551,15.437,15.437,0,0,1,15.539,0h.005V31.075Z" transform="translate(124.126 0.095) rotate(90)"/></g></g><g transform="translate(750.5 -1227.5)"><g class="b" transform="translate(124 1321.024) rotate(180)"><path class="c" d="M30.976,0H0V30.976H.124L30.976.124V0Z" transform="translate(92.928 62.548)"/><path class="c" d="M30.976,0H0V30.976H.124L30.976.124V0Z" transform="translate(62.548 30.976) rotate(180)"/><path class="c" d="M30.976,0H0V30.976H.124L30.976.124V0Z" transform="translate(0 93.226) rotate(-90)"/><path class="c" d="M0,0H0A31.008,31.008,0,0,1,31.008,31.008v.212a0,0,0,0,1,0,0H0a0,0,0,0,1,0,0V0A0,0,0,0,1,0,0Z" transform="translate(31.068 31.22) rotate(180)"/><path class="c" d="M30.976,30.976H0V0A30.781,30.781,0,0,1,12.057,2.434,30.873,30.873,0,0,1,21.9,9.073a30.873,30.873,0,0,1,6.639,9.846,30.782,30.782,0,0,1,2.434,12.057ZM5.516,7.376V25.708H23.763v-.086A18.267,18.267,0,0,0,5.516,7.376Z" transform="translate(61.952 62.548)"/><path class="c" d="M30.976,30.976H0V0H30.976V30.976ZM15.488,6.711a8.777,8.777,0,1,0,8.777,8.777A8.787,8.787,0,0,0,15.488,6.711Z" transform="translate(30.976 62.25)"/><path class="c" d="M30.976,30.976H0V0H30.976V30.976ZM15.488,6.711a8.777,8.777,0,1,0,8.777,8.777A8.787,8.787,0,0,0,15.488,6.711Z" transform="translate(61.952 30.976)"/><rect class="c" width="30.976" height="30.976" rx="15.488" transform="translate(61.952)"/><path class="c" d="M15.488,30.976A15.488,15.488,0,0,1,4.536,4.536a15.488,15.488,0,1,1,21.9,21.9A15.387,15.387,0,0,1,15.488,30.976Zm0-24.953a9.465,9.465,0,1,0,9.464,9.465A9.476,9.476,0,0,0,15.488,6.023Z" transform="translate(93.524 30.976)"/><path class="c" d="M15.488,30.976A15.488,15.488,0,0,1,4.536,4.536a15.488,15.488,0,1,1,21.9,21.9A15.387,15.387,0,0,1,15.488,30.976Zm0-24.953a9.465,9.465,0,1,0,9.464,9.465A9.476,9.476,0,0,0,15.488,6.023Z" transform="translate(0 30.976)"/><path class="c" d="M15.543,31.076h0A15.538,15.538,0,0,1,4.551,4.551,15.437,15.437,0,0,1,15.539,0h.005V31.075Z" transform="translate(31.016 62.282) rotate(-90)"/><path class="c" d="M15.543,31.076h0A15.538,15.538,0,0,1,4.551,4.551,15.437,15.437,0,0,1,15.539,0h.005V31.075Z" transform="translate(124.126 0.095) rotate(90)"/></g><g class="b" transform="translate(124 1414.56) rotate(180)"><path class="c" d="M30.976,0H0V30.976H.124L30.976.124V0Z" transform="translate(92.928 62.548)"/><path class="c" d="M30.976,0H0V30.976H.124L30.976.124V0Z" transform="translate(62.548 30.976) rotate(180)"/><path class="c" d="M30.976,0H0V30.976H.124L30.976.124V0Z" transform="translate(0 93.226) rotate(-90)"/><path class="c" d="M0,0H0A31.008,31.008,0,0,1,31.008,31.008v.212a0,0,0,0,1,0,0H0a0,0,0,0,1,0,0V0A0,0,0,0,1,0,0Z" transform="translate(31.068 31.22) rotate(180)"/><path class="c" d="M30.976,30.976H0V0A30.781,30.781,0,0,1,12.057,2.434,30.873,30.873,0,0,1,21.9,9.073a30.873,30.873,0,0,1,6.639,9.846,30.782,30.782,0,0,1,2.434,12.057ZM5.516,7.376V25.708H23.763v-.086A18.267,18.267,0,0,0,5.516,7.376Z" transform="translate(61.952 62.548)"/><path class="c" d="M30.976,30.976H0V0H30.976V30.976ZM15.488,6.711a8.777,8.777,0,1,0,8.777,8.777A8.787,8.787,0,0,0,15.488,6.711Z" transform="translate(30.976 62.25)"/><path class="c" d="M30.976,30.976H0V0H30.976V30.976ZM15.488,6.711a8.777,8.777,0,1,0,8.777,8.777A8.787,8.787,0,0,0,15.488,6.711Z" transform="translate(61.952 30.976)"/><rect class="c" width="30.976" height="30.976" rx="15.488" transform="translate(61.952)"/><path class="c" d="M15.488,30.976A15.488,15.488,0,0,1,4.536,4.536a15.488,15.488,0,1,1,21.9,21.9A15.387,15.387,0,0,1,15.488,30.976Zm0-24.953a9.465,9.465,0,1,0,9.464,9.465A9.476,9.476,0,0,0,15.488,6.023Z" transform="translate(93.524 30.976)"/><path class="c" d="M15.488,30.976A15.488,15.488,0,0,1,4.536,4.536a15.488,15.488,0,1,1,21.9,21.9A15.387,15.387,0,0,1,15.488,30.976Zm0-24.953a9.465,9.465,0,1,0,9.464,9.465A9.476,9.476,0,0,0,15.488,6.023Z" transform="translate(0 30.976)"/><path class="c" d="M15.543,31.076h0A15.538,15.538,0,0,1,4.551,4.551,15.437,15.437,0,0,1,15.539,0h.005V31.075Z" transform="translate(31.016 62.282) rotate(-90)"/><path class="c" d="M15.543,31.076h0A15.538,15.538,0,0,1,4.551,4.551,15.437,15.437,0,0,1,15.539,0h.005V31.075Z" transform="translate(124.126 0.095) rotate(90)"/></g></g><g transform="translate(875.5 -1227.5)"><g class="b" transform="translate(124 1321.024) rotate(180)"><path class="c" d="M30.976,0H0V30.976H.124L30.976.124V0Z" transform="translate(92.928 62.548)"/><path class="c" d="M30.976,0H0V30.976H.124L30.976.124V0Z" transform="translate(62.548 30.976) rotate(180)"/><path class="c" d="M30.976,0H0V30.976H.124L30.976.124V0Z" transform="translate(0 93.226) rotate(-90)"/><path class="c" d="M0,0H0A31.008,31.008,0,0,1,31.008,31.008v.212a0,0,0,0,1,0,0H0a0,0,0,0,1,0,0V0A0,0,0,0,1,0,0Z" transform="translate(31.068 31.22) rotate(180)"/><path class="c" d="M30.976,30.976H0V0A30.781,30.781,0,0,1,12.057,2.434,30.873,30.873,0,0,1,21.9,9.073a30.873,30.873,0,0,1,6.639,9.846,30.782,30.782,0,0,1,2.434,12.057ZM5.516,7.376V25.708H23.763v-.086A18.267,18.267,0,0,0,5.516,7.376Z" transform="translate(61.952 62.548)"/><path class="c" d="M30.976,30.976H0V0H30.976V30.976ZM15.488,6.711a8.777,8.777,0,1,0,8.777,8.777A8.787,8.787,0,0,0,15.488,6.711Z" transform="translate(30.976 62.25)"/><path class="c" d="M30.976,30.976H0V0H30.976V30.976ZM15.488,6.711a8.777,8.777,0,1,0,8.777,8.777A8.787,8.787,0,0,0,15.488,6.711Z" transform="translate(61.952 30.976)"/><rect class="c" width="30.976" height="30.976" rx="15.488" transform="translate(61.952)"/><path class="c" d="M15.488,30.976A15.488,15.488,0,0,1,4.536,4.536a15.488,15.488,0,1,1,21.9,21.9A15.387,15.387,0,0,1,15.488,30.976Zm0-24.953a9.465,9.465,0,1,0,9.464,9.465A9.476,9.476,0,0,0,15.488,6.023Z" transform="translate(93.524 30.976)"/><path class="c" d="M15.488,30.976A15.488,15.488,0,0,1,4.536,4.536a15.488,15.488,0,1,1,21.9,21.9A15.387,15.387,0,0,1,15.488,30.976Zm0-24.953a9.465,9.465,0,1,0,9.464,9.465A9.476,9.476,0,0,0,15.488,6.023Z" transform="translate(0 30.976)"/><path class="c" d="M15.543,31.076h0A15.538,15.538,0,0,1,4.551,4.551,15.437,15.437,0,0,1,15.539,0h.005V31.075Z" transform="translate(31.016 62.282) rotate(-90)"/><path class="c" d="M15.543,31.076h0A15.538,15.538,0,0,1,4.551,4.551,15.437,15.437,0,0,1,15.539,0h.005V31.075Z" transform="translate(124.126 0.095) rotate(90)"/></g><g class="b" transform="translate(124 1414.56) rotate(180)"><path class="c" d="M30.976,0H0V30.976H.124L30.976.124V0Z" transform="translate(92.928 62.548)"/><path class="c" d="M30.976,0H0V30.976H.124L30.976.124V0Z" transform="translate(62.548 30.976) rotate(180)"/><path class="c" d="M30.976,0H0V30.976H.124L30.976.124V0Z" transform="translate(0 93.226) rotate(-90)"/><path class="c" d="M0,0H0A31.008,31.008,0,0,1,31.008,31.008v.212a0,0,0,0,1,0,0H0a0,0,0,0,1,0,0V0A0,0,0,0,1,0,0Z" transform="translate(31.068 31.22) rotate(180)"/><path class="c" d="M30.976,30.976H0V0A30.781,30.781,0,0,1,12.057,2.434,30.873,30.873,0,0,1,21.9,9.073a30.873,30.873,0,0,1,6.639,9.846,30.782,30.782,0,0,1,2.434,12.057ZM5.516,7.376V25.708H23.763v-.086A18.267,18.267,0,0,0,5.516,7.376Z" transform="translate(61.952 62.548)"/><path class="c" d="M30.976,30.976H0V0H30.976V30.976ZM15.488,6.711a8.777,8.777,0,1,0,8.777,8.777A8.787,8.787,0,0,0,15.488,6.711Z" transform="translate(30.976 62.25)"/><path class="c" d="M30.976,30.976H0V0H30.976V30.976ZM15.488,6.711a8.777,8.777,0,1,0,8.777,8.777A8.787,8.787,0,0,0,15.488,6.711Z" transform="translate(61.952 30.976)"/><rect class="c" width="30.976" height="30.976" rx="15.488" transform="translate(61.952)"/><path class="c" d="M15.488,30.976A15.488,15.488,0,0,1,4.536,4.536a15.488,15.488,0,1,1,21.9,21.9A15.387,15.387,0,0,1,15.488,30.976Zm0-24.953a9.465,9.465,0,1,0,9.464,9.465A9.476,9.476,0,0,0,15.488,6.023Z" transform="translate(93.524 30.976)"/><path class="c" d="M15.488,30.976A15.488,15.488,0,0,1,4.536,4.536a15.488,15.488,0,1,1,21.9,21.9A15.387,15.387,0,0,1,15.488,30.976Zm0-24.953a9.465,9.465,0,1,0,9.464,9.465A9.476,9.476,0,0,0,15.488,6.023Z" transform="translate(0 30.976)"/><path class="c" d="M15.543,31.076h0A15.538,15.538,0,0,1,4.551,4.551,15.437,15.437,0,0,1,15.539,0h.005V31.075Z" transform="translate(31.016 62.282) rotate(-90)"/><path class="c" d="M15.543,31.076h0A15.538,15.538,0,0,1,4.551,4.551,15.437,15.437,0,0,1,15.539,0h.005V31.075Z" transform="translate(124.126 0.095) rotate(90)"/></g></g><g transform="translate(1000.5 -1227.5)"><g class="b" transform="translate(124 1321.024) rotate(180)"><path class="c" d="M30.976,0H0V30.976H.124L30.976.124V0Z" transform="translate(92.928 62.548)"/><path class="c" d="M30.976,0H0V30.976H.124L30.976.124V0Z" transform="translate(62.548 30.976) rotate(180)"/><path class="c" d="M30.976,0H0V30.976H.124L30.976.124V0Z" transform="translate(0 93.226) rotate(-90)"/><path class="c" d="M0,0H0A31.008,31.008,0,0,1,31.008,31.008v.212a0,0,0,0,1,0,0H0a0,0,0,0,1,0,0V0A0,0,0,0,1,0,0Z" transform="translate(31.068 31.22) rotate(180)"/><path class="c" d="M30.976,30.976H0V0A30.781,30.781,0,0,1,12.057,2.434,30.873,30.873,0,0,1,21.9,9.073a30.873,30.873,0,0,1,6.639,9.846,30.782,30.782,0,0,1,2.434,12.057ZM5.516,7.376V25.708H23.763v-.086A18.267,18.267,0,0,0,5.516,7.376Z" transform="translate(61.952 62.548)"/><path class="c" d="M30.976,30.976H0V0H30.976V30.976ZM15.488,6.711a8.777,8.777,0,1,0,8.777,8.777A8.787,8.787,0,0,0,15.488,6.711Z" transform="translate(30.976 62.25)"/><path class="c" d="M30.976,30.976H0V0H30.976V30.976ZM15.488,6.711a8.777,8.777,0,1,0,8.777,8.777A8.787,8.787,0,0,0,15.488,6.711Z" transform="translate(61.952 30.976)"/><rect class="c" width="30.976" height="30.976" rx="15.488" transform="translate(61.952)"/><path class="c" d="M15.488,30.976A15.488,15.488,0,0,1,4.536,4.536a15.488,15.488,0,1,1,21.9,21.9A15.387,15.387,0,0,1,15.488,30.976Zm0-24.953a9.465,9.465,0,1,0,9.464,9.465A9.476,9.476,0,0,0,15.488,6.023Z" transform="translate(93.524 30.976)"/><path class="c" d="M15.488,30.976A15.488,15.488,0,0,1,4.536,4.536a15.488,15.488,0,1,1,21.9,21.9A15.387,15.387,0,0,1,15.488,30.976Zm0-24.953a9.465,9.465,0,1,0,9.464,9.465A9.476,9.476,0,0,0,15.488,6.023Z" transform="translate(0 30.976)"/><path class="c" d="M15.543,31.076h0A15.538,15.538,0,0,1,4.551,4.551,15.437,15.437,0,0,1,15.539,0h.005V31.075Z" transform="translate(31.016 62.282) rotate(-90)"/><path class="c" d="M15.543,31.076h0A15.538,15.538,0,0,1,4.551,4.551,15.437,15.437,0,0,1,15.539,0h.005V31.075Z" transform="translate(124.126 0.095) rotate(90)"/></g><g class="b" transform="translate(124 1414.56) rotate(180)"><path class="c" d="M30.976,0H0V30.976H.124L30.976.124V0Z" transform="translate(92.928 62.548)"/><path class="c" d="M30.976,0H0V30.976H.124L30.976.124V0Z" transform="translate(62.548 30.976) rotate(180)"/><path class="c" d="M30.976,0H0V30.976H.124L30.976.124V0Z" transform="translate(0 93.226) rotate(-90)"/><path class="c" d="M0,0H0A31.008,31.008,0,0,1,31.008,31.008v.212a0,0,0,0,1,0,0H0a0,0,0,0,1,0,0V0A0,0,0,0,1,0,0Z" transform="translate(31.068 31.22) rotate(180)"/><path class="c" d="M30.976,30.976H0V0A30.781,30.781,0,0,1,12.057,2.434,30.873,30.873,0,0,1,21.9,9.073a30.873,30.873,0,0,1,6.639,9.846,30.782,30.782,0,0,1,2.434,12.057ZM5.516,7.376V25.708H23.763v-.086A18.267,18.267,0,0,0,5.516,7.376Z" transform="translate(61.952 62.548)"/><path class="c" d="M30.976,30.976H0V0H30.976V30.976ZM15.488,6.711a8.777,8.777,0,1,0,8.777,8.777A8.787,8.787,0,0,0,15.488,6.711Z" transform="translate(30.976 62.25)"/><path class="c" d="M30.976,30.976H0V0H30.976V30.976ZM15.488,6.711a8.777,8.777,0,1,0,8.777,8.777A8.787,8.787,0,0,0,15.488,6.711Z" transform="translate(61.952 30.976)"/><rect class="c" width="30.976" height="30.976" rx="15.488" transform="translate(61.952)"/><path class="c" d="M15.488,30.976A15.488,15.488,0,0,1,4.536,4.536a15.488,15.488,0,1,1,21.9,21.9A15.387,15.387,0,0,1,15.488,30.976Zm0-24.953a9.465,9.465,0,1,0,9.464,9.465A9.476,9.476,0,0,0,15.488,6.023Z" transform="translate(93.524 30.976)"/><path class="c" d="M15.488,30.976A15.488,15.488,0,0,1,4.536,4.536a15.488,15.488,0,1,1,21.9,21.9A15.387,15.387,0,0,1,15.488,30.976Zm0-24.953a9.465,9.465,0,1,0,9.464,9.465A9.476,9.476,0,0,0,15.488,6.023Z" transform="translate(0 30.976)"/><path class="c" d="M15.543,31.076h0A15.538,15.538,0,0,1,4.551,4.551,15.437,15.437,0,0,1,15.539,0h.005V31.075Z" transform="translate(31.016 62.282) rotate(-90)"/><path class="c" d="M15.543,31.076h0A15.538,15.538,0,0,1,4.551,4.551,15.437,15.437,0,0,1,15.539,0h.005V31.075Z" transform="translate(124.126 0.095) rotate(90)"/></g></g><g transform="translate(1125.5 -1227.5)"><g class="b" transform="translate(124 1321.024) rotate(180)"><path class="c" d="M30.976,0H0V30.976H.124L30.976.124V0Z" transform="translate(92.928 62.548)"/><path class="c" d="M30.976,0H0V30.976H.124L30.976.124V0Z" transform="translate(62.548 30.976) rotate(180)"/><path class="c" d="M30.976,0H0V30.976H.124L30.976.124V0Z" transform="translate(0 93.226) rotate(-90)"/><path class="c" d="M0,0H0A31.008,31.008,0,0,1,31.008,31.008v.212a0,0,0,0,1,0,0H0a0,0,0,0,1,0,0V0A0,0,0,0,1,0,0Z" transform="translate(31.068 31.22) rotate(180)"/><path class="c" d="M30.976,30.976H0V0A30.781,30.781,0,0,1,12.057,2.434,30.873,30.873,0,0,1,21.9,9.073a30.873,30.873,0,0,1,6.639,9.846,30.782,30.782,0,0,1,2.434,12.057ZM5.516,7.376V25.708H23.763v-.086A18.267,18.267,0,0,0,5.516,7.376Z" transform="translate(61.952 62.548)"/><path class="c" d="M30.976,30.976H0V0H30.976V30.976ZM15.488,6.711a8.777,8.777,0,1,0,8.777,8.777A8.787,8.787,0,0,0,15.488,6.711Z" transform="translate(30.976 62.25)"/><path class="c" d="M30.976,30.976H0V0H30.976V30.976ZM15.488,6.711a8.777,8.777,0,1,0,8.777,8.777A8.787,8.787,0,0,0,15.488,6.711Z" transform="translate(61.952 30.976)"/><rect class="c" width="30.976" height="30.976" rx="15.488" transform="translate(61.952)"/><path class="c" d="M15.488,30.976A15.488,15.488,0,0,1,4.536,4.536a15.488,15.488,0,1,1,21.9,21.9A15.387,15.387,0,0,1,15.488,30.976Zm0-24.953a9.465,9.465,0,1,0,9.464,9.465A9.476,9.476,0,0,0,15.488,6.023Z" transform="translate(93.524 30.976)"/><path class="c" d="M15.488,30.976A15.488,15.488,0,0,1,4.536,4.536a15.488,15.488,0,1,1,21.9,21.9A15.387,15.387,0,0,1,15.488,30.976Zm0-24.953a9.465,9.465,0,1,0,9.464,9.465A9.476,9.476,0,0,0,15.488,6.023Z" transform="translate(0 30.976)"/><path class="c" d="M15.543,31.076h0A15.538,15.538,0,0,1,4.551,4.551,15.437,15.437,0,0,1,15.539,0h.005V31.075Z" transform="translate(31.016 62.282) rotate(-90)"/><path class="c" d="M15.543,31.076h0A15.538,15.538,0,0,1,4.551,4.551,15.437,15.437,0,0,1,15.539,0h.005V31.075Z" transform="translate(124.126 0.095) rotate(90)"/></g><g class="b" transform="translate(124 1414.56) rotate(180)"><path class="c" d="M30.976,0H0V30.976H.124L30.976.124V0Z" transform="translate(92.928 62.548)"/><path class="c" d="M30.976,0H0V30.976H.124L30.976.124V0Z" transform="translate(62.548 30.976) rotate(180)"/><path class="c" d="M30.976,0H0V30.976H.124L30.976.124V0Z" transform="translate(0 93.226) rotate(-90)"/><path class="c" d="M0,0H0A31.008,31.008,0,0,1,31.008,31.008v.212a0,0,0,0,1,0,0H0a0,0,0,0,1,0,0V0A0,0,0,0,1,0,0Z" transform="translate(31.068 31.22) rotate(180)"/><path class="c" d="M30.976,30.976H0V0A30.781,30.781,0,0,1,12.057,2.434,30.873,30.873,0,0,1,21.9,9.073a30.873,30.873,0,0,1,6.639,9.846,30.782,30.782,0,0,1,2.434,12.057ZM5.516,7.376V25.708H23.763v-.086A18.267,18.267,0,0,0,5.516,7.376Z" transform="translate(61.952 62.548)"/><path class="c" d="M30.976,30.976H0V0H30.976V30.976ZM15.488,6.711a8.777,8.777,0,1,0,8.777,8.777A8.787,8.787,0,0,0,15.488,6.711Z" transform="translate(30.976 62.25)"/><path class="c" d="M30.976,30.976H0V0H30.976V30.976ZM15.488,6.711a8.777,8.777,0,1,0,8.777,8.777A8.787,8.787,0,0,0,15.488,6.711Z" transform="translate(61.952 30.976)"/><rect class="c" width="30.976" height="30.976" rx="15.488" transform="translate(61.952)"/><path class="c" d="M15.488,30.976A15.488,15.488,0,0,1,4.536,4.536a15.488,15.488,0,1,1,21.9,21.9A15.387,15.387,0,0,1,15.488,30.976Zm0-24.953a9.465,9.465,0,1,0,9.464,9.465A9.476,9.476,0,0,0,15.488,6.023Z" transform="translate(93.524 30.976)"/><path class="c" d="M15.488,30.976A15.488,15.488,0,0,1,4.536,4.536a15.488,15.488,0,1,1,21.9,21.9A15.387,15.387,0,0,1,15.488,30.976Zm0-24.953a9.465,9.465,0,1,0,9.464,9.465A9.476,9.476,0,0,0,15.488,6.023Z" transform="translate(0 30.976)"/><path class="c" d="M15.543,31.076h0A15.538,15.538,0,0,1,4.551,4.551,15.437,15.437,0,0,1,15.539,0h.005V31.075Z" transform="translate(31.016 62.282) rotate(-90)"/><path class="c" d="M15.543,31.076h0A15.538,15.538,0,0,1,4.551,4.551,15.437,15.437,0,0,1,15.539,0h.005V31.075Z" transform="translate(124.126 0.095) rotate(90)"/></g></g><g transform="translate(1250.5 -1227.5)"><g class="b" transform="translate(124 1321.024) rotate(180)"><path class="c" d="M30.976,0H0V30.976H.124L30.976.124V0Z" transform="translate(92.928 62.548)"/><path class="c" d="M30.976,0H0V30.976H.124L30.976.124V0Z" transform="translate(62.548 30.976) rotate(180)"/><path class="c" d="M30.976,0H0V30.976H.124L30.976.124V0Z" transform="translate(0 93.226) rotate(-90)"/><path class="c" d="M0,0H0A31.008,31.008,0,0,1,31.008,31.008v.212a0,0,0,0,1,0,0H0a0,0,0,0,1,0,0V0A0,0,0,0,1,0,0Z" transform="translate(31.068 31.22) rotate(180)"/><path class="c" d="M30.976,30.976H0V0A30.781,30.781,0,0,1,12.057,2.434,30.873,30.873,0,0,1,21.9,9.073a30.873,30.873,0,0,1,6.639,9.846,30.782,30.782,0,0,1,2.434,12.057ZM5.516,7.376V25.708H23.763v-.086A18.267,18.267,0,0,0,5.516,7.376Z" transform="translate(61.952 62.548)"/><path class="c" d="M30.976,30.976H0V0H30.976V30.976ZM15.488,6.711a8.777,8.777,0,1,0,8.777,8.777A8.787,8.787,0,0,0,15.488,6.711Z" transform="translate(30.976 62.25)"/><path class="c" d="M30.976,30.976H0V0H30.976V30.976ZM15.488,6.711a8.777,8.777,0,1,0,8.777,8.777A8.787,8.787,0,0,0,15.488,6.711Z" transform="translate(61.952 30.976)"/><rect class="c" width="30.976" height="30.976" rx="15.488" transform="translate(61.952)"/><path class="c" d="M15.488,30.976A15.488,15.488,0,0,1,4.536,4.536a15.488,15.488,0,1,1,21.9,21.9A15.387,15.387,0,0,1,15.488,30.976Zm0-24.953a9.465,9.465,0,1,0,9.464,9.465A9.476,9.476,0,0,0,15.488,6.023Z" transform="translate(93.524 30.976)"/><path class="c" d="M15.488,30.976A15.488,15.488,0,0,1,4.536,4.536a15.488,15.488,0,1,1,21.9,21.9A15.387,15.387,0,0,1,15.488,30.976Zm0-24.953a9.465,9.465,0,1,0,9.464,9.465A9.476,9.476,0,0,0,15.488,6.023Z" transform="translate(0 30.976)"/><path class="c" d="M15.543,31.076h0A15.538,15.538,0,0,1,4.551,4.551,15.437,15.437,0,0,1,15.539,0h.005V31.075Z" transform="translate(31.016 62.282) rotate(-90)"/><path class="c" d="M15.543,31.076h0A15.538,15.538,0,0,1,4.551,4.551,15.437,15.437,0,0,1,15.539,0h.005V31.075Z" transform="translate(124.126 0.095) rotate(90)"/></g><g class="b" transform="translate(124 1414.56) rotate(180)"><path class="c" d="M30.976,0H0V30.976H.124L30.976.124V0Z" transform="translate(92.928 62.548)"/><path class="c" d="M30.976,0H0V30.976H.124L30.976.124V0Z" transform="translate(62.548 30.976) rotate(180)"/><path class="c" d="M30.976,0H0V30.976H.124L30.976.124V0Z" transform="translate(0 93.226) rotate(-90)"/><path class="c" d="M0,0H0A31.008,31.008,0,0,1,31.008,31.008v.212a0,0,0,0,1,0,0H0a0,0,0,0,1,0,0V0A0,0,0,0,1,0,0Z" transform="translate(31.068 31.22) rotate(180)"/><path class="c" d="M30.976,30.976H0V0A30.781,30.781,0,0,1,12.057,2.434,30.873,30.873,0,0,1,21.9,9.073a30.873,30.873,0,0,1,6.639,9.846,30.782,30.782,0,0,1,2.434,12.057ZM5.516,7.376V25.708H23.763v-.086A18.267,18.267,0,0,0,5.516,7.376Z" transform="translate(61.952 62.548)"/><path class="c" d="M30.976,30.976H0V0H30.976V30.976ZM15.488,6.711a8.777,8.777,0,1,0,8.777,8.777A8.787,8.787,0,0,0,15.488,6.711Z" transform="translate(30.976 62.25)"/><path class="c" d="M30.976,30.976H0V0H30.976V30.976ZM15.488,6.711a8.777,8.777,0,1,0,8.777,8.777A8.787,8.787,0,0,0,15.488,6.711Z" transform="translate(61.952 30.976)"/><rect class="c" width="30.976" height="30.976" rx="15.488" transform="translate(61.952)"/><path class="c" d="M15.488,30.976A15.488,15.488,0,0,1,4.536,4.536a15.488,15.488,0,1,1,21.9,21.9A15.387,15.387,0,0,1,15.488,30.976Zm0-24.953a9.465,9.465,0,1,0,9.464,9.465A9.476,9.476,0,0,0,15.488,6.023Z" transform="translate(93.524 30.976)"/><path class="c" d="M15.488,30.976A15.488,15.488,0,0,1,4.536,4.536a15.488,15.488,0,1,1,21.9,21.9A15.387,15.387,0,0,1,15.488,30.976Zm0-24.953a9.465,9.465,0,1,0,9.464,9.465A9.476,9.476,0,0,0,15.488,6.023Z" transform="translate(0 30.976)"/><path class="c" d="M15.543,31.076h0A15.538,15.538,0,0,1,4.551,4.551,15.437,15.437,0,0,1,15.539,0h.005V31.075Z" transform="translate(31.016 62.282) rotate(-90)"/><path class="c" d="M15.543,31.076h0A15.538,15.538,0,0,1,4.551,4.551,15.437,15.437,0,0,1,15.539,0h.005V31.075Z" transform="translate(124.126 0.095) rotate(90)"/></g></g><g transform="translate(1375.5 -1227.5)"><g class="b" transform="translate(124 1321.024) rotate(180)"><path class="c" d="M30.976,0H0V30.976H.124L30.976.124V0Z" transform="translate(92.928 62.548)"/><path class="c" d="M30.976,0H0V30.976H.124L30.976.124V0Z" transform="translate(62.548 30.976) rotate(180)"/><path class="c" d="M30.976,0H0V30.976H.124L30.976.124V0Z" transform="translate(0 93.226) rotate(-90)"/><path class="c" d="M0,0H0A31.008,31.008,0,0,1,31.008,31.008v.212a0,0,0,0,1,0,0H0a0,0,0,0,1,0,0V0A0,0,0,0,1,0,0Z" transform="translate(31.068 31.22) rotate(180)"/><path class="c" d="M30.976,30.976H0V0A30.781,30.781,0,0,1,12.057,2.434,30.873,30.873,0,0,1,21.9,9.073a30.873,30.873,0,0,1,6.639,9.846,30.782,30.782,0,0,1,2.434,12.057ZM5.516,7.376V25.708H23.763v-.086A18.267,18.267,0,0,0,5.516,7.376Z" transform="translate(61.952 62.548)"/><path class="c" d="M30.976,30.976H0V0H30.976V30.976ZM15.488,6.711a8.777,8.777,0,1,0,8.777,8.777A8.787,8.787,0,0,0,15.488,6.711Z" transform="translate(30.976 62.25)"/><path class="c" d="M30.976,30.976H0V0H30.976V30.976ZM15.488,6.711a8.777,8.777,0,1,0,8.777,8.777A8.787,8.787,0,0,0,15.488,6.711Z" transform="translate(61.952 30.976)"/><rect class="c" width="30.976" height="30.976" rx="15.488" transform="translate(61.952)"/><path class="c" d="M15.488,30.976A15.488,15.488,0,0,1,4.536,4.536a15.488,15.488,0,1,1,21.9,21.9A15.387,15.387,0,0,1,15.488,30.976Zm0-24.953a9.465,9.465,0,1,0,9.464,9.465A9.476,9.476,0,0,0,15.488,6.023Z" transform="translate(93.524 30.976)"/><path class="c" d="M15.488,30.976A15.488,15.488,0,0,1,4.536,4.536a15.488,15.488,0,1,1,21.9,21.9A15.387,15.387,0,0,1,15.488,30.976Zm0-24.953a9.465,9.465,0,1,0,9.464,9.465A9.476,9.476,0,0,0,15.488,6.023Z" transform="translate(0 30.976)"/><path class="c" d="M15.543,31.076h0A15.538,15.538,0,0,1,4.551,4.551,15.437,15.437,0,0,1,15.539,0h.005V31.075Z" transform="translate(31.016 62.282) rotate(-90)"/><path class="c" d="M15.543,31.076h0A15.538,15.538,0,0,1,4.551,4.551,15.437,15.437,0,0,1,15.539,0h.005V31.075Z" transform="translate(124.126 0.095) rotate(90)"/></g><g class="b" transform="translate(124 1414.56) rotate(180)"><path class="c" d="M30.976,0H0V30.976H.124L30.976.124V0Z" transform="translate(92.928 62.548)"/><path class="c" d="M30.976,0H0V30.976H.124L30.976.124V0Z" transform="translate(62.548 30.976) rotate(180)"/><path class="c" d="M30.976,0H0V30.976H.124L30.976.124V0Z" transform="translate(0 93.226) rotate(-90)"/><path class="c" d="M0,0H0A31.008,31.008,0,0,1,31.008,31.008v.212a0,0,0,0,1,0,0H0a0,0,0,0,1,0,0V0A0,0,0,0,1,0,0Z" transform="translate(31.068 31.22) rotate(180)"/><path class="c" d="M30.976,30.976H0V0A30.781,30.781,0,0,1,12.057,2.434,30.873,30.873,0,0,1,21.9,9.073a30.873,30.873,0,0,1,6.639,9.846,30.782,30.782,0,0,1,2.434,12.057ZM5.516,7.376V25.708H23.763v-.086A18.267,18.267,0,0,0,5.516,7.376Z" transform="translate(61.952 62.548)"/><path class="c" d="M30.976,30.976H0V0H30.976V30.976ZM15.488,6.711a8.777,8.777,0,1,0,8.777,8.777A8.787,8.787,0,0,0,15.488,6.711Z" transform="translate(30.976 62.25)"/><path class="c" d="M30.976,30.976H0V0H30.976V30.976ZM15.488,6.711a8.777,8.777,0,1,0,8.777,8.777A8.787,8.787,0,0,0,15.488,6.711Z" transform="translate(61.952 30.976)"/><rect class="c" width="30.976" height="30.976" rx="15.488" transform="translate(61.952)"/><path class="c" d="M15.488,30.976A15.488,15.488,0,0,1,4.536,4.536a15.488,15.488,0,1,1,21.9,21.9A15.387,15.387,0,0,1,15.488,30.976Zm0-24.953a9.465,9.465,0,1,0,9.464,9.465A9.476,9.476,0,0,0,15.488,6.023Z" transform="translate(93.524 30.976)"/><path class="c" d="M15.488,30.976A15.488,15.488,0,0,1,4.536,4.536a15.488,15.488,0,1,1,21.9,21.9A15.387,15.387,0,0,1,15.488,30.976Zm0-24.953a9.465,9.465,0,1,0,9.464,9.465A9.476,9.476,0,0,0,15.488,6.023Z" transform="translate(0 30.976)"/><path class="c" d="M15.543,31.076h0A15.538,15.538,0,0,1,4.551,4.551,15.437,15.437,0,0,1,15.539,0h.005V31.075Z" transform="translate(31.016 62.282) rotate(-90)"/><path class="c" d="M15.543,31.076h0A15.538,15.538,0,0,1,4.551,4.551,15.437,15.437,0,0,1,15.539,0h.005V31.075Z" transform="translate(124.126 0.095) rotate(90)"/></g></g><g transform="translate(1500.5 -1227.5)"><g class="b" transform="translate(124 1321.024) rotate(180)"><path class="c" d="M30.976,0H0V30.976H.124L30.976.124V0Z" transform="translate(92.928 62.548)"/><path class="c" d="M30.976,0H0V30.976H.124L30.976.124V0Z" transform="translate(62.548 30.976) rotate(180)"/><path class="c" d="M30.976,0H0V30.976H.124L30.976.124V0Z" transform="translate(0 93.226) rotate(-90)"/><path class="c" d="M0,0H0A31.008,31.008,0,0,1,31.008,31.008v.212a0,0,0,0,1,0,0H0a0,0,0,0,1,0,0V0A0,0,0,0,1,0,0Z" transform="translate(31.068 31.22) rotate(180)"/><path class="c" d="M30.976,30.976H0V0A30.781,30.781,0,0,1,12.057,2.434,30.873,30.873,0,0,1,21.9,9.073a30.873,30.873,0,0,1,6.639,9.846,30.782,30.782,0,0,1,2.434,12.057ZM5.516,7.376V25.708H23.763v-.086A18.267,18.267,0,0,0,5.516,7.376Z" transform="translate(61.952 62.548)"/><path class="c" d="M30.976,30.976H0V0H30.976V30.976ZM15.488,6.711a8.777,8.777,0,1,0,8.777,8.777A8.787,8.787,0,0,0,15.488,6.711Z" transform="translate(30.976 62.25)"/><path class="c" d="M30.976,30.976H0V0H30.976V30.976ZM15.488,6.711a8.777,8.777,0,1,0,8.777,8.777A8.787,8.787,0,0,0,15.488,6.711Z" transform="translate(61.952 30.976)"/><rect class="c" width="30.976" height="30.976" rx="15.488" transform="translate(61.952)"/><path class="c" d="M15.488,30.976A15.488,15.488,0,0,1,4.536,4.536a15.488,15.488,0,1,1,21.9,21.9A15.387,15.387,0,0,1,15.488,30.976Zm0-24.953a9.465,9.465,0,1,0,9.464,9.465A9.476,9.476,0,0,0,15.488,6.023Z" transform="translate(93.524 30.976)"/><path class="c" d="M15.488,30.976A15.488,15.488,0,0,1,4.536,4.536a15.488,15.488,0,1,1,21.9,21.9A15.387,15.387,0,0,1,15.488,30.976Zm0-24.953a9.465,9.465,0,1,0,9.464,9.465A9.476,9.476,0,0,0,15.488,6.023Z" transform="translate(0 30.976)"/><path class="c" d="M15.543,31.076h0A15.538,15.538,0,0,1,4.551,4.551,15.437,15.437,0,0,1,15.539,0h.005V31.075Z" transform="translate(31.016 62.282) rotate(-90)"/><path class="c" d="M15.543,31.076h0A15.538,15.538,0,0,1,4.551,4.551,15.437,15.437,0,0,1,15.539,0h.005V31.075Z" transform="translate(124.126 0.095) rotate(90)"/></g><g class="b" transform="translate(124 1414.56) rotate(180)"><path class="c" d="M30.976,0H0V30.976H.124L30.976.124V0Z" transform="translate(92.928 62.548)"/><path class="c" d="M30.976,0H0V30.976H.124L30.976.124V0Z" transform="translate(62.548 30.976) rotate(180)"/><path class="c" d="M30.976,0H0V30.976H.124L30.976.124V0Z" transform="translate(0 93.226) rotate(-90)"/><path class="c" d="M0,0H0A31.008,31.008,0,0,1,31.008,31.008v.212a0,0,0,0,1,0,0H0a0,0,0,0,1,0,0V0A0,0,0,0,1,0,0Z" transform="translate(31.068 31.22) rotate(180)"/><path class="c" d="M30.976,30.976H0V0A30.781,30.781,0,0,1,12.057,2.434,30.873,30.873,0,0,1,21.9,9.073a30.873,30.873,0,0,1,6.639,9.846,30.782,30.782,0,0,1,2.434,12.057ZM5.516,7.376V25.708H23.763v-.086A18.267,18.267,0,0,0,5.516,7.376Z" transform="translate(61.952 62.548)"/><path class="c" d="M30.976,30.976H0V0H30.976V30.976ZM15.488,6.711a8.777,8.777,0,1,0,8.777,8.777A8.787,8.787,0,0,0,15.488,6.711Z" transform="translate(30.976 62.25)"/><path class="c" d="M30.976,30.976H0V0H30.976V30.976ZM15.488,6.711a8.777,8.777,0,1,0,8.777,8.777A8.787,8.787,0,0,0,15.488,6.711Z" transform="translate(61.952 30.976)"/><rect class="c" width="30.976" height="30.976" rx="15.488" transform="translate(61.952)"/><path class="c" d="M15.488,30.976A15.488,15.488,0,0,1,4.536,4.536a15.488,15.488,0,1,1,21.9,21.9A15.387,15.387,0,0,1,15.488,30.976Zm0-24.953a9.465,9.465,0,1,0,9.464,9.465A9.476,9.476,0,0,0,15.488,6.023Z" transform="translate(93.524 30.976)"/><path class="c" d="M15.488,30.976A15.488,15.488,0,0,1,4.536,4.536a15.488,15.488,0,1,1,21.9,21.9A15.387,15.387,0,0,1,15.488,30.976Zm0-24.953a9.465,9.465,0,1,0,9.464,9.465A9.476,9.476,0,0,0,15.488,6.023Z" transform="translate(0 30.976)"/><path class="c" d="M15.543,31.076h0A15.538,15.538,0,0,1,4.551,4.551,15.437,15.437,0,0,1,15.539,0h.005V31.075Z" transform="translate(31.016 62.282) rotate(-90)"/><path class="c" d="M15.543,31.076h0A15.538,15.538,0,0,1,4.551,4.551,15.437,15.437,0,0,1,15.539,0h.005V31.075Z" transform="translate(124.126 0.095) rotate(90)"/></g></g><g transform="translate(1625.5 -1227.5)"><g class="b" transform="translate(124 1321.024) rotate(180)"><path class="c" d="M30.976,0H0V30.976H.124L30.976.124V0Z" transform="translate(92.928 62.548)"/><path class="c" d="M30.976,0H0V30.976H.124L30.976.124V0Z" transform="translate(62.548 30.976) rotate(180)"/><path class="c" d="M30.976,0H0V30.976H.124L30.976.124V0Z" transform="translate(0 93.226) rotate(-90)"/><path class="c" d="M0,0H0A31.008,31.008,0,0,1,31.008,31.008v.212a0,0,0,0,1,0,0H0a0,0,0,0,1,0,0V0A0,0,0,0,1,0,0Z" transform="translate(31.068 31.22) rotate(180)"/><path class="c" d="M30.976,30.976H0V0A30.781,30.781,0,0,1,12.057,2.434,30.873,30.873,0,0,1,21.9,9.073a30.873,30.873,0,0,1,6.639,9.846,30.782,30.782,0,0,1,2.434,12.057ZM5.516,7.376V25.708H23.763v-.086A18.267,18.267,0,0,0,5.516,7.376Z" transform="translate(61.952 62.548)"/><path class="c" d="M30.976,30.976H0V0H30.976V30.976ZM15.488,6.711a8.777,8.777,0,1,0,8.777,8.777A8.787,8.787,0,0,0,15.488,6.711Z" transform="translate(30.976 62.25)"/><path class="c" d="M30.976,30.976H0V0H30.976V30.976ZM15.488,6.711a8.777,8.777,0,1,0,8.777,8.777A8.787,8.787,0,0,0,15.488,6.711Z" transform="translate(61.952 30.976)"/><rect class="c" width="30.976" height="30.976" rx="15.488" transform="translate(61.952)"/><path class="c" d="M15.488,30.976A15.488,15.488,0,0,1,4.536,4.536a15.488,15.488,0,1,1,21.9,21.9A15.387,15.387,0,0,1,15.488,30.976Zm0-24.953a9.465,9.465,0,1,0,9.464,9.465A9.476,9.476,0,0,0,15.488,6.023Z" transform="translate(93.524 30.976)"/><path class="c" d="M15.488,30.976A15.488,15.488,0,0,1,4.536,4.536a15.488,15.488,0,1,1,21.9,21.9A15.387,15.387,0,0,1,15.488,30.976Zm0-24.953a9.465,9.465,0,1,0,9.464,9.465A9.476,9.476,0,0,0,15.488,6.023Z" transform="translate(0 30.976)"/><path class="c" d="M15.543,31.076h0A15.538,15.538,0,0,1,4.551,4.551,15.437,15.437,0,0,1,15.539,0h.005V31.075Z" transform="translate(31.016 62.282) rotate(-90)"/><path class="c" d="M15.543,31.076h0A15.538,15.538,0,0,1,4.551,4.551,15.437,15.437,0,0,1,15.539,0h.005V31.075Z" transform="translate(124.126 0.095) rotate(90)"/></g><g class="b" transform="translate(124 1414.56) rotate(180)"><path class="c" d="M30.976,0H0V30.976H.124L30.976.124V0Z" transform="translate(92.928 62.548)"/><path class="c" d="M30.976,0H0V30.976H.124L30.976.124V0Z" transform="translate(62.548 30.976) rotate(180)"/><path class="c" d="M30.976,0H0V30.976H.124L30.976.124V0Z" transform="translate(0 93.226) rotate(-90)"/><path class="c" d="M0,0H0A31.008,31.008,0,0,1,31.008,31.008v.212a0,0,0,0,1,0,0H0a0,0,0,0,1,0,0V0A0,0,0,0,1,0,0Z" transform="translate(31.068 31.22) rotate(180)"/><path class="c" d="M30.976,30.976H0V0A30.781,30.781,0,0,1,12.057,2.434,30.873,30.873,0,0,1,21.9,9.073a30.873,30.873,0,0,1,6.639,9.846,30.782,30.782,0,0,1,2.434,12.057ZM5.516,7.376V25.708H23.763v-.086A18.267,18.267,0,0,0,5.516,7.376Z" transform="translate(61.952 62.548)"/><path class="c" d="M30.976,30.976H0V0H30.976V30.976ZM15.488,6.711a8.777,8.777,0,1,0,8.777,8.777A8.787,8.787,0,0,0,15.488,6.711Z" transform="translate(30.976 62.25)"/><path class="c" d="M30.976,30.976H0V0H30.976V30.976ZM15.488,6.711a8.777,8.777,0,1,0,8.777,8.777A8.787,8.787,0,0,0,15.488,6.711Z" transform="translate(61.952 30.976)"/><rect class="c" width="30.976" height="30.976" rx="15.488" transform="translate(61.952)"/><path class="c" d="M15.488,30.976A15.488,15.488,0,0,1,4.536,4.536a15.488,15.488,0,1,1,21.9,21.9A15.387,15.387,0,0,1,15.488,30.976Zm0-24.953a9.465,9.465,0,1,0,9.464,9.465A9.476,9.476,0,0,0,15.488,6.023Z" transform="translate(93.524 30.976)"/><path class="c" d="M15.488,30.976A15.488,15.488,0,0,1,4.536,4.536a15.488,15.488,0,1,1,21.9,21.9A15.387,15.387,0,0,1,15.488,30.976Zm0-24.953a9.465,9.465,0,1,0,9.464,9.465A9.476,9.476,0,0,0,15.488,6.023Z" transform="translate(0 30.976)"/><path class="c" d="M15.543,31.076h0A15.538,15.538,0,0,1,4.551,4.551,15.437,15.437,0,0,1,15.539,0h.005V31.075Z" transform="translate(31.016 62.282) rotate(-90)"/><path class="c" d="M15.543,31.076h0A15.538,15.538,0,0,1,4.551,4.551,15.437,15.437,0,0,1,15.539,0h.005V31.075Z" transform="translate(124.126 0.095) rotate(90)"/></g></g><g transform="translate(1750.5 -1227.5)"><g class="b" transform="translate(124 1321.024) rotate(180)"><path class="c" d="M30.976,0H0V30.976H.124L30.976.124V0Z" transform="translate(92.928 62.548)"/><path class="c" d="M30.976,0H0V30.976H.124L30.976.124V0Z" transform="translate(62.548 30.976) rotate(180)"/><path class="c" d="M30.976,0H0V30.976H.124L30.976.124V0Z" transform="translate(0 93.226) rotate(-90)"/><path class="c" d="M0,0H0A31.008,31.008,0,0,1,31.008,31.008v.212a0,0,0,0,1,0,0H0a0,0,0,0,1,0,0V0A0,0,0,0,1,0,0Z" transform="translate(31.068 31.22) rotate(180)"/><path class="c" d="M30.976,30.976H0V0A30.781,30.781,0,0,1,12.057,2.434,30.873,30.873,0,0,1,21.9,9.073a30.873,30.873,0,0,1,6.639,9.846,30.782,30.782,0,0,1,2.434,12.057ZM5.516,7.376V25.708H23.763v-.086A18.267,18.267,0,0,0,5.516,7.376Z" transform="translate(61.952 62.548)"/><path class="c" d="M30.976,30.976H0V0H30.976V30.976ZM15.488,6.711a8.777,8.777,0,1,0,8.777,8.777A8.787,8.787,0,0,0,15.488,6.711Z" transform="translate(30.976 62.25)"/><path class="c" d="M30.976,30.976H0V0H30.976V30.976ZM15.488,6.711a8.777,8.777,0,1,0,8.777,8.777A8.787,8.787,0,0,0,15.488,6.711Z" transform="translate(61.952 30.976)"/><rect class="c" width="30.976" height="30.976" rx="15.488" transform="translate(61.952)"/><path class="c" d="M15.488,30.976A15.488,15.488,0,0,1,4.536,4.536a15.488,15.488,0,1,1,21.9,21.9A15.387,15.387,0,0,1,15.488,30.976Zm0-24.953a9.465,9.465,0,1,0,9.464,9.465A9.476,9.476,0,0,0,15.488,6.023Z" transform="translate(93.524 30.976)"/><path class="c" d="M15.488,30.976A15.488,15.488,0,0,1,4.536,4.536a15.488,15.488,0,1,1,21.9,21.9A15.387,15.387,0,0,1,15.488,30.976Zm0-24.953a9.465,9.465,0,1,0,9.464,9.465A9.476,9.476,0,0,0,15.488,6.023Z" transform="translate(0 30.976)"/><path class="c" d="M15.543,31.076h0A15.538,15.538,0,0,1,4.551,4.551,15.437,15.437,0,0,1,15.539,0h.005V31.075Z" transform="translate(31.016 62.282) rotate(-90)"/><path class="c" d="M15.543,31.076h0A15.538,15.538,0,0,1,4.551,4.551,15.437,15.437,0,0,1,15.539,0h.005V31.075Z" transform="translate(124.126 0.095) rotate(90)"/></g><g class="b" transform="translate(124 1414.56) rotate(180)"><path class="c" d="M30.976,0H0V30.976H.124L30.976.124V0Z" transform="translate(92.928 62.548)"/><path class="c" d="M30.976,0H0V30.976H.124L30.976.124V0Z" transform="translate(62.548 30.976) rotate(180)"/><path class="c" d="M30.976,0H0V30.976H.124L30.976.124V0Z" transform="translate(0 93.226) rotate(-90)"/><path class="c" d="M0,0H0A31.008,31.008,0,0,1,31.008,31.008v.212a0,0,0,0,1,0,0H0a0,0,0,0,1,0,0V0A0,0,0,0,1,0,0Z" transform="translate(31.068 31.22) rotate(180)"/><path class="c" d="M30.976,30.976H0V0A30.781,30.781,0,0,1,12.057,2.434,30.873,30.873,0,0,1,21.9,9.073a30.873,30.873,0,0,1,6.639,9.846,30.782,30.782,0,0,1,2.434,12.057ZM5.516,7.376V25.708H23.763v-.086A18.267,18.267,0,0,0,5.516,7.376Z" transform="translate(61.952 62.548)"/><path class="c" d="M30.976,30.976H0V0H30.976V30.976ZM15.488,6.711a8.777,8.777,0,1,0,8.777,8.777A8.787,8.787,0,0,0,15.488,6.711Z" transform="translate(30.976 62.25)"/><path class="c" d="M30.976,30.976H0V0H30.976V30.976ZM15.488,6.711a8.777,8.777,0,1,0,8.777,8.777A8.787,8.787,0,0,0,15.488,6.711Z" transform="translate(61.952 30.976)"/><rect class="c" width="30.976" height="30.976" rx="15.488" transform="translate(61.952)"/><path class="c" d="M15.488,30.976A15.488,15.488,0,0,1,4.536,4.536a15.488,15.488,0,1,1,21.9,21.9A15.387,15.387,0,0,1,15.488,30.976Zm0-24.953a9.465,9.465,0,1,0,9.464,9.465A9.476,9.476,0,0,0,15.488,6.023Z" transform="translate(93.524 30.976)"/><path class="c" d="M15.488,30.976A15.488,15.488,0,0,1,4.536,4.536a15.488,15.488,0,1,1,21.9,21.9A15.387,15.387,0,0,1,15.488,30.976Zm0-24.953a9.465,9.465,0,1,0,9.464,9.465A9.476,9.476,0,0,0,15.488,6.023Z" transform="translate(0 30.976)"/><path class="c" d="M15.543,31.076h0A15.538,15.538,0,0,1,4.551,4.551,15.437,15.437,0,0,1,15.539,0h.005V31.075Z" transform="translate(31.016 62.282) rotate(-90)"/><path class="c" d="M15.543,31.076h0A15.538,15.538,0,0,1,4.551,4.551,15.437,15.437,0,0,1,15.539,0h.005V31.075Z" transform="translate(124.126 0.095) rotate(90)"/></g></g><g transform="translate(1875.5 -1227.5)"><g class="b" transform="translate(124 1321.024) rotate(180)"><path class="c" d="M30.976,0H0V30.976H.124L30.976.124V0Z" transform="translate(92.928 62.548)"/><path class="c" d="M30.976,0H0V30.976H.124L30.976.124V0Z" transform="translate(62.548 30.976) rotate(180)"/><path class="c" d="M30.976,0H0V30.976H.124L30.976.124V0Z" transform="translate(0 93.226) rotate(-90)"/><path class="c" d="M0,0H0A31.008,31.008,0,0,1,31.008,31.008v.212a0,0,0,0,1,0,0H0a0,0,0,0,1,0,0V0A0,0,0,0,1,0,0Z" transform="translate(31.068 31.22) rotate(180)"/><path class="c" d="M30.976,30.976H0V0A30.781,30.781,0,0,1,12.057,2.434,30.873,30.873,0,0,1,21.9,9.073a30.873,30.873,0,0,1,6.639,9.846,30.782,30.782,0,0,1,2.434,12.057ZM5.516,7.376V25.708H23.763v-.086A18.267,18.267,0,0,0,5.516,7.376Z" transform="translate(61.952 62.548)"/><path class="c" d="M30.976,30.976H0V0H30.976V30.976ZM15.488,6.711a8.777,8.777,0,1,0,8.777,8.777A8.787,8.787,0,0,0,15.488,6.711Z" transform="translate(30.976 62.25)"/><path class="c" d="M30.976,30.976H0V0H30.976V30.976ZM15.488,6.711a8.777,8.777,0,1,0,8.777,8.777A8.787,8.787,0,0,0,15.488,6.711Z" transform="translate(61.952 30.976)"/><rect class="c" width="30.976" height="30.976" rx="15.488" transform="translate(61.952)"/><path class="c" d="M15.488,30.976A15.488,15.488,0,0,1,4.536,4.536a15.488,15.488,0,1,1,21.9,21.9A15.387,15.387,0,0,1,15.488,30.976Zm0-24.953a9.465,9.465,0,1,0,9.464,9.465A9.476,9.476,0,0,0,15.488,6.023Z" transform="translate(93.524 30.976)"/><path class="c" d="M15.488,30.976A15.488,15.488,0,0,1,4.536,4.536a15.488,15.488,0,1,1,21.9,21.9A15.387,15.387,0,0,1,15.488,30.976Zm0-24.953a9.465,9.465,0,1,0,9.464,9.465A9.476,9.476,0,0,0,15.488,6.023Z" transform="translate(0 30.976)"/><path class="c" d="M15.543,31.076h0A15.538,15.538,0,0,1,4.551,4.551,15.437,15.437,0,0,1,15.539,0h.005V31.075Z" transform="translate(31.016 62.282) rotate(-90)"/><path class="c" d="M15.543,31.076h0A15.538,15.538,0,0,1,4.551,4.551,15.437,15.437,0,0,1,15.539,0h.005V31.075Z" transform="translate(124.126 0.095) rotate(90)"/></g><g class="b" transform="translate(124 1414.56) rotate(180)"><path class="c" d="M30.976,0H0V30.976H.124L30.976.124V0Z" transform="translate(92.928 62.548)"/><path class="c" d="M30.976,0H0V30.976H.124L30.976.124V0Z" transform="translate(62.548 30.976) rotate(180)"/><path class="c" d="M30.976,0H0V30.976H.124L30.976.124V0Z" transform="translate(0 93.226) rotate(-90)"/><path class="c" d="M0,0H0A31.008,31.008,0,0,1,31.008,31.008v.212a0,0,0,0,1,0,0H0a0,0,0,0,1,0,0V0A0,0,0,0,1,0,0Z" transform="translate(31.068 31.22) rotate(180)"/><path class="c" d="M30.976,30.976H0V0A30.781,30.781,0,0,1,12.057,2.434,30.873,30.873,0,0,1,21.9,9.073a30.873,30.873,0,0,1,6.639,9.846,30.782,30.782,0,0,1,2.434,12.057ZM5.516,7.376V25.708H23.763v-.086A18.267,18.267,0,0,0,5.516,7.376Z" transform="translate(61.952 62.548)"/><path class="c" d="M30.976,30.976H0V0H30.976V30.976ZM15.488,6.711a8.777,8.777,0,1,0,8.777,8.777A8.787,8.787,0,0,0,15.488,6.711Z" transform="translate(30.976 62.25)"/><path class="c" d="M30.976,30.976H0V0H30.976V30.976ZM15.488,6.711a8.777,8.777,0,1,0,8.777,8.777A8.787,8.787,0,0,0,15.488,6.711Z" transform="translate(61.952 30.976)"/><rect class="c" width="30.976" height="30.976" rx="15.488" transform="translate(61.952)"/><path class="c" d="M15.488,30.976A15.488,15.488,0,0,1,4.536,4.536a15.488,15.488,0,1,1,21.9,21.9A15.387,15.387,0,0,1,15.488,30.976Zm0-24.953a9.465,9.465,0,1,0,9.464,9.465A9.476,9.476,0,0,0,15.488,6.023Z" transform="translate(93.524 30.976)"/><path class="c" d="M15.488,30.976A15.488,15.488,0,0,1,4.536,4.536a15.488,15.488,0,1,1,21.9,21.9A15.387,15.387,0,0,1,15.488,30.976Zm0-24.953a9.465,9.465,0,1,0,9.464,9.465A9.476,9.476,0,0,0,15.488,6.023Z" transform="translate(0 30.976)"/><path class="c" d="M15.543,31.076h0A15.538,15.538,0,0,1,4.551,4.551,15.437,15.437,0,0,1,15.539,0h.005V31.075Z" transform="translate(31.016 62.282) rotate(-90)"/><path class="c" d="M15.543,31.076h0A15.538,15.538,0,0,1,4.551,4.551,15.437,15.437,0,0,1,15.539,0h.005V31.075Z" transform="translate(124.126 0.095) rotate(90)"/></g></g></g></svg>