<svg xmlns="http://www.w3.org/2000/svg" width="18.259" height="18.291" viewBox="0 0 18.259 18.291">
  <path id="Icon_feather-phone-call" data-name="Icon feather-phone-call" d="M13.5,4.694a3.993,3.993,0,0,1,3.154,3.154M13.5,1.5a7.187,7.187,0,0,1,6.348,6.34m-.8,6.372v2.4a1.6,1.6,0,0,1-1.741,1.6,15.8,15.8,0,0,1-6.891-2.451,15.571,15.571,0,0,1-4.791-4.791A15.8,15.8,0,0,1,3.174,4.039,1.6,1.6,0,0,1,4.763,2.3h2.4a1.6,1.6,0,0,1,1.6,1.373,10.253,10.253,0,0,0,.559,2.244A1.6,1.6,0,0,1,8.956,7.6L7.941,8.615a12.776,12.776,0,0,0,4.791,4.791l1.014-1.014a1.6,1.6,0,0,1,1.685-.359,10.253,10.253,0,0,0,2.244.559A1.6,1.6,0,0,1,19.049,14.212Z" transform="translate(-2.417 -0.672)" fill="none" stroke="#ff50a0" stroke-linecap="round" stroke-linejoin="round" stroke-width="1.5"/>
</svg>
