<svg xmlns="http://www.w3.org/2000/svg" width="56" height="49" viewBox="0 0 56 49">
  <path id="Icon_awesome-quote-left" data-name="Icon awesome-quote-left" d="M50.75,26.75H42v-7a7.006,7.006,0,0,1,7-7h.875A2.619,2.619,0,0,0,52.5,10.125V4.875A2.619,2.619,0,0,0,49.875,2.25H49a17.5,17.5,0,0,0-17.5,17.5V46a5.251,5.251,0,0,0,5.25,5.25h14A5.251,5.251,0,0,0,56,46V32A5.251,5.251,0,0,0,50.75,26.75Zm-31.5,0H10.5v-7a7.006,7.006,0,0,1,7-7h.875A2.619,2.619,0,0,0,21,10.125V4.875A2.619,2.619,0,0,0,18.375,2.25H17.5A17.5,17.5,0,0,0,0,19.75V46a5.251,5.251,0,0,0,5.25,5.25h14A5.251,5.251,0,0,0,24.5,46V32A5.251,5.251,0,0,0,19.25,26.75Z" transform="translate(0 -2.25)" fill="#ff50a0" opacity="0.68"/>
</svg>
