<svg xmlns="http://www.w3.org/2000/svg" width="67.376" height="56.958" viewBox="0 0 67.376 56.958"><defs><style>.a{fill:#d60665;}</style></defs><g transform="translate(0 -9.895)"><path class="a" d="M42.86,64.345V50.611a2.411,2.411,0,0,0-.775-4.7H38.21a2.413,2.413,0,0,0-.852,4.672A3.737,3.737,0,0,1,33.7,53.558H12.738a3.737,3.737,0,0,1-3.652-2.972,2.413,2.413,0,0,0-.853-4.672H4.36a2.411,2.411,0,0,0-.774,4.7V64.345A4.084,4.084,0,0,0,0,68.392v14.6a.922.922,0,0,0,.921.921H4.5a.922.922,0,0,0,.921-.921,3.737,3.737,0,0,1,3.73-3.73H37.29a3.734,3.734,0,0,1,3.73,3.73.922.922,0,0,0,.921.921h3.583a.921.921,0,0,0,.921-.921v-14.6A4.084,4.084,0,0,0,42.86,64.345ZM38.21,47.757h3.876a.575.575,0,1,1,0,1.15H38.21a.575.575,0,0,1,0-1.15ZM12.738,55.4H33.7a5.58,5.58,0,0,0,5.5-4.651h1.817V64.312H38.877V63.025a5.138,5.138,0,0,0-5.132-5.132H27.434A5.128,5.128,0,0,0,23.223,60.1a5.127,5.127,0,0,0-4.211-2.207H12.7a5.138,5.138,0,0,0-5.132,5.132v1.288H5.427V50.75H7.244A5.58,5.58,0,0,0,12.738,55.4Zm-3.33,8.912V63.025a3.294,3.294,0,0,1,3.29-3.29h6.311a3.294,3.294,0,0,1,3.29,3.29v1.288Zm14.733-1.288a3.294,3.294,0,0,1,3.29-3.29h6.311a3.294,3.294,0,0,1,3.29,3.29v1.288H24.144ZM4.36,47.757H8.236a.575.575,0,1,1,0,1.15H4.36a.575.575,0,1,1,0-1.15ZM1.842,68.392a2.24,2.24,0,0,1,2.237-2.237H42.366A2.24,2.24,0,0,1,44.6,68.392v3.653H1.842ZM44.6,82.069H42.787a5.58,5.58,0,0,0-5.5-4.652H9.155a5.58,5.58,0,0,0-5.5,4.652H1.842V73.887H44.6Z" transform="translate(0 -17.06)"/><path class="a" d="M110.887,69.57h-7.156V66.359h3.587a.921.921,0,0,0,.9-1.111l-1.579-7.5a.921.921,0,0,0-.9-.731H99.883a.921.921,0,0,0-.9.731l-1.579,7.5a.922.922,0,0,0,.9,1.111h3.586V69.57H94.734a.921.921,0,0,0-.921.921V88.25a.921.921,0,0,0,.921.921h4.178a.922.922,0,0,0,.921-.921V80.522h5.954V88.25a.922.922,0,0,0,.921.921h4.178a.922.922,0,0,0,.921-.921V70.491a.921.921,0,0,0-.921-.921ZM100.631,58.859h4.359l1.192,5.659H99.438ZM95.655,71.412h14.311v7.267H95.655Zm2.336,15.914H95.655v-6.8h2.336Zm11.975,0H107.63v-6.8h2.336Z" transform="translate(-44.432 -22.318)"/><path class="a" d="M106.64,91.361h3.619a.921.921,0,0,0,0-1.842H106.64a.921.921,0,0,0,0,1.842Z" transform="translate(-50.071 -37.712)"/><path class="a" d="M37.162,25.358a7.731,7.731,0,1,0-7.731-7.731,7.732,7.732,0,0,0,7.731,7.731Zm0-13.62a5.889,5.889,0,1,1-5.889,5.889,5.889,5.889,0,0,1,5.889-5.889Z" transform="translate(-13.939 0)"/><path class="a" d="M44.468,23.9a.921.921,0,1,0,1.3-1.3l-1.56-1.56V18.817a.921.921,0,1,0-1.842,0v2.6a.922.922,0,0,0,.27.652Z" transform="translate(-20.067 -3.789)"/></g></svg>