<svg xmlns="http://www.w3.org/2000/svg" width="34.727" height="40.161" viewBox="0 0 34.727 40.161"><defs><style>.a,.c{fill:#fff;}.a{stroke-linecap:round;stroke-linejoin:round;}.b,.c{stroke:none;}</style></defs><g transform="translate(0 25.8)"><g class="a" transform="translate(-32.856 -312)"><path class="b" d="M 33.79143524169922 320.3608093261719 L 33.56309127807617 320.1324462890625 L 41.14814376831055 312.5473937988281 C 41.17871475219727 312.5168151855469 41.21925354003906 312.5 41.26231384277344 312.5 L 57.80108261108398 312.5 C 57.89016342163086 312.5 57.9626350402832 312.5724792480469 57.9626350402832 312.6615600585938 C 57.9626350402832 313.2680969238281 57.80508422851563 314.1748657226563 57.36288452148438 314.90087890625 C 56.86579132080078 315.7170104980469 56.1229133605957 316.1308288574219 55.15487289428711 316.1308288574219 L 48.37781143188477 316.1308288574219 L 48.37781143188477 315.8077392578125 L 55.15487289428711 315.8077392578125 C 56.41999435424805 315.8077392578125 57.29877471923828 314.93359375 57.56586456298828 313.4094543457031 L 57.66861343383789 312.8231506347656 L 57.07337188720703 312.8231506347656 L 41.53619384765625 312.8231506347656 L 41.32908248901367 312.8231506347656 L 41.18264389038086 312.9696044921875 L 33.79143524169922 320.3608093261719 Z"/><path class="c" d="M 41.26231384277344 312 L 57.80108261108398 312 C 58.16642379760742 312 58.4626350402832 312.2962646484375 58.4626350402832 312.6615600585938 C 58.4626350402832 314.0343017578125 57.77130508422852 316.6308288574219 55.15487289428711 316.6308288574219 L 47.87781143188477 316.6308288574219 L 47.87781143188477 315.3077392578125 L 55.15487289428711 315.3077392578125 C 56.5037727355957 315.3077392578125 56.93577194213867 314.1083374023438 57.07337188720703 313.3231506347656 L 41.53619384765625 313.3231506347656 L 33.79142379760742 321.0679016113281 L 32.85599136352539 320.1324462890625 L 40.79459381103516 312.19384765625 C 40.91863250732422 312.0697937011719 41.08683395385742 312 41.26231384277344 312 Z"/></g></g><g transform="translate(5.954 21.17)"><g transform="translate(0)"><g class="a" transform="translate(-104.856 -256.002)"><path class="b" d="M 105.7914276123047 274.2856750488281 L 105.563102722168 274.0573425292969 L 109.8404083251953 269.7800598144531 C 109.870979309082 269.7494812011719 109.9115219116211 269.732666015625 109.9545669555664 269.732666015625 L 123.5732421875 269.732666015625 L 123.7803497314453 269.732666015625 L 123.9267883300781 269.5862121582031 L 131.6586456298828 261.8543701171875 C 132.9707946777344 260.7144470214844 133.1800994873047 258.7398986816406 132.1328125 257.3499755859375 L 131.7866668701172 256.8905944824219 L 131.3799438476563 257.2973327636719 L 126.2994995117188 262.3777465820313 L 126.071174621582 262.1494140625 L 131.6715698242188 256.5490417480469 C 131.7127075195313 256.5079040527344 131.7607574462891 256.5017700195313 131.7857360839844 256.5017700195313 C 131.8107147216797 256.5017700195313 131.8587646484375 256.5079040527344 131.8999176025391 256.549072265625 C 132.3732299804688 257.0223693847656 132.9336853027344 257.8796691894531 133.0871276855469 258.8662719726563 C 133.2672119140625 260.0241088867188 132.8677673339844 261.1018981933594 131.89990234375 262.0697937011719 L 123.9612884521484 270.0083923339844 C 123.9311828613281 270.0384826660156 123.8895721435547 270.0557556152344 123.8471298217773 270.0557556152344 L 110.2284469604492 270.0557556152344 L 110.0213394165039 270.0557556152344 L 109.8749008178711 270.2022094726563 L 105.7914276123047 274.2856750488281 Z"/><path class="c" d="M 131.7857360839844 256.0017700195313 C 131.9550170898438 256.0017700195313 132.1242828369141 256.0663452148438 132.2534484863281 256.1954956054688 C 133.3304748535156 257.2724914550781 134.7170715332031 259.959716796875 132.2534484863281 262.42333984375 L 124.3148422241211 270.3619384765625 C 124.1908187866211 270.4859619140625 124.022590637207 270.5557556152344 123.8471298217773 270.5557556152344 L 110.2284545898438 270.5557556152344 L 105.7914123535156 274.9927978515625 L 104.8559875488281 274.0573425292969 L 109.4868469238281 269.426513671875 C 109.6108703613281 269.302490234375 109.7790832519531 269.232666015625 109.9545593261719 269.232666015625 L 123.5732269287109 269.232666015625 L 131.3180236816406 261.4878845214844 C 132.4470520019531 260.5187072753906 132.6288757324219 258.8392028808594 131.7334899902344 257.65087890625 L 126.2994918823242 263.0848693847656 L 125.3640823364258 262.1494140625 L 131.3180236816406 256.1954956054688 C 131.4471740722656 256.0663452148438 131.616455078125 256.0017700195313 131.7857360839844 256.0017700195313 Z"/></g></g></g><g transform="translate(6.422)"><g class="a" transform="translate(-110.512)"><path class="b" d="M 124.4045944213867 23.31582069396973 L 120.4352874755859 23.31582069396973 C 120.3461990356445 23.31582069396973 120.2737197875977 23.24335098266602 120.2737197875977 23.15427017211914 L 120.2737197875977 20.77666091918945 L 120.2737197875977 20.40423965454102 L 119.9169006347656 20.29759979248047 C 119.3433151245117 20.12618064880371 118.7857208251953 19.89463043212891 118.2595901489258 19.60939025878906 L 117.931510925293 19.43152046203613 L 117.6676635742188 19.69546127319336 L 115.9918365478516 21.37193489074707 C 115.9472351074219 21.41197204589844 115.8973922729492 21.41806030273438 115.8712463378906 21.41806030273438 C 115.8450622558594 21.41806030273438 115.7951507568359 21.41196060180664 115.7505187988281 21.37182235717773 L 112.9494476318359 18.57077026367188 C 112.8865585327148 18.50785064697266 112.8865585327148 18.40534973144531 112.9495162963867 18.34235954284668 L 114.6317749023438 16.66011047363281 L 114.8955459594727 16.3963508605957 L 114.7178497314453 16.06838035583496 C 114.4327850341797 15.54222011566162 114.2014694213867 14.98464012145996 114.0303192138672 14.41112995147705 L 113.9237747192383 14.05411052703857 L 113.5512008666992 14.05411052703857 L 111.1735687255859 14.05411052703857 C 111.0844955444336 14.05411052703857 111.0120239257813 13.98164081573486 111.0120239257813 13.89256000518799 L 111.0120239257813 9.923260688781738 C 111.0120239257813 9.834179878234863 111.0844955444336 9.761710166931152 111.1735687255859 9.761710166931152 L 113.5512008666992 9.761710166931152 L 113.9236297607422 9.761710166931152 L 114.0302658081055 9.404880523681641 C 114.20166015625 8.831360816955566 114.4331970214844 8.273760795593262 114.7184600830078 7.747550487518311 L 114.8963165283203 7.419470310211182 L 114.6323776245117 7.155640125274658 L 112.9493789672852 5.473320484161377 C 112.8865585327148 5.410470485687256 112.8865585327148 5.307970523834229 112.9495162963867 5.244980335235596 L 115.7570495605469 2.438150405883789 C 115.798210144043 2.397000312805176 115.8462677001953 2.390860319137573 115.8712539672852 2.390860319137573 C 115.896240234375 2.390860319137573 115.9442749023438 2.397000312805176 115.9854202270508 2.438130378723145 L 117.6677398681641 4.120430469512939 L 117.9316787719727 4.384360313415527 L 118.2597579956055 4.206340312957764 C 118.7857971191406 3.920890331268311 119.3432693481445 3.689400434494019 119.9166946411133 3.518280267715454 L 120.2737197875977 3.411740303039551 L 120.2737197875977 3.039160251617432 L 120.2737197875977 0.6615503430366516 C 120.2737197875977 0.5724703669548035 120.3461990356445 0.5000003576278687 120.4352874755859 0.5000003576278687 L 124.4045944213867 0.5000003576278687 C 124.4936752319336 0.5000003576278687 124.5661468505859 0.5724703669548035 124.5661468505859 0.6615503430366516 L 124.5661468505859 3.039160251617432 L 124.5661468505859 3.411740303039551 L 124.9231643676758 3.518280267715454 C 125.4966659545898 3.689420461654663 126.0541381835938 3.920920372009277 126.5801086425781 4.206330299377441 L 126.9081954956055 4.38437032699585 L 127.1721343994141 4.120420455932617 L 128.8544616699219 2.438100337982178 C 128.8955841064453 2.397000312805176 128.9436340332031 2.390860319137573 128.9686126708984 2.390860319137573 C 128.9936065673828 2.390860319137573 129.0416717529297 2.397000312805176 129.0828399658203 2.438160419464111 L 131.8904418945313 5.245100498199463 C 131.9533081054688 5.307980537414551 131.9533081054688 5.410460472106934 131.8903503417969 5.473440170288086 L 130.2080993652344 7.155710220336914 L 129.9443206787109 7.419480323791504 L 130.1220245361328 7.74746036529541 C 130.4070129394531 8.273429870605469 130.6383514404297 8.831010818481445 130.8095855712891 9.404720306396484 L 130.9161376953125 9.761710166931152 L 131.2886962890625 9.761710166931152 L 133.6662902832031 9.761710166931152 C 133.75537109375 9.761710166931152 133.8278503417969 9.834179878234863 133.8278503417969 9.923260688781738 L 133.8278503417969 13.89256000518799 C 133.8278503417969 13.98164081573486 133.75537109375 14.05411052703857 133.6662902832031 14.05411052703857 L 131.2886962890625 14.05411052703857 L 130.9162750244141 14.05411052703857 L 130.8096313476563 14.41094017028809 C 130.6382141113281 14.98451042175293 130.4066619873047 15.54211044311523 130.1214294433594 16.06826019287109 L 129.943603515625 16.39628028869629 L 130.2074432373047 16.66011047363281 L 131.8897399902344 18.34243011474609 C 131.95263671875 18.40534973144531 131.95263671875 18.50785064697266 131.8896789550781 18.57084083557129 L 129.0827484130859 21.3784294128418 C 129.0522308349609 21.4089412689209 129.0116882324219 21.4257698059082 128.9686126708984 21.4257698059082 C 128.9255523681641 21.4257698059082 128.8850250244141 21.40895080566406 128.8544921875 21.37841987609863 L 127.1721343994141 19.69606018066406 L 126.9084167480469 19.43234062194824 L 126.5804748535156 19.60995101928711 C 126.0541763305664 19.89499092102051 125.4965591430664 20.12632942199707 124.923095703125 20.29755973815918 L 124.5661468505859 20.40414047241211 L 124.5661468505859 20.77666091918945 L 124.5661468505859 23.15427017211914 C 124.5661468505859 23.24335098266602 124.4936752319336 23.31582069396973 124.4045944213867 23.31582069396973 Z M 117.9127655029297 19.06097030639648 C 117.9335861206055 19.06097030639648 117.9651794433594 19.06516075134277 117.997444152832 19.08509063720703 C 118.7633056640625 19.55879020690918 119.595947265625 19.90458106994629 120.4719772338867 20.11268043518066 C 120.5457382202148 20.1301212310791 120.5968856811523 20.19477081298828 120.5969085693359 20.27001953125 L 120.5969085693359 22.49271965026855 L 120.5969085693359 22.99271965026855 L 121.0969085693359 22.99271965026855 L 123.7431182861328 22.99271965026855 L 124.2431182861328 22.99271965026855 L 124.2431182861328 22.49271965026855 L 124.2431182861328 20.26925086975098 C 124.2431335449219 20.19412040710449 124.2942962646484 20.12946128845215 124.3675155639648 20.11215019226074 C 125.2441177368164 19.90390968322754 126.0767593383789 19.55812072753906 126.8428573608398 19.08426094055176 C 126.8684997558594 19.06842994689941 126.8969879150391 19.06031036376953 126.9272766113281 19.06031036376953 C 126.9523773193359 19.06031036376953 127.0006408691406 19.06647109985352 127.0418395996094 19.10770988464355 L 128.6150207519531 20.68219947814941 L 128.9685668945313 21.03604125976563 L 129.322265625 20.68234062194824 L 131.1944427490234 18.81015014648438 L 131.5480804443359 18.45652008056641 L 131.1943817138672 18.10297012329102 L 129.6205444335938 16.52980041503906 C 129.5671997070313 16.47649955749512 129.5576171875 16.39455032348633 129.5971832275391 16.33048057556152 C 130.0701904296875 15.56457996368408 130.4156951904297 14.73210048675537 130.6240997314453 13.85614013671875 C 130.6415710449219 13.78218078613281 130.7062225341797 13.73103046417236 130.781494140625 13.73101043701172 L 133.0048370361328 13.73101043701172 L 133.5048522949219 13.73101043701172 L 133.5048370361328 13.23099994659424 L 133.5048065185547 10.58480072021484 L 133.5047912597656 10.08481025695801 L 133.0048065185547 10.08481025695801 L 130.7813415527344 10.08481025695801 C 130.7062225341797 10.08479022979736 130.6415710449219 10.03363990783691 130.6242828369141 9.960420608520508 C 130.4157257080078 9.083860397338867 130.0702362060547 8.25137996673584 129.5972137451172 7.48537015914917 C 129.5576171875 7.421260356903076 129.5671844482422 7.339320182800293 129.6204833984375 7.286070346832275 L 131.1944427490234 5.71211051940918 L 131.5480804443359 5.358490467071533 L 131.1943817138672 5.004940509796143 L 129.3227691650391 3.13407039642334 L 128.9691467285156 2.780580282211304 L 128.6156616210938 3.134210348129272 L 127.0424880981445 4.708040237426758 C 127.001220703125 4.749350547790527 126.9529495239258 4.755510330200195 126.927848815918 4.755510330200195 C 126.9070281982422 4.755510330200195 126.8754501342773 4.751320362091064 126.8431777954102 4.731400489807129 C 126.0775451660156 4.257650375366211 125.2447891235352 3.912040233612061 124.3683776855469 3.704390287399292 C 124.2942962646484 3.686960458755493 124.2430648803711 3.622300386428833 124.2430267333984 3.546950340270996 L 124.2430267333984 1.323100328445435 L 124.2430267333984 0.8231003284454346 L 123.7430267333984 0.8231003284454346 L 121.0968399047852 0.8231003284454346 L 120.5968399047852 0.8231003284454346 L 120.5968399047852 1.323100328445435 L 120.5968399047852 3.547230243682861 C 120.5968170166016 3.622350454330444 120.545654296875 3.687020301818848 120.4724349975586 3.704320430755615 C 119.5956954956055 3.912060260772705 118.762939453125 4.257660388946533 117.9969940185547 4.731610298156738 C 117.971435546875 4.747400283813477 117.9429550170898 4.755510330200195 117.9126892089844 4.755510330200195 C 117.887580871582 4.755510330200195 117.8392944335938 4.749350547790527 117.7980804443359 4.708090305328369 L 116.2241439819336 3.134140253067017 L 115.8706436157227 2.780640363693237 L 115.5170974731445 3.13407039642334 L 113.6455688476563 5.004940509796143 L 113.2918167114258 5.358570575714111 L 113.6455764770508 5.7121901512146 L 115.2194061279297 7.285360336303711 C 115.2727584838867 7.338670253753662 115.2823257446289 7.420610427856445 115.2427444458008 7.484710216522217 C 114.7697296142578 8.250699996948242 114.4242248535156 9.08318042755127 114.2158660888672 9.959030151367188 C 114.1983871459961 10.03297996520996 114.1337356567383 10.08413028717041 114.058464050293 10.08415031433105 L 111.835205078125 10.08415031433105 L 111.335205078125 10.08415031433105 L 111.335205078125 10.58415031433105 L 111.335205078125 13.23035049438477 L 111.335205078125 13.73035049438477 L 111.835205078125 13.73035049438477 L 114.0586853027344 13.73035049438477 C 114.1338272094727 13.73037052154541 114.1984786987305 13.78153038024902 114.2157897949219 13.85475063323975 C 114.42431640625 14.73129081726074 114.7697982788086 15.56377029418945 115.2427978515625 16.32978057861328 C 115.2824096679688 16.3939094543457 115.2728271484375 16.47583961486816 115.2195434570313 16.52909088134766 L 113.6455001831055 18.10378074645996 L 113.2920989990234 18.45733070373535 L 113.6455764770508 18.81081008911133 L 115.5177764892578 20.6830005645752 L 115.8714752197266 21.03671073913574 L 116.2250289916992 20.6828498840332 L 117.7981872558594 19.10836029052734 C 117.8393859863281 19.06713104248047 117.8876647949219 19.06097030639648 117.9127655029297 19.06097030639648 Z"/><path class="c" d="M 120.4352874755859 0 L 124.4045944213867 0 C 124.7699508666992 0 125.0661468505859 0.2962112426757813 125.0661468505859 0.6615505218505859 L 125.0661468505859 3.039159774780273 C 125.6738586425781 3.220510482788086 126.2611541748047 3.464370727539063 126.8185882568359 3.766870498657227 L 128.5009155273438 2.084539413452148 C 128.6300659179688 1.955415725708008 128.7993469238281 1.890851974487305 128.9686126708984 1.890851974487305 C 129.1378784179688 1.890851974487305 129.3071594238281 1.955415725708008 129.4363403320313 2.084539413452148 L 132.2439575195313 4.891500473022461 C 132.5022277832031 5.149839401245117 132.5022277832031 5.568599700927734 132.2439575195313 5.826940536499023 L 130.5616455078125 7.509260177612305 C 130.8637237548828 8.066780090332031 131.1073303222656 8.654069900512695 131.2886962890625 9.261710166931152 L 133.6662902832031 9.261710166931152 C 134.0316162109375 9.261710166931152 134.3278503417969 9.557920455932617 134.3278503417969 9.923260688781738 L 134.3278503417969 13.89256000518799 C 134.3278503417969 14.25790023803711 134.0316162109375 14.55411052703857 133.6662902832031 14.55411052703857 L 131.2886962890625 14.55411052703857 C 131.1070861816406 15.16175079345703 130.8632354736328 15.7490406036377 130.5609893798828 16.30656051635742 L 132.2432861328125 17.9888801574707 C 132.5015258789063 18.24722099304199 132.5015258789063 18.66598129272461 132.2432861328125 18.92432022094727 L 129.4363403320313 21.73194122314453 C 129.3122863769531 21.85597991943359 129.1441192626953 21.9257698059082 128.9686279296875 21.9257698059082 C 128.7931365966797 21.9257698059082 128.6249389648438 21.85597991943359 128.5009155273438 21.73194122314453 L 126.8185882568359 20.04961013793945 C 126.2609634399414 20.35161018371582 125.6737670898438 20.59523010253906 125.0661468505859 20.77666091918945 L 125.0661468505859 23.15427017211914 C 125.0661468505859 23.51960945129395 124.7699508666992 23.81582069396973 124.4045944213867 23.81582069396973 L 120.4352874755859 23.81582069396973 C 120.0699462890625 23.81582069396973 119.7737045288086 23.51960945129395 119.7737045288086 23.15427017211914 L 119.7737045288086 20.77666091918945 C 119.1660842895508 20.59506034851074 118.5787963867188 20.35120010375977 118.0212860107422 20.0489501953125 L 116.3389434814453 21.73194122314453 C 116.2077178955078 21.85601997375488 116.0394744873047 21.91806030273438 115.8712463378906 21.91806030273438 C 115.7030029296875 21.91806030273438 115.5347595214844 21.85601997375488 115.4035339355469 21.73194122314453 L 112.5959014892578 18.92432022094727 C 112.3376617431641 18.66598129272461 112.3376617431641 18.24722099304199 112.5959014892578 17.9888801574707 L 114.2782287597656 16.30656051635742 C 113.9761657714844 15.7490406036377 113.7325286865234 15.16175079345703 113.5511932373047 14.55411052703857 L 111.1735687255859 14.55411052703857 C 110.8082275390625 14.55411052703857 110.5120239257813 14.25790023803711 110.5120239257813 13.89256000518799 L 110.5120239257813 9.923260688781738 C 110.5120239257813 9.557920455932617 110.8082275390625 9.261710166931152 111.1735687255859 9.261710166931152 L 113.5511932373047 9.261710166931152 C 113.7327880859375 8.654069900512695 113.9766540527344 8.066780090332031 114.2789001464844 7.509260177612305 L 112.5959014892578 5.826940536499023 C 112.3376617431641 5.568599700927734 112.3376617431641 5.149839401245117 112.5959014892578 4.891500473022461 L 115.4035339355469 2.084539413452148 C 115.5326995849609 1.955415725708008 115.7019805908203 1.890851974487305 115.8712463378906 1.890851974487305 C 116.04052734375 1.890851974487305 116.2097930908203 1.955415725708008 116.3389434814453 2.084539413452148 L 118.0212860107422 3.766870498657227 C 118.5787353515625 3.464370727539063 119.1660003662109 3.220510482788086 119.7737045288086 3.039159774780273 L 119.7737045288086 0.6615505218505859 C 119.7737045288086 0.2962112426757813 120.0699462890625 0 120.4352874755859 0 Z M 126.927848815918 5.25550651550293 C 126.808235168457 5.25550651550293 126.6878356933594 5.223134994506836 126.5804290771484 5.156789779663086 C 125.8615570068359 4.711980819702148 125.0757293701172 4.385829925537109 124.2530975341797 4.190919876098633 C 123.9543151855469 4.120630264282227 123.7431945800781 3.854110717773438 123.7430267333984 3.547229766845703 L 123.7430267333984 1.323101043701172 L 121.0968399047852 1.323101043701172 L 121.0968399047852 3.547229766845703 C 121.0967407226563 3.853940963745117 120.8858795166016 4.120389938354492 120.5874404907227 4.190919876098633 C 119.7648162841797 4.385829925537109 118.9789505004883 4.711980819702148 118.2600936889648 5.156789779663086 C 118.1526794433594 5.22314453125 118.0323104858398 5.25550651550293 117.9126815795898 5.25550651550293 C 117.7416000366211 5.25550651550293 117.5720520019531 5.189266204833984 117.4443969726563 5.061519622802734 L 115.8705902099609 3.487699508666992 L 113.9990539550781 5.358560562133789 L 115.5728912353516 6.931730270385742 C 115.7899627685547 7.148630142211914 115.8293914794922 7.486351013183594 115.6681671142578 7.747421264648438 C 115.2239990234375 8.466690063476563 114.8979339599609 9.252360343933105 114.7022857666016 10.07474994659424 C 114.6317596435547 10.37320041656494 114.3653106689453 10.58407020568848 114.05859375 10.58415031433105 L 111.835205078125 10.58415031433105 L 111.835205078125 13.23035049438477 L 114.0586853027344 13.23035049438477 C 114.3653869628906 13.23043060302734 114.6318359375 13.44130039215088 114.7023773193359 13.7397403717041 C 114.8980255126953 14.56212997436523 115.2240905761719 15.34781074523926 115.6682281494141 16.06708145141602 C 115.8294830322266 16.32814025878906 115.7900390625 16.66585922241211 115.5729675292969 16.88277053833008 L 113.9991302490234 18.45726013183594 L 115.8713226318359 20.3294506072998 L 117.4444885253906 18.75496101379395 C 117.5721588134766 18.62720108032227 117.7416610717773 18.56097412109375 117.9127655029297 18.56097412109375 C 118.0323791503906 18.56097412109375 118.1527862548828 18.59334564208984 118.2602005004883 18.65969085693359 C 118.9791946411133 19.10441970825195 119.7649688720703 19.43082046508789 120.5875396728516 19.626220703125 C 120.8859634399414 19.6967601776123 121.0968399047852 19.96319961547852 121.0969085693359 20.26991081237793 L 121.0969085693359 22.49271965026855 L 123.7431182861328 22.49271965026855 L 123.7431182861328 20.26925086975098 C 123.7431945800781 19.96253967285156 123.9540557861328 19.69610023498535 124.2525177001953 19.62556076049805 C 125.075080871582 19.43015098571777 125.8608245849609 19.103759765625 126.579833984375 18.65903091430664 C 126.6872634887695 18.59267616271973 126.8076477050781 18.56031036376953 126.9272766113281 18.56031036376953 C 127.0983657836914 18.56031036376953 127.2678909301758 18.62654876708984 127.3955383300781 18.75429916381836 L 128.9687194824219 20.32879066467285 L 130.8408966064453 18.45660018920898 L 129.2670593261719 16.88343048095703 C 129.0500183105469 16.66653060913086 129.0105438232422 16.32880020141602 129.1717834472656 16.06774139404297 C 129.6159362792969 15.34855079650879 129.9420166015625 14.56280040740967 130.1376800537109 13.74041080474854 C 130.2082061767578 13.44196033477783 130.4746398925781 13.23110008239746 130.7813415527344 13.23101043701172 L 133.0048370361328 13.23101043701172 L 133.0048065185547 13.23101043701172 L 133.0048370361328 13.23101043701172 L 133.0048065185547 10.58481025695801 L 130.7813415527344 10.58481025695801 C 130.4746398925781 10.58473014831543 130.2082061767578 10.37386035919189 130.1376800537109 10.07542037963867 C 129.9420166015625 9.253020286560059 129.6159362792969 8.467350006103516 129.1717834472656 7.748081207275391 C 129.0105438232422 7.487020492553711 129.0499877929688 7.149299621582031 129.2670593261719 6.932390213012695 L 130.8408966064453 5.358560562133789 L 128.9692840576172 3.487699508666992 L 127.3961181640625 5.061519622802734 C 127.2684478759766 5.189279556274414 127.0989456176758 5.25550651550293 126.927848815918 5.25550651550293 Z"/></g></g><g transform="translate(14.36 7.939)"><g transform="translate(0)"><g class="a" transform="translate(-206.512 -96)"><path class="b" d="M 210.4809722900391 103.4385986328125 C 208.5681457519531 103.4384078979492 207.0120086669922 101.8821716308594 207.0120086669922 99.96932220458984 C 207.0120086669922 98.05632781982422 208.5683288574219 96.5 210.4813079833984 96.5 C 212.394287109375 96.5 213.9506072998047 98.05632781982422 213.9506072998047 99.96932220458984 C 213.9487152099609 101.8801956176758 212.3921813964844 103.4367294311523 210.4808197021484 103.4385986328125 L 210.4809722900391 103.4385986328125 Z M 210.4813079833984 96.82311248779297 C 208.7464904785156 96.82311248779297 207.3351287841797 98.23448944091797 207.3351287841797 99.96932220458984 C 207.3351287841797 101.7041397094727 208.7464904785156 103.1155090332031 210.4813079833984 103.1155090332031 C 212.2161407470703 103.1155090332031 213.6275177001953 101.7041397094727 213.6275177001953 99.96932220458984 C 213.6275177001953 98.23448944091797 212.2161407470703 96.82311248779297 210.4813079833984 96.82311248779297 Z"/><path class="c" d="M 210.4813079833984 96 C 212.6735382080078 96 214.4506072998047 97.77712249755859 214.4506072998047 99.96932220458984 C 214.4484405517578 102.1605987548828 212.6726226806641 103.9364624023438 210.4813079833984 103.9385986328125 C 208.2891693115234 103.9385986328125 206.5120086669922 102.1615295410156 206.5120086669922 99.96932220458984 C 206.5120086669922 97.77712249755859 208.2891082763672 96 210.4813079833984 96 Z M 210.4813079833984 102.6155090332031 C 211.9427337646484 102.6155090332031 213.1275177001953 101.4307556152344 213.1275177001953 99.96932220458984 C 213.1275177001953 98.50785827636719 211.9427337646484 97.32311248779297 210.4813079833984 97.32311248779297 C 209.0198516845703 97.32311248779297 207.8351287841797 98.50785827636719 207.8351287841797 99.96932220458984 C 207.8351287841797 101.4307556152344 209.0198516845703 102.6155090332031 210.4813079833984 102.6155090332031 Z"/></g></g></g></svg>