<svg xmlns="http://www.w3.org/2000/svg" xmlns:xlink="http://www.w3.org/1999/xlink" width="281.186" height="297.185" viewBox="0 0 281.186 297.185">
  <defs>
    <radialGradient id="radial-gradient" cx="0.5" cy="0.5" r="0.5" gradientTransform="matrix(1, 0, 0, -1, 0, 1)" gradientUnits="objectBoundingBox">
      <stop offset="0" stop-color="#ff50a0" stop-opacity="0"/>
      <stop offset="0.824" stop-color="#ff50a0" stop-opacity="0.141"/>
      <stop offset="1" stop-color="#ff50a0" stop-opacity="0.439"/>
    </radialGradient>
    <radialGradient id="radial-gradient-2" gradientTransform="matrix(1, 0, 0, 1, 0, 0)" xlink:href="#radial-gradient"/>
  </defs>
  <g id="Group_1917" data-name="Group 1917" transform="translate(-1777.497 -5481.318)">
    <g id="Group_1906" data-name="Group 1906" transform="translate(1882.497 5751.607) rotate(-71)">
      <ellipse id="Ellipse_405" data-name="Ellipse 405" cx="41.306" cy="41.306" rx="41.306" ry="41.306" transform="translate(0 0)" fill="url(#radial-gradient)"/>
      <path id="Subtraction_25" data-name="Subtraction 25" d="M11.986,0h0a27.33,27.33,0,0,1-.751,13.338A26.437,26.437,0,0,1,0,28.231a19.827,19.827,0,0,0,5.7-2.738,19.963,19.963,0,0,0,4.508-4.322,19.763,19.763,0,0,0,2.965-5.553,19.781,19.781,0,0,0,1.067-6.431,19.9,19.9,0,0,0-.587-4.806A19.728,19.728,0,0,0,11.986,0Z" transform="translate(62.617 40.343)" fill="#fff"/>
    </g>
    <g id="Group_1916" data-name="Group 1916">
      <g id="Group_1587" data-name="Group 1587" transform="translate(2491.342 6931.065) rotate(-135)">
        <circle id="Ellipse_405-2" data-name="Ellipse 405" cx="98.063" cy="98.063" r="98.063" transform="translate(1233 425)" fill="url(#radial-gradient-2)"/>
        <path id="Subtraction_25-2" data-name="Subtraction 25" d="M28.455,67.022h0a64.886,64.886,0,0,0-1.782-31.665C22.06,20.312,12.338,7.425,0,0A47.071,47.071,0,0,1,13.528,6.5a47.4,47.4,0,0,1,10.7,10.261A46.928,46.928,0,0,1,31.27,29.946,46.968,46.968,0,0,1,33.8,45.214a47.234,47.234,0,0,1-1.394,11.41A46.843,46.843,0,0,1,28.455,67.022Z" transform="translate(1381.659 458.328)" fill="#fff"/>
      </g>
      <ellipse id="Ellipse_405-3" data-name="Ellipse 405" cx="41.306" cy="41.306" rx="41.306" ry="41.306" transform="translate(1777.497 5581.607) rotate(-71)" fill="url(#radial-gradient)"/>
    </g>
  </g>
</svg>
