<svg xmlns="http://www.w3.org/2000/svg" xmlns:xlink="http://www.w3.org/1999/xlink" width="346.576" height="335.576" viewBox="0 0 346.576 335.576">
  <defs>
    <radialGradient id="radial-gradient" cx="0.5" cy="0.5" r="0.5" gradientUnits="objectBoundingBox">
      <stop offset="0" stop-color="#ff50a0" stop-opacity="0"/>
      <stop offset="0.824" stop-color="#ff50a0" stop-opacity="0.141"/>
      <stop offset="1" stop-color="#ff50a0" stop-opacity="0.439"/>
    </radialGradient>
  </defs>
  <g id="Group_1920" data-name="Group 1920" transform="translate(-1723.497 -1974.928)">
    <circle id="Ellipse_405" data-name="Ellipse 405" cx="41.306" cy="41.306" r="41.306" transform="translate(1848.392 2310.503) rotate(-109)" fill="url(#radial-gradient)"/>
    <g id="Group_1919" data-name="Group 1919">
      <g id="Group_1585" data-name="Group 1585" transform="translate(1838.946 3589.263) rotate(-109)">
        <circle id="Ellipse_405-2" data-name="Ellipse 405" cx="122" cy="122" r="122" transform="translate(1233 425)" fill="url(#radial-gradient)"/>
        <path id="Subtraction_25" data-name="Subtraction 25" d="M-2731.794,116.99h0a80.722,80.722,0,0,0-2.218-39.394c-5.737-18.717-17.832-34.749-33.182-43.987a58.562,58.562,0,0,1,16.83,8.087,58.967,58.967,0,0,1,13.316,12.766,58.375,58.375,0,0,1,8.757,16.4,58.429,58.429,0,0,1,3.151,19,58.759,58.759,0,0,1-1.734,14.2A58.268,58.268,0,0,1-2731.794,116.99Z" transform="translate(4185.141 432.854)" fill="#fff"/>
      </g>
      <circle id="Ellipse_405-3" data-name="Ellipse 405" cx="41.306" cy="41.306" r="41.306" transform="translate(1750.392 2223.503) rotate(-109)" fill="url(#radial-gradient)"/>
    </g>
  </g>
</svg>
