<svg xmlns="http://www.w3.org/2000/svg" width="31.227" height="31.227" viewBox="0 0 31.227 31.227"><defs><style>.a{fill:#fff;}</style></defs><path class="a" d="M5.492,24.149a2.546,2.546,0,0,0-1.23.314A14.4,14.4,0,0,1,18.48,1.5a.61.61,0,0,0,.242-1.2A15.73,15.73,0,0,0,15.613,0,15.614,15.614,0,0,0,3.36,25.289a2.563,2.563,0,1,0,2.132-1.141Zm.949,3.51a1.342,1.342,0,1,1,.393-.949A1.332,1.332,0,0,1,6.441,27.659Zm0,0" transform="translate(0 0.001)"/><path class="a" d="M213.306,36.033a2.556,2.556,0,1,0-.9.827,14.4,14.4,0,0,1-14.191,22.964.61.61,0,1,0-.239,1.2,15.74,15.74,0,0,0,3.079.3,15.614,15.614,0,0,0,12.253-25.291Zm-3.081-.471a1.342,1.342,0,1,1,.949.393A1.333,1.333,0,0,1,210.225,35.561Zm0,0" transform="translate(-185.439 -30.096)"/><path class="a" d="M82.569,95.591a.61.61,0,0,0,.61.61h3.814a.61.61,0,0,0,.61-.61V94.408a9.551,9.551,0,0,0,2.289-.949l.835.835a.61.61,0,0,0,.863,0l2.7-2.7a.61.61,0,0,0,0-.862L93.45,89.9a9.551,9.551,0,0,0,.949-2.289h1.178a.61.61,0,0,0,.61-.61V83.188a.61.61,0,0,0-.61-.61H94.4a9.552,9.552,0,0,0-.948-2.289l.829-.829a.61.61,0,0,0,0-.863l-2.7-2.7a.61.61,0,0,0-.862,0l-.828.828a9.551,9.551,0,0,0-2.289-.949V74.61a.61.61,0,0,0-.61-.61H83.179a.61.61,0,0,0-.61.61v1.172a9.543,9.543,0,0,0-2.289.948l-.828-.828a.61.61,0,0,0-.862,0l-2.7,2.7a.61.61,0,0,0,0,.863l.829.829a9.55,9.55,0,0,0-.949,2.289H74.6a.61.61,0,0,0-.61.61l0,3.814a.61.61,0,0,0,.61.61h1.178a9.552,9.552,0,0,0,.949,2.289l-.834.834a.61.61,0,0,0,0,.862l2.7,2.7a.61.61,0,0,0,.431.179h0a.61.61,0,0,0,.431-.179l.835-.835a9.559,9.559,0,0,0,2.289.949Zm-2.05-3.414a.61.61,0,0,0-.762.081L79.014,93,77.18,91.166l.742-.742A.61.61,0,0,0,78,89.662a8.348,8.348,0,0,1-1.155-2.788.61.61,0,0,0-.6-.482H75.2V83.8h1.046a.61.61,0,0,0,.6-.482A8.349,8.349,0,0,1,78,80.528a.61.61,0,0,0-.081-.762l-.737-.737L79.02,77.2l.736.737a.61.61,0,0,0,.762.081,8.345,8.345,0,0,1,2.788-1.155.61.61,0,0,0,.482-.6V75.22h2.594v1.041a.61.61,0,0,0,.482.6,8.352,8.352,0,0,1,2.788,1.155.609.609,0,0,0,.762-.081l.737-.736,1.835,1.833-.737.737a.61.61,0,0,0-.081.762,8.354,8.354,0,0,1,1.155,2.788.61.61,0,0,0,.6.482h1.048v2.594H93.919a.61.61,0,0,0-.6.482,8.347,8.347,0,0,1-1.155,2.788.61.61,0,0,0,.081.762l.742.742L91.157,93l-.743-.742a.61.61,0,0,0-.762-.081,8.354,8.354,0,0,1-2.788,1.155.61.61,0,0,0-.482.6v1.052H83.788V93.929a.61.61,0,0,0-.482-.6A8.349,8.349,0,0,1,80.519,92.177Zm0,0" transform="translate(-69.472 -69.487)"/><path class="a" d="M183.45,178.411a5.04,5.04,0,1,0-5.04,5.04A5.045,5.045,0,0,0,183.45,178.411Zm-8.859,0a3.82,3.82,0,1,1,3.82,3.82A3.824,3.824,0,0,1,174.591,178.411Zm0,0" transform="translate(-162.797 -162.797)"/><path class="a" d="M338.688,19.029a.61.61,0,1,0-.431-.179A.614.614,0,0,0,338.688,19.029Zm0,0" transform="translate(-317.458 -16.722)"/><path class="a" d="M154.969,474.359a.61.61,0,1,0,.431.179A.615.615,0,0,0,154.969,474.359Zm0,0" transform="translate(-144.944 -445.427)"/></svg>