<svg xmlns="http://www.w3.org/2000/svg" width="53.27" height="52.869" viewBox="0 0 53.27 52.869"><defs><style>.a{fill:#0d13d7;}</style></defs><g transform="translate(0 -0.181)"><path class="a" d="M14.61,9.09l19.554,3.884a3.279,3.279,0,0,1,2.641,3.241v22.64a3.325,3.325,0,0,1-3.329,3.329H13.5a1.1,1.1,0,0,0,1.11-1.11v-1.11H33.476a1.113,1.113,0,0,0,1.11-1.11V16.215a1.115,1.115,0,0,0-.866-1.088L14.61,11.354Z" transform="translate(16.464 10.866)"/><path class="a" d="M22.549,14a1.11,1.11,0,0,1,0,2.22H18.11a1.11,1.11,0,0,1,0-2.22Z" transform="translate(20.733 16.854)"/><path class="a" d="M22.549,17a1.11,1.11,0,0,1,0,2.22H18.11a1.11,1.11,0,0,1,0-2.22Z" transform="translate(20.733 20.512)"/><path class="a" d="M22.549,20a1.11,1.11,0,0,1,0,2.22H18.11a1.11,1.11,0,0,1,0-2.22Z" transform="translate(20.733 24.171)"/><path class="a" d="M15.22,41.184a1.11,1.11,0,0,1-2.22,0V10.11a1.18,1.18,0,0,1,.4-.866,1.166,1.166,0,0,1,.932-.222l.888.178V41.184Z" transform="translate(15.854 10.756)"/><path class="a" d="M17.268,23v1.11a1.1,1.1,0,0,0,1.11,1.11H9.5a1.1,1.1,0,0,0,1.11-1.11V23Z" transform="translate(11.586 27.83)"/><path class="a" d="M13.549,5a1.11,1.11,0,0,1,0,2.22H9.11A1.11,1.11,0,0,1,9.11,5Z" transform="translate(9.757 5.878)"/><path class="a" d="M14.659,9.11a1.1,1.1,0,0,1-1.11,1.11H9.11A1.11,1.11,0,0,1,9.11,8h4.439A1.1,1.1,0,0,1,14.659,9.11Z" transform="translate(9.757 9.536)"/><path class="a" d="M13.549,11a1.11,1.11,0,0,1,0,2.22H9.11a1.11,1.11,0,0,1,0-2.22Z" transform="translate(9.757 13.195)"/><path class="a" d="M13.549,14a1.11,1.11,0,0,1,0,2.22H9.11a1.11,1.11,0,0,1,0-2.22Z" transform="translate(9.757 16.854)"/><path class="a" d="M9.659,15.11a1.1,1.1,0,0,1-1.11,1.11H4.11a1.11,1.11,0,0,1,0-2.22H8.549A1.1,1.1,0,0,1,9.659,15.11Z" transform="translate(3.659 16.854)"/><path class="a" d="M8.549,5a1.11,1.11,0,0,1,0,2.22H4.11A1.11,1.11,0,1,1,4.11,5Z" transform="translate(3.659 5.878)"/><path class="a" d="M8.549,8a1.11,1.11,0,0,1,0,2.22H4.11A1.11,1.11,0,1,1,4.11,8Z" transform="translate(3.659 9.536)"/><path class="a" d="M8.549,11a1.11,1.11,0,1,1,0,2.22H4.11a1.11,1.11,0,1,1,0-2.22Z" transform="translate(3.659 13.195)"/><path class="a" d="M15.1,20.329a1.113,1.113,0,0,0-1.11-1.11H7.329a1.1,1.1,0,0,0-1.11,1.11v9.988H4V20.329A3.325,3.325,0,0,1,7.329,17h6.659a3.325,3.325,0,0,1,3.329,3.329v9.988H15.1Z" transform="translate(4.878 20.512)"/><path class="a" d="M6.22,23h11.1v1.11a1.1,1.1,0,0,1-1.11,1.11H5.11A1.1,1.1,0,0,1,4,24.11V23Z" transform="translate(4.878 27.83)"/><path class="a" d="M3.884.224,28.277,3.93a3.317,3.317,0,0,1,2.8,3.285v12.74l-.888-.178a1.166,1.166,0,0,0-.932.222,1.18,1.18,0,0,0-.4.866V7.215a1.122,1.122,0,0,0-.932-1.11L3.529,2.421a.614.614,0,0,0-.2-.022,1.047,1.047,0,0,0-.71.266,1.061,1.061,0,0,0-.4.843V49.72a1.113,1.113,0,0,0,1.11,1.11H8.878v1.11a1.1,1.1,0,0,0,1.11,1.11H3.329A3.325,3.325,0,0,1,0,49.72V3.509A3.268,3.268,0,0,1,1.176.978,3.332,3.332,0,0,1,3.884.224Z"/></g></svg>