<svg xmlns="http://www.w3.org/2000/svg" width="100" height="96.647" viewBox="0 0 100 96.647">
  <g id="chemotherapy" transform="translate(-1 -1)">
    <g id="Group_17" data-name="Group 17" transform="translate(2.559 2.559)">
      <g id="Group_1" data-name="Group 1" transform="translate(10.912)">
        <path id="Path_1" data-name="Path 1" d="M21.486,14.471h-.016l-1.933.966a7.786,7.786,0,0,0-4.3,6.828H13.676a4.637,4.637,0,0,0-3.2,1.263L9.452,19.412A15.594,15.594,0,0,1,9,15.7,13.731,13.731,0,0,1,22.7,2h6.89a13.711,13.711,0,0,1,13.7,13.7,15.6,15.6,0,0,1-.452,3.71l-1.029,4.115a4.637,4.637,0,0,0-3.2-1.263H37.059v-2a2.681,2.681,0,0,0-2.681-2.681,2.511,2.511,0,0,0-.842.14l-1.45.483a18.288,18.288,0,0,1-5.8.935,4.819,4.819,0,0,1-3.414-1.4,4.935,4.935,0,0,1-1.387-3.274Z" transform="translate(-9 -2)" fill="#b27946"/>
      </g>
      <g id="Group_2" data-name="Group 2" transform="translate(0 42.088)">
        <path id="Path_2" data-name="Path 2" d="M55.063,36.093a13.917,13.917,0,0,0-8.168-4.973L36.294,29l-3.881,6.454a2.737,2.737,0,0,1-4.708,0L23.824,29l-10.6,2.12A13.959,13.959,0,0,0,2,44.807V55.5H14.471V80.441H45.647V67.971H25.382a4.676,4.676,0,0,1,0-9.353l.717-1.45A3.018,3.018,0,0,1,28.812,55.5a2.862,2.862,0,0,1,1.247.281,2.823,2.823,0,0,1,.889.608l2.229,2.229H45.647V55.5H58.118V44.807A13.926,13.926,0,0,0,55.063,36.093Z" transform="translate(-2 -29)" fill="#7ece5c"/>
      </g>
      <g id="Group_3" data-name="Group 3" transform="translate(3.118 68.589)">
        <path id="Path_3" data-name="Path 3" d="M4,46h9.353V70.941H4Z" transform="translate(-4 -46)" fill="#f0d0b4"/>
      </g>
      <g id="Group_4" data-name="Group 4" transform="translate(18.706 68.589)">
        <path id="Path_4" data-name="Path 4" d="M48.294,52.235a6.234,6.234,0,0,1-6.235,6.235H18.676a4.676,4.676,0,0,1,0-9.353l.717-1.45A3.017,3.017,0,0,1,22.106,46a2.861,2.861,0,0,1,1.247.281,2.822,2.822,0,0,1,.889.608l2.229,2.229H38.941V46h9.353Z" transform="translate(-14 -46)" fill="#f0d0b4"/>
      </g>
      <g id="Group_5" data-name="Group 5" transform="translate(38.519 20.265)">
        <path id="Path_5" data-name="Path 5" d="M31.917,16.263a4.678,4.678,0,0,1-3.2,8.09H26.71a10.769,10.769,0,0,0,.452-3.118V15h1.559a4.637,4.637,0,0,1,3.2,1.263Z" transform="translate(-26.71 -15)" fill="#f0d0b4"/>
      </g>
      <g id="Group_6" data-name="Group 6" transform="translate(21.824 36.305)">
        <path id="Path_6" data-name="Path 6" d="M27.021,25.29l1.45,5.783-3.881,6.454a2.737,2.737,0,0,1-4.708,0L16,31.073l1.45-5.783a10.9,10.9,0,0,0,9.571,0Z" transform="translate(-16 -25.29)" fill="#f0d0b4"/>
      </g>
      <g id="Group_7" data-name="Group 7" transform="translate(17.147 12.471)">
        <path id="Path_7" data-name="Path 7" d="M34.824,17.794v6.235a10.769,10.769,0,0,1-.452,3.118A10.918,10.918,0,0,1,28.7,33.835a10.9,10.9,0,0,1-9.571,0A10.889,10.889,0,0,1,13,24.029V17.794a7.786,7.786,0,0,1,4.3-6.828L19.235,10h.016a4.935,4.935,0,0,0,1.387,3.274,4.819,4.819,0,0,0,3.414,1.4,18.288,18.288,0,0,0,5.8-.935l1.45-.483a2.511,2.511,0,0,1,.842-.14A2.681,2.681,0,0,1,34.824,15.8Z" transform="translate(-13 -10)" fill="#f0d0b4"/>
      </g>
      <g id="Group_8" data-name="Group 8" transform="translate(10.912 20.265)">
        <path id="Path_8" data-name="Path 8" d="M15.687,24.353H13.676a4.676,4.676,0,0,1,0-9.353h1.559v6.235A10.769,10.769,0,0,0,15.687,24.353Z" transform="translate(-9 -15)" fill="#f0d0b4"/>
      </g>
      <g id="Group_9" data-name="Group 9" transform="translate(73.265 53)">
        <path id="Path_9" data-name="Path 9" d="M55.235,36v6.235a3.14,3.14,0,0,1-3.118,3.118A3.127,3.127,0,0,1,49,42.235V36Z" transform="translate(-49 -36)" fill="#ccd1d9"/>
      </g>
      <g id="Group_10" data-name="Group 10" transform="translate(59.236)">
        <path id="Path_10" data-name="Path 10" d="M74.294,3.559V6.676a1.563,1.563,0,0,1-1.559,1.559H41.559A1.563,1.563,0,0,1,40,6.676V3.559A1.563,1.563,0,0,1,41.559,2H72.735A1.563,1.563,0,0,1,74.294,3.559Z" transform="translate(-40 -2)" fill="#ccd1d9"/>
      </g>
      <g id="Group_11" data-name="Group 11" transform="translate(70.147 46.625)">
        <path id="Path_11" data-name="Path 11" d="M59.471,32.05v3.118a3.127,3.127,0,0,1-3.118,3.118H50.118A3.127,3.127,0,0,1,47,35.168V32.05l.016-.14a8.358,8.358,0,0,0,1.543.14h9.353a8.358,8.358,0,0,0,1.543-.14Z" transform="translate(-47 -31.91)" fill="#ccd1d9"/>
      </g>
      <g id="Group_12" data-name="Group 12" transform="translate(62.353 6.235)">
        <path id="Path_12" data-name="Path 12" d="M70.059,6V16.46a12.474,12.474,0,0,0-21.434,5.129H42V6Z" transform="translate(-42 -6)" fill="#e6e9ed"/>
      </g>
      <g id="Group_13" data-name="Group 13" transform="translate(62.353 28.059)">
        <path id="Path_13" data-name="Path 13" d="M70.059,25.129v4.224a9.351,9.351,0,0,1-7.81,9.213,8.358,8.358,0,0,1-1.543.14H51.353a8.358,8.358,0,0,1-1.543-.14A9.351,9.351,0,0,1,42,29.353V20h6.625a12.474,12.474,0,0,0,21.434,5.129Z" transform="translate(-42 -20)" fill="#e6e9ed"/>
      </g>
      <g id="Group_14" data-name="Group 14" transform="translate(62.353 21.824)">
        <path id="Path_14" data-name="Path 14" d="M42,16h6.625a12.665,12.665,0,0,0,0,6.235H42Z" transform="translate(-42 -16)" fill="#dfb28b"/>
      </g>
      <g id="Group_15" data-name="Group 15" transform="translate(68.589 12.471)">
        <path id="Path_15" data-name="Path 15" d="M67.824,14.224A12.472,12.472,0,1,1,46.39,25.588a12.665,12.665,0,0,1,0-6.235,12.474,12.474,0,0,1,21.434-5.129Z" transform="translate(-46 -10)" fill="#f0d0b4"/>
      </g>
      <g id="Group_16" data-name="Group 16" transform="translate(74.824 18.706)">
        <path id="Path_16" data-name="Path 16" d="M62.471,18.676v3.118a1.563,1.563,0,0,1-1.559,1.559H59.353v1.559a1.563,1.563,0,0,1-1.559,1.559H54.676a1.563,1.563,0,0,1-1.559-1.559V23.353H51.559A1.563,1.563,0,0,1,50,21.794V18.676a1.563,1.563,0,0,1,1.559-1.559h1.559V15.559A1.563,1.563,0,0,1,54.676,14h3.118a1.563,1.563,0,0,1,1.559,1.559v1.559h1.559A1.563,1.563,0,0,1,62.471,18.676Z" transform="translate(-50 -14)" fill="#fc7070"/>
      </g>
    </g>
    <g id="Group_18" data-name="Group 18" transform="translate(1 1)">
      <circle id="Ellipse_1" data-name="Ellipse 1" cx="1.48" cy="1.48" r="1.48" transform="translate(23.794 23.653)"/>
      <circle id="Ellipse_2" data-name="Ellipse 2" cx="1.48" cy="1.48" r="1.48" transform="translate(32.676 23.653)"/>
      <path id="Path_17" data-name="Path 17" d="M28.082,21.276l.164-.329-2.789-1.4-.164.33a3.486,3.486,0,0,1-6.235,0l-.164-.329-2.789,1.4.164.327a6.6,6.6,0,0,0,11.813,0Z" transform="translate(7.442 9.367)"/>
      <path id="Path_18" data-name="Path 18" d="M61.471,16.118A3.121,3.121,0,0,0,58.353,13H55.235a3.121,3.121,0,0,0-3.118,3.118A3.121,3.121,0,0,0,49,19.235v3.118a3.121,3.121,0,0,0,3.118,3.118,3.121,3.121,0,0,0,3.118,3.118h3.118a3.121,3.121,0,0,0,3.118-3.118,3.121,3.121,0,0,0,3.118-3.118V19.235A3.121,3.121,0,0,0,61.471,16.118Zm0,6.235H58.353v3.118H55.235V22.353H52.118V19.235h3.118V16.118h3.118v3.118l3.118,0Z" transform="translate(25.824 5.706)"/>
      <path id="Path_19" data-name="Path 19" d="M101,8.551,97.647,4.118A3.121,3.121,0,0,0,94.53,1H63.353a3.121,3.121,0,0,0-3.118,3.118V7.235a3.121,3.121,0,0,0,3.118,3.118V39.971a10.928,10.928,0,0,0,7.794,10.452v2.019a4.67,4.67,0,0,0,3.118,4.39v4.963a4.67,4.67,0,0,0,3.118,4.39V89.853a1.559,1.559,0,0,1-3.118,0V86.736a4.676,4.676,0,1,0-9.353,0v6.235a1.559,1.559,0,0,1-3.118,0V80.5a4.682,4.682,0,0,0-4.676-4.676V72.706h3.118V60.455A15.517,15.517,0,0,0,47.762,45.24l-9.637-1.927L37.2,39.629a12.53,12.53,0,0,0,4.965-5.892h.92a6.2,6.2,0,0,0,4.9-10.048l.837-3.341a16.947,16.947,0,0,0,.5-4.081A15.285,15.285,0,0,0,34.057,1H27.179A15.285,15.285,0,0,0,11.912,16.267a16.881,16.881,0,0,0,.5,4.081l.836,3.337a6.2,6.2,0,0,0,4.9,10.05h.918a12.523,12.523,0,0,0,4.965,5.892l-.921,3.684L13.474,45.24A15.517,15.517,0,0,0,1,60.455V72.706H4.118V97.647H47.765V85.177h1.559a7.809,7.809,0,0,0,7.637-6.235h.157A1.56,1.56,0,0,1,58.677,80.5V92.971a4.676,4.676,0,0,0,9.353,0V86.736a1.559,1.559,0,0,1,3.118,0v3.118a4.676,4.676,0,0,0,9.353,0V66.184a4.67,4.67,0,0,0,3.118-4.39V56.831a4.67,4.67,0,0,0,3.118-4.39V50.423A10.927,10.927,0,0,0,94.53,39.971V36.3a13.973,13.973,0,0,0,0-17.6V10.353c1.719,0,6.47-.083,6.47-1.8ZM54.4,52.71a12.445,12.445,0,0,1,2.717,7.746v9.133H47.765v-2.75a13.284,13.284,0,0,1,1.4-5.906l-2.789-1.394a16.4,16.4,0,0,0-1.724,7.3v5.867H34.381L32.6,70.929a4.347,4.347,0,0,0-.427-.349V66.471h3.118V63.353H32.177V60.236h3.118V57.118H32.177v-3.45a4.293,4.293,0,0,0,2.139-1.761l3.309-5.517,9.524,1.9A12.431,12.431,0,0,1,54.4,52.71ZM43.088,30.618h-.108a12.542,12.542,0,0,0,.108-1.559V24.382a3.118,3.118,0,1,1,0,6.235Zm-24.941,0a3.118,3.118,0,1,1,0-6.235v4.676a12.544,12.544,0,0,0,.108,1.559Zm.171-9.353h-.171a6.191,6.191,0,0,0-2.187.416l-.522-2.087a13.784,13.784,0,0,1-.408-3.327,12.164,12.164,0,0,1,12.15-12.15h6.878a12.164,12.164,0,0,1,12.15,12.15,13.772,13.772,0,0,1-.408,3.325l-.522,2.089a6.185,6.185,0,0,0-2.187-.416V20.83a4.247,4.247,0,0,0-4.242-4.242,4.194,4.194,0,0,0-1.341.218l-1.44.48a16.786,16.786,0,0,1-5.308.86A3.258,3.258,0,0,1,29.3,11.976l.455-.228-1.4-2.789-.455.228a6.335,6.335,0,0,0-3.468,4.853l-1.122.56a9.278,9.278,0,0,0-5,6.666Zm2.946,7.794v-6.1a6.2,6.2,0,0,1,3.447-5.577l.15-.075a6.385,6.385,0,0,0,5.9,3.953,19.923,19.923,0,0,0,6.295-1.021l1.442-.48a1.15,1.15,0,0,1,1.476,1.066v8.229a9.353,9.353,0,1,1-18.706,0ZM30.618,41.53a12.423,12.423,0,0,0,3.71-.564l.857,3.433-3.542,5.9a1.246,1.246,0,0,1-2.048,0L26.05,44.4l.857-3.433a12.423,12.423,0,0,0,3.71.564ZM4.118,60.455A12.4,12.4,0,0,1,14.085,48.3l9.524-1.9,3.309,5.517a4.293,4.293,0,0,0,2.139,1.761v3.448H25.94v3.118h3.118v3.118H25.94v3.118h3.118V69.61a4.546,4.546,0,0,0-3.788,2.51l-.334.667a6.236,6.236,0,0,0,1.005,12.39h3.118V94.53H16.588V66.839a16.424,16.424,0,0,0-1.723-7.3l-2.789,1.394a13.3,13.3,0,0,1,1.394,5.906v2.75H4.118ZM7.235,72.706h6.235V94.53H7.235ZM44.647,94.53H32.177V85.177H44.647Zm4.676-12.471H25.941a3.118,3.118,0,0,1,0-6.235H26.9l1.155-2.31a1.515,1.515,0,0,1,2.34-.38l2.691,2.691H47.765V72.706H54v3.118a9.359,9.359,0,0,1-.529,3.032C52.947,80.072,51.353,82.059,49.324,82.059ZM63.353,4.118H94.53l0,3.118H63.353Zm6.327,24.941h-3.21V25.941h3.21a13.256,13.256,0,0,0,0,3.118Zm9.261,34.294a1.56,1.56,0,0,1-1.559-1.559V57.118H80.5v4.676A1.56,1.56,0,0,1,78.942,63.353Zm4.676-10.912A1.56,1.56,0,0,1,82.059,54H75.824a1.56,1.56,0,0,1-1.559-1.559V50.883h9.353Zm0-4.676H74.265a7.8,7.8,0,0,1-7.794-7.794V32.177h3.936a14,14,0,0,0,21.005,6.98v.814A7.8,7.8,0,0,1,83.618,47.765Zm0-9.353A10.912,10.912,0,1,1,94.53,27.5,10.925,10.925,0,0,1,83.618,38.412Zm7.794-22.569a14,14,0,0,0-21.005,6.98H66.471V10.353H91.412Z" transform="translate(-1 -1)"/>
    </g>
  </g>
</svg>
