<svg xmlns="http://www.w3.org/2000/svg" width="88.691" height="100" viewBox="0 0 88.691 100">
  <g id="doctor" transform="translate(-28.952)">
    <g id="Group_19" data-name="Group 19" transform="translate(50.182 26.985)">
      <path id="Path_20" data-name="Path 20" d="M143.869,143.642v-5.479h-3.342a2.877,2.877,0,0,0-2.878,2.878v2.226a2.877,2.877,0,0,0,2.878,2.878h3.342Z" transform="translate(-137.649 -138.163)" fill="#f4d5ba"/>
      <path id="Path_21" data-name="Path 21" d="M345.848,138.163h-3.342v7.981h3.342a2.878,2.878,0,0,0,2.878-2.878v-2.226A2.878,2.878,0,0,0,345.848,138.163Z" transform="translate(-302.495 -138.163)" fill="#f4d5ba"/>
    </g>
    <path id="Path_22" data-name="Path 22" d="M192.448,257.988l10.311-9.685-4.094-.761c-1.976-.4-3.4-2.689-3.4-4.7v-8.981H176.121v8.981c0,2.015-1.421,4.307-3.4,4.7l-4.094.761,10.311,9.685A9.864,9.864,0,0,0,192.448,257.988Z" transform="translate(-112.397 -188.182)" fill="#ffe7cf"/>
    <path id="Path_23" data-name="Path 23" d="M281.276,233.856v13.618c0,2.015,1.421,4.307,3.4,4.7l3.528,1.01,5.2-4.887-4.094-.761c-1.976-.4-3.4-2.689-3.4-4.7v-8.981h-4.637Z" transform="translate(-203.042 -188.181)" fill="#f4d5ba"/>
    <path id="Path_24" data-name="Path 24" d="M91.281,299.339l-11.952,8.933-11.952-8.933a2.521,2.521,0,0,0-2.237-.394L45.06,305a5.95,5.95,0,0,0-4.146,4.694L36.49,335.6a2.918,2.918,0,0,0,2.877,3.41h79.925a2.918,2.918,0,0,0,2.877-3.41l-4.424-25.9A5.95,5.95,0,0,0,113.6,305l-20.08-6.059A2.52,2.52,0,0,0,91.281,299.339Z" transform="translate(-6.032 -240.471)" fill="#24d9de"/>
    <g id="Group_20" data-name="Group 20" transform="translate(55.654 58.367)">
      <path id="Path_25" data-name="Path 25" d="M169.12,298.945l-3.454,1.042,7.624,10.668a2.2,2.2,0,0,0,2.653.746l7.367-3.129h0l-11.952-8.933A2.52,2.52,0,0,0,169.12,298.945Z" transform="translate(-165.666 -298.837)" fill="#d0d1d2"/>
      <path id="Path_26" data-name="Path 26" d="M263.367,311.4a2.2,2.2,0,0,0,2.653-.746l7.624-10.668-.018-.005-3.436-1.037a2.521,2.521,0,0,0-2.237.394L256,308.274h0Z" transform="translate(-238.357 -298.839)" fill="#d0d1d2"/>
    </g>
    <g id="Group_21" data-name="Group 21" transform="translate(66.446 67.802)">
      <path id="Path_27" data-name="Path 27" d="M232.132,347.145l-5.793,2.461,3.387,3.937h4.813l3.387-3.937Z" transform="translate(-225.281 -347.145)" fill="#f9644b"/>
      <path id="Path_28" data-name="Path 28" d="M230.18,379.9h-4.813l-4.445,24.336h13.7Z" transform="translate(-220.922 -373.504)" fill="#f9644b"/>
    </g>
    <path id="Path_29" data-name="Path 29" d="M194.316,32.811c-2.882-2.482-6.934-2.321-12.286-2.38-5.352.06-9.4-.1-12.286,2.38a16.737,16.737,0,0,0-5.668,12.718v14.1c0,4.851,6.1,17.72,17.954,17.72s17.954-12.868,17.954-17.72v-14.1A16.738,16.738,0,0,0,194.316,32.811Z" transform="translate(-108.733 -24.487)" fill="#ffe7cf"/>
    <path id="Path_30" data-name="Path 30" d="M248.377,34.852a8.786,8.786,0,0,0-4-1.885c0,.007,0,.014,0,.021V61.672c0,4.142-4.445,14.124-13.121,16.957a15.482,15.482,0,0,0,4.832.763c11.856,0,17.954-12.868,17.954-17.72V47.57A16.739,16.739,0,0,0,248.377,34.852Z" transform="translate(-162.794 -26.528)" fill="#f4d5ba"/>
    <path id="Path_31" data-name="Path 31" d="M79.329,334.926S65.906,299.151,65.14,299.382l-20.08,6.059a5.95,5.95,0,0,0-4.146,4.694l-4.424,25.9a2.918,2.918,0,0,0,2.877,3.41h79.925a2.918,2.918,0,0,0,2.877-3.41l-4.424-25.9a5.95,5.95,0,0,0-4.146-4.694l-20.08-6.059C92.752,299.151,79.329,334.926,79.329,334.926Z" transform="translate(-6.032 -240.908)" fill="#e1effb"/>
    <path id="Path_32" data-name="Path 32" d="M345.322,336.035l-4.424-25.9a5.949,5.949,0,0,0-4.146-4.694l-20.08-6.059c-.208-.063-1.352,2.535-2.907,6.352l14.563,4.394a3.031,3.031,0,0,1,2.112,2.392l4.6,26.924h7.405A2.918,2.918,0,0,0,345.322,336.035Z" transform="translate(-229.186 -240.909)" fill="#caddea"/>
    <path id="Path_33" data-name="Path 33" d="M180.838,7.5h-21.6a10.064,10.064,0,0,0-10.064,10.064V34.083a6.949,6.949,0,0,1,4.552,1.7.589.589,0,0,0,1-.423V21.841a4.448,4.448,0,0,1,4.448-4.448h4.042a4.6,4.6,0,0,1,2.908,1.037l.4.324a5.555,5.555,0,0,0,7.032,0l.4-.324a4.6,4.6,0,0,1,2.908-1.037H180.9a4.448,4.448,0,0,1,4.448,4.448V35.36a.589.589,0,0,0,1,.423,6.949,6.949,0,0,1,4.552-1.7V17.561A10.064,10.064,0,0,0,180.838,7.5Z" transform="translate(-96.739 -6.033)" fill="#ffb125"/>
    <path id="Path_34" data-name="Path 34" d="M271.481,7.5h-9.665a10.062,10.062,0,0,1,10.06,9.909,4.448,4.448,0,0,1,4.115,4.435V35.36a.589.589,0,0,0,1,.423,6.949,6.949,0,0,1,4.552-1.7V17.561A10.064,10.064,0,0,0,271.481,7.5Z" transform="translate(-187.383 -6.033)" fill="#ff901d"/>
    <circle id="Ellipse_3" data-name="Ellipse 3" cx="6.113" cy="6.113" r="6.113" transform="translate(88.512 71.693)" fill="#1785b8"/>
    <circle id="Ellipse_4" data-name="Ellipse 4" cx="2.693" cy="2.693" r="2.693" transform="translate(91.933 75.114)" fill="#e1effb"/>
    <path id="Path_35" data-name="Path 35" d="M117.58,94.879l-4.424-25.9a7.372,7.372,0,0,0-5.167-5.85l-11.932-3.6a13.309,13.309,0,0,0-9.235-11.557c.378-.419.728-.837,1.049-1.246a23.16,23.16,0,0,0,4.743-10.3h.921a4.347,4.347,0,0,0,4.342-4.342V29.862a4.372,4.372,0,0,0-2.251-3.8V20.713a1.464,1.464,0,1,0-2.929,0v6.009a9.026,9.026,0,0,0-1.947.563,1.471,1.471,0,0,0-.206.092c-.157.072-.315.147-.471.232v-11.8A5.919,5.919,0,0,0,84.161,9.9H80.119a6.075,6.075,0,0,0-3.835,1.368l-.4.324a4.091,4.091,0,0,1-5.179,0l-.4-.324A6.076,6.076,0,0,0,66.476,9.9H62.434a5.919,5.919,0,0,0-5.913,5.913v11.8c-.157-.085-.314-.161-.471-.232a1.468,1.468,0,0,0-.206-.092,9.03,9.03,0,0,0-1.947-.563V11.528a8.609,8.609,0,0,1,8.6-8.6H84.1a8.609,8.609,0,0,1,8.6,8.6v2.3a1.464,1.464,0,1,0,2.929,0v-2.3A11.541,11.541,0,0,0,84.1,0H62.5A11.541,11.541,0,0,0,50.968,11.528V26.065a4.372,4.372,0,0,0-2.251,3.8v2.226A4.347,4.347,0,0,0,53.06,36.43h.921a23.158,23.158,0,0,0,4.743,10.3c.321.408.671.826,1.048,1.244a13.357,13.357,0,0,0-9.234,11.558l-11.932,3.6a7.372,7.372,0,0,0-5.167,5.85L31.642,79.5a1.464,1.464,0,0,0,2.887.493l1.8-10.517a4.459,4.459,0,0,1,3.126-3.539L50.488,62.6v2.9a7.327,7.327,0,0,0-5.569,4.611,7.427,7.427,0,0,0-.435,1.989l-1.067,13.69A3.722,3.722,0,0,0,47.128,89.8h1.826a1.464,1.464,0,1,0,0-2.929H47.128a.793.793,0,0,1-.791-.855L47.4,72.329a4.5,4.5,0,0,1,.263-1.2A4.428,4.428,0,0,1,51.812,68.3l.241,0h.034a4.388,4.388,0,0,1,4.089,2.622,4.491,4.491,0,0,1,.343,1.406L57.586,86.02a.793.793,0,0,1-.791.855H54.969a1.464,1.464,0,1,0,0,2.929h1.826a3.722,3.722,0,0,0,3.711-4.011L59.439,72.1a7.417,7.417,0,0,0-.566-2.321,7.25,7.25,0,0,0-5.457-4.288V61.721L58.45,60.2c.458.965,1.366,3.049,3.163,7.543,1.812,4.534,4.064,10.346,6.224,16q.023.071.053.139c1.441,3.772,2.84,7.466,4.036,10.653a1.464,1.464,0,0,0,2.742,0c1.2-3.187,2.594-6.881,4.036-10.653a1.455,1.455,0,0,0,.053-.139c2.158-5.646,4.409-11.454,6.221-15.987,1.8-4.5,2.709-6.586,3.167-7.551l5.034,1.519v8.649a7.576,7.576,0,1,0,2.929.006V62.605l11.036,3.33a4.459,4.459,0,0,1,3.126,3.539l4.424,25.9a1.454,1.454,0,0,1-1.433,1.7H33.335a1.454,1.454,0,0,1-1.433-1.7l1.46-8.547a1.464,1.464,0,0,0-2.887-.493l-1.46,8.547a4.382,4.382,0,0,0,4.32,5.12H113.26a4.382,4.382,0,0,0,4.32-5.121ZM92.716,29.7a6.284,6.284,0,0,1,1.414-.191,1.5,1.5,0,0,0,.716-.17,1.387,1.387,0,0,1,.1.518v2.226A1.415,1.415,0,0,1,93.535,33.5h-.82V29.7ZM53.879,33.5h-.82a1.415,1.415,0,0,1-1.413-1.413V29.863a1.389,1.389,0,0,1,.1-.518,1.493,1.493,0,0,0,.716.17,6.528,6.528,0,0,1,1.414.192v3.8Zm2.929,1.642V31.3a2.055,2.055,0,0,0,2.642-1.97V15.808a2.987,2.987,0,0,1,2.984-2.984h4.042a3.139,3.139,0,0,1,1.982.707l.4.324a7.02,7.02,0,0,0,8.886,0l.4-.324a3.139,3.139,0,0,1,1.982-.707h4.042a2.987,2.987,0,0,1,2.984,2.984V29.327A2.055,2.055,0,0,0,89.787,31.3v3.846c0,2.138-1.478,6.29-4.218,9.774a19.307,19.307,0,0,1-3.51,3.478,1.466,1.466,0,0,0-.131.1,14.275,14.275,0,0,1-17.263,0,1.486,1.486,0,0,0-.13-.1,19.322,19.322,0,0,1-3.51-3.478C58.286,41.434,56.808,37.282,56.808,35.144ZM82.891,58.8,73.3,65.973,63.7,58.8a6.945,6.945,0,0,0,1.484-4.146V52.3a17.2,17.2,0,0,0,16.219,0v2.361A6.945,6.945,0,0,0,82.891,58.8ZM61.26,57.168a4,4,0,0,0-2.469-.124c-.036.008-.071.018-.105.028L53.626,58.6a10.4,10.4,0,0,1,8.633-8.2v4.263A3.872,3.872,0,0,1,61.26,57.168Zm3.974,11.755-.008-.02-.22-.556-.039-.1-.211-.532-.015-.037q-.325-.818-.627-1.57L64.07,66l-.171-.425-.062-.153-.162-.4-.047-.117-.285-.7-.075-.185-.107-.262-.114-.278-.043-.1-.033-.08q-.254-.616-.482-1.163l0-.009c-.081-.194-.161-.383-.237-.564l-.117-.276,8.251,6.167-3.448,1.465-.018.008-1.439.612Zm3.494,8.966q-.434-1.126-.873-2.26-.685-1.769-1.31-3.369l.546-.232,2.233,2.6Zm4.6,11.9a1.458,1.458,0,0,0-.15-.246c-.662-1.749-1.5-3.962-2.431-6.4l1.367-7.485h2.371l1.367,7.485C74.876,85.7,74,88.007,73.326,89.792Zm1.706-17.057H71.563l-1.642-1.908L73.3,69.393l3.376,1.434Zm3.707,2.9q-.438,1.131-.873,2.26l-.6-3.266,2.233-2.6.546.232Q79.423,73.863,78.739,75.63Zm5.609-14.072c-.072.171-.148.351-.225.534l-.03.072-.233.56-.016.039-.212.514-.04.1-.049.121-.1.237-.121.3-.04.1q-.153.375-.314.772l-.05.124-.161.4-.064.158L82.526,66l-.048.12q-.3.742-.619,1.548l-.021.053-.21.528-.04.1-.221.559,0,.01-.244.617-1.441-.612-.015-.006-3.45-1.465,8.251-6.167Q84.407,61.418,84.348,61.559Zm3.561-4.486h0a4,4,0,0,0-2.57.1,3.871,3.871,0,0,1-1-2.512V50.392A10.322,10.322,0,0,1,92.975,58.6ZM99.274,77.808a4.648,4.648,0,1,1-4.648-4.648A4.654,4.654,0,0,1,99.274,77.808Z" transform="translate(0 0)"/>
  </g>
</svg>
