<svg id="pill" xmlns="http://www.w3.org/2000/svg" width="100" height="100" viewBox="0 0 100 100">
  <path id="Path_36" data-name="Path 36" d="M54.774,56v6.239A3.225,3.225,0,0,0,56.34,65l3.366,2.019a6.451,6.451,0,0,1,3.132,5.532v51.185a6.452,6.452,0,0,1-6.452,6.452H14.452A6.452,6.452,0,0,1,8,123.742V72.556a6.451,6.451,0,0,1,3.132-5.532L14.5,65a3.229,3.229,0,0,0,1.566-2.766V56Z" transform="translate(-6.387 -44.71)" fill="#ececec"/>
  <path id="Path_37" data-name="Path 37" d="M241.613,200.452A6.452,6.452,0,0,0,248.065,194V144h-1.613A6.452,6.452,0,0,0,240,150.452v50Z" transform="translate(-191.613 -114.968)" fill="#b6c1ce"/>
  <rect id="Rectangle_1" data-name="Rectangle 1" width="54.848" height="41.818" transform="translate(1.515 35.455)" fill="#7ece5c"/>
  <path id="Path_38" data-name="Path 38" d="M240,177.613v40.323h8.065V176h-7.837A6.414,6.414,0,0,0,240,177.613Z" transform="translate(-191.613 -140.516)" fill="#7ece5c"/>
  <path id="Path_39" data-name="Path 39" d="M302.71,219.742H270.452A6.452,6.452,0,0,1,264,213.29V158.452A6.452,6.452,0,0,1,270.452,152H302.71a6.452,6.452,0,0,1,6.452,6.452V213.29A6.452,6.452,0,0,1,302.71,219.742Z" transform="translate(-210.774 -121.355)" fill="#ececec"/>
  <path id="Path_40" data-name="Path 40" d="M265.128,464a6.437,6.437,0,0,0,6.224,4.839H303.61A6.439,6.439,0,0,0,309.834,464Z" transform="translate(-211.675 -370.452)" fill="#b6c1ce"/>
  <g id="Group_22" data-name="Group 22" transform="translate(61.212 43.636)">
    <ellipse id="Ellipse_5" data-name="Ellipse 5" cx="3.333" cy="3.182" rx="3.333" ry="3.182" transform="translate(0 0)" fill="#7ece5c"/>
    <circle id="Ellipse_6" data-name="Ellipse 6" cx="3.182" cy="3.182" r="3.182" transform="translate(22.727 0)" fill="#7ece5c"/>
    <circle id="Ellipse_7" data-name="Ellipse 7" cx="3.333" cy="3.333" r="3.333" transform="translate(0 12.727)" fill="#7ece5c"/>
    <ellipse id="Ellipse_8" data-name="Ellipse 8" cx="3.182" cy="3.333" rx="3.182" ry="3.333" transform="translate(22.727 12.727)" fill="#7ece5c"/>
    <ellipse id="Ellipse_9" data-name="Ellipse 9" cx="3.333" cy="3.182" rx="3.333" ry="3.182" transform="translate(0 25.758)" fill="#7ece5c"/>
    <circle id="Ellipse_10" data-name="Ellipse 10" cx="3.182" cy="3.182" r="3.182" transform="translate(22.727 25.758)" fill="#7ece5c"/>
    <circle id="Ellipse_11" data-name="Ellipse 11" cx="3.333" cy="3.333" r="3.333" transform="translate(0 38.485)" fill="#7ece5c"/>
    <ellipse id="Ellipse_12" data-name="Ellipse 12" cx="3.182" cy="3.333" rx="3.182" ry="3.333" transform="translate(22.727 38.485)" fill="#7ece5c"/>
  </g>
  <rect id="Rectangle_2" data-name="Rectangle 2" width="48.485" height="9.697" transform="translate(4.848 1.515)" fill="#8c95a4"/>
  <path id="Path_42" data-name="Path 42" d="M91.935,29.032H59.677a8.057,8.057,0,0,0-1.613.163V27.847a8.1,8.1,0,0,0-3.916-6.915l-3.366-2.019A1.618,1.618,0,0,1,50,17.531V12.9h4.839V0H3.226V12.9H8.065v4.626a1.62,1.62,0,0,1-.782,1.382L3.916,20.931A8.106,8.106,0,0,0,0,27.847V79.032A8.074,8.074,0,0,0,8.065,87.1H51.613v4.839A8.074,8.074,0,0,0,59.677,100H91.935A8.074,8.074,0,0,0,100,91.935V37.1A8.074,8.074,0,0,0,91.935,29.032ZM6.452,3.226H51.613V9.677H6.452ZM8.065,83.871a4.845,4.845,0,0,1-4.839-4.839h38.71V75.806H3.226V37.1H51.613v38.71H45.161v3.226h6.452v4.839Zm44.232-50H3.226V27.847A4.863,4.863,0,0,1,5.576,23.7l3.366-2.019a4.829,4.829,0,0,0,1.945-2.324h6.855V16.129H11.29V12.9H46.774v3.226H20.968v3.226h26.21a4.809,4.809,0,0,0,1.945,2.323L52.489,23.7a4.866,4.866,0,0,1,2.35,4.15v2.8h.05A8.1,8.1,0,0,0,52.3,33.871ZM96.774,91.935a4.845,4.845,0,0,1-4.839,4.839H59.677a4.845,4.845,0,0,1-4.839-4.839V37.1a4.845,4.845,0,0,1,4.839-4.839H91.935A4.845,4.845,0,0,1,96.774,37.1Z"/>
  <rect id="Rectangle_3" data-name="Rectangle 3" width="3.03" height="58.182" transform="translate(74.242 35.455)"/>
  <path id="Path_43" data-name="Path 43" d="M300.839,208a4.839,4.839,0,1,0,4.839,4.839A4.845,4.845,0,0,0,300.839,208Zm0,6.452a1.613,1.613,0,1,1,1.613-1.613A1.615,1.615,0,0,1,300.839,214.452Z" transform="translate(-236.323 -166.065)"/>
  <path id="Path_44" data-name="Path 44" d="M412.839,208a4.839,4.839,0,1,0,4.839,4.839A4.845,4.845,0,0,0,412.839,208Zm0,6.452a1.613,1.613,0,1,1,1.613-1.613A1.615,1.615,0,0,1,412.839,214.452Z" transform="translate(-325.742 -166.065)"/>
  <path id="Path_45" data-name="Path 45" d="M300.839,272a4.839,4.839,0,1,0,4.839,4.839A4.845,4.845,0,0,0,300.839,272Zm0,6.452a1.613,1.613,0,1,1,1.613-1.613A1.614,1.614,0,0,1,300.839,278.452Z" transform="translate(-236.323 -217.161)"/>
  <path id="Path_46" data-name="Path 46" d="M412.839,272a4.839,4.839,0,1,0,4.839,4.839A4.845,4.845,0,0,0,412.839,272Zm0,6.452a1.613,1.613,0,1,1,1.613-1.613A1.614,1.614,0,0,1,412.839,278.452Z" transform="translate(-325.742 -217.161)"/>
  <path id="Path_47" data-name="Path 47" d="M300.839,336a4.839,4.839,0,1,0,4.839,4.839A4.845,4.845,0,0,0,300.839,336Zm0,6.452a1.613,1.613,0,1,1,1.613-1.613A1.613,1.613,0,0,1,300.839,342.452Z" transform="translate(-236.323 -268.258)"/>
  <path id="Path_48" data-name="Path 48" d="M412.839,336a4.839,4.839,0,1,0,4.839,4.839A4.845,4.845,0,0,0,412.839,336Zm0,6.452a1.613,1.613,0,1,1,1.613-1.613A1.613,1.613,0,0,1,412.839,342.452Z" transform="translate(-325.742 -268.258)"/>
  <path id="Path_49" data-name="Path 49" d="M300.839,400a4.839,4.839,0,1,0,4.839,4.839A4.845,4.845,0,0,0,300.839,400Zm0,6.452a1.613,1.613,0,1,1,1.613-1.613A1.613,1.613,0,0,1,300.839,406.452Z" transform="translate(-236.323 -319.355)"/>
  <path id="Path_50" data-name="Path 50" d="M412.839,400a4.839,4.839,0,1,0,4.839,4.839A4.845,4.845,0,0,0,412.839,400Zm0,6.452a1.613,1.613,0,1,1,1.613-1.613A1.613,1.613,0,0,1,412.839,406.452Z" transform="translate(-325.742 -319.355)"/>
  <rect id="Rectangle_4" data-name="Rectangle 4" width="8.182" height="3.03" transform="translate(6.364 63.03)"/>
  <rect id="Rectangle_5" data-name="Rectangle 5" width="8.182" height="3.333" transform="translate(6.364 69.394)"/>
  <g id="pills" transform="translate(21.126 46.881)">
    <path id="Path_53" data-name="Path 53" d="M28.118,190.195l-3.132-2.338L22.71,185l-6.034,6.2-1.169,1.566v2.756l1.608,1.963,1.775.647,2.631-.5,2.318-2.422,4.447-4.51Z" transform="translate(-14.859 -177.271)" fill="#ec5564"/>
    <path id="Path_54" data-name="Path 54" d="M204.98,9.455l-1.733-1.114-2-.334-3.027,1.942L193,15.5l2.151,2.86,3.466,2.443,5.658-5.491,1.587-2.944Z" transform="translate(-184.936 -7.673)" fill="#f4f6f9"/>
    <path id="Path_55" data-name="Path 55" d="M20.076,1.313a4.453,4.453,0,0,0-6.3,0L1.3,13.784a4.455,4.455,0,0,0,6.3,6.3L20.076,7.612A4.454,4.454,0,0,0,20.076,1.313Zm-13.1,18.14a3.563,3.563,0,1,1-5.04-5.039L7.9,8.451a18.382,18.382,0,0,0,2.275,2.765,18.282,18.282,0,0,0,2.765,2.274ZM19.446,6.981,13.58,12.848A17.493,17.493,0,0,1,10.8,10.586,17.483,17.483,0,0,1,8.541,7.809l5.867-5.866a3.563,3.563,0,1,1,5.038,5.039Z" transform="translate(0 -0.008)" stroke="#000" stroke-width="1"/>
    <path id="Path_56" data-name="Path 56" d="M243.326,42.677a2.663,2.663,0,0,0-1.89.782h0L236.4,48.5a.445.445,0,1,0,.63.63l5.04-5.039a1.782,1.782,0,0,1,2.52,0,.446.446,0,0,0,.63-.63A2.669,2.669,0,0,0,243.326,42.677Z" transform="translate(-226.4 -40.895)"/>
  </g>
</svg>
